G75*
%MOIN*%
%OFA0B0*%
%FSLAX24Y24*%
%IPPOS*%
%LPD*%
%AMOC8*
5,1,8,0,0,1.08239X$1,22.5*
%
%ADD10C,0.0100*%
%ADD11R,0.0551X0.0551*%
%ADD12R,0.0630X0.0709*%
%ADD13R,0.0512X0.0630*%
%ADD14R,0.0236X0.0472*%
%ADD15R,0.0512X0.0591*%
%ADD16C,0.0740*%
%ADD17C,0.1075*%
%ADD18C,0.0594*%
%ADD19R,0.1378X0.0787*%
%ADD20C,0.0500*%
%ADD21C,0.0338*%
%ADD22C,0.0120*%
%ADD23C,0.0240*%
D10*
X002260Y002709D02*
X002260Y008142D01*
X002262Y008242D01*
X002268Y008343D01*
X002278Y008443D01*
X002292Y008542D01*
X002309Y008641D01*
X002331Y008739D01*
X002356Y008837D01*
X002385Y008933D01*
X002418Y009028D01*
X002455Y009121D01*
X002495Y009213D01*
X002539Y009304D01*
X002586Y009392D01*
X002637Y009479D01*
X002691Y009564D01*
X002749Y009646D01*
X002809Y009726D01*
X002873Y009804D01*
X002940Y009879D01*
X003010Y009951D01*
X003082Y010021D01*
X003157Y010088D01*
X003235Y010152D01*
X003315Y010212D01*
X003397Y010270D01*
X003482Y010324D01*
X003569Y010375D01*
X003657Y010422D01*
X003748Y010466D01*
X003840Y010506D01*
X003933Y010543D01*
X004028Y010576D01*
X004124Y010605D01*
X004222Y010630D01*
X004320Y010652D01*
X004419Y010669D01*
X004518Y010683D01*
X004618Y010693D01*
X004719Y010699D01*
X004819Y010701D01*
X023283Y010701D01*
X023383Y010699D01*
X023484Y010693D01*
X023584Y010683D01*
X023683Y010669D01*
X023782Y010652D01*
X023880Y010630D01*
X023978Y010605D01*
X024074Y010576D01*
X024169Y010543D01*
X024262Y010506D01*
X024354Y010466D01*
X024445Y010422D01*
X024533Y010375D01*
X024620Y010324D01*
X024705Y010270D01*
X024787Y010212D01*
X024867Y010152D01*
X024945Y010088D01*
X025020Y010021D01*
X025092Y009951D01*
X025162Y009879D01*
X025229Y009804D01*
X025293Y009726D01*
X025353Y009646D01*
X025411Y009564D01*
X025465Y009479D01*
X025516Y009392D01*
X025563Y009304D01*
X025607Y009213D01*
X025647Y009121D01*
X025684Y009028D01*
X025717Y008933D01*
X025746Y008837D01*
X025771Y008739D01*
X025793Y008641D01*
X025810Y008542D01*
X025824Y008443D01*
X025834Y008343D01*
X025840Y008242D01*
X025842Y008142D01*
X025842Y002709D01*
X024260Y002711D02*
X019784Y002711D01*
X019784Y002650D02*
X019784Y003505D01*
X019843Y003505D01*
X019919Y003581D01*
X019919Y004319D01*
X019843Y004395D01*
X019784Y004395D01*
X019784Y005286D01*
X019782Y005290D01*
X019782Y005526D01*
X019705Y005602D01*
X019362Y005602D01*
X019358Y005599D01*
X019336Y005612D01*
X019297Y005622D01*
X019169Y005622D01*
X019169Y005245D01*
X019150Y005245D01*
X019150Y005622D01*
X019022Y005622D01*
X018984Y005612D01*
X018961Y005599D01*
X018957Y005602D01*
X018614Y005602D01*
X018537Y005526D01*
X018537Y005486D01*
X018178Y005486D01*
X018178Y005509D01*
X018102Y005585D01*
X016617Y005585D01*
X016541Y005509D01*
X016541Y004613D01*
X016617Y004537D01*
X017060Y004537D01*
X017002Y004479D01*
X017002Y003821D01*
X017078Y003744D01*
X017737Y003744D01*
X017813Y003821D01*
X017813Y004479D01*
X017755Y004537D01*
X018102Y004537D01*
X018178Y004613D01*
X018178Y004986D01*
X018537Y004986D01*
X018537Y004946D01*
X018614Y004870D01*
X018957Y004870D01*
X018961Y004873D01*
X018984Y004860D01*
X019022Y004850D01*
X019150Y004850D01*
X019150Y005227D01*
X019169Y005227D01*
X019169Y004850D01*
X019284Y004850D01*
X019284Y004395D01*
X019224Y004395D01*
X019170Y004342D01*
X019161Y004357D01*
X019134Y004385D01*
X019099Y004405D01*
X019061Y004415D01*
X018835Y004415D01*
X018835Y004000D01*
X018735Y004000D01*
X018735Y003900D01*
X018380Y003900D01*
X018380Y003615D01*
X018390Y003577D01*
X018410Y003543D01*
X018437Y003515D01*
X018472Y003495D01*
X018510Y003485D01*
X018735Y003485D01*
X018735Y003900D01*
X018835Y003900D01*
X018835Y003485D01*
X019061Y003485D01*
X019099Y003495D01*
X019134Y003515D01*
X019161Y003543D01*
X019170Y003558D01*
X019224Y003505D01*
X019284Y003505D01*
X019284Y002650D01*
X016135Y002650D01*
X016135Y002725D01*
X016195Y002725D01*
X016249Y002778D01*
X016258Y002763D01*
X016286Y002735D01*
X016320Y002715D01*
X016358Y002705D01*
X016584Y002705D01*
X016584Y003100D01*
X016684Y003100D01*
X016684Y003200D01*
X017039Y003200D01*
X017039Y003465D01*
X017029Y003503D01*
X017009Y003537D01*
X016982Y003565D01*
X016947Y003585D01*
X016909Y003595D01*
X016684Y003595D01*
X016684Y003200D01*
X016584Y003200D01*
X016584Y003595D01*
X016358Y003595D01*
X016320Y003585D01*
X016286Y003565D01*
X016258Y003537D01*
X016249Y003522D01*
X016195Y003575D01*
X016135Y003575D01*
X016135Y003744D01*
X016241Y003744D01*
X016317Y003821D01*
X016317Y004479D01*
X016241Y004556D01*
X015582Y004556D01*
X015506Y004479D01*
X015506Y003821D01*
X015582Y003744D01*
X015635Y003744D01*
X015635Y003575D01*
X015576Y003575D01*
X015500Y003499D01*
X014660Y003499D01*
X014660Y003401D02*
X015500Y003401D01*
X015500Y003499D02*
X015500Y002801D01*
X015576Y002725D01*
X015635Y002725D01*
X015635Y002650D01*
X014660Y002650D01*
X014660Y008650D01*
X018170Y008650D01*
X018170Y007838D01*
X018163Y007862D01*
X018143Y007896D01*
X018115Y007924D01*
X018081Y007944D01*
X018043Y007954D01*
X017758Y007954D01*
X017758Y007500D01*
X017658Y007500D01*
X017658Y007400D01*
X017243Y007400D01*
X017243Y007076D01*
X017253Y007040D01*
X016181Y007040D01*
X016070Y006929D01*
X016070Y005771D01*
X016181Y005660D01*
X024260Y005660D01*
X024260Y002650D01*
X019784Y002650D01*
X019784Y002810D02*
X024260Y002810D01*
X024260Y002908D02*
X019784Y002908D01*
X019784Y003007D02*
X020568Y003007D01*
X020589Y002998D02*
X020676Y002974D01*
X020761Y002963D01*
X020761Y003600D01*
X020861Y003600D01*
X020861Y003700D01*
X021497Y003700D01*
X021486Y003784D01*
X021463Y003871D01*
X021429Y003955D01*
X021383Y004033D01*
X021329Y004104D01*
X021265Y004168D01*
X021193Y004223D01*
X021115Y004268D01*
X021032Y004302D01*
X020945Y004326D01*
X020861Y004337D01*
X020861Y003700D01*
X020761Y003700D01*
X020761Y004337D01*
X020676Y004326D01*
X020589Y004302D01*
X020506Y004268D01*
X020428Y004223D01*
X020356Y004168D01*
X020293Y004104D01*
X020238Y004033D01*
X020193Y003955D01*
X020158Y003871D01*
X020135Y003784D01*
X020124Y003700D01*
X020761Y003700D01*
X020761Y003600D01*
X020124Y003600D01*
X020135Y003516D01*
X020158Y003429D01*
X020193Y003345D01*
X020238Y003267D01*
X020293Y003196D01*
X020356Y003132D01*
X020428Y003077D01*
X020506Y003032D01*
X020589Y002998D01*
X020761Y003007D02*
X020861Y003007D01*
X020861Y002963D02*
X020945Y002974D01*
X021032Y002998D01*
X021115Y003032D01*
X021193Y003077D01*
X021265Y003132D01*
X021329Y003196D01*
X021383Y003267D01*
X021429Y003345D01*
X021463Y003429D01*
X021486Y003516D01*
X021497Y003600D01*
X020861Y003600D01*
X020861Y002963D01*
X020861Y003105D02*
X020761Y003105D01*
X020761Y003204D02*
X020861Y003204D01*
X020861Y003302D02*
X020761Y003302D01*
X020761Y003401D02*
X020861Y003401D01*
X020861Y003499D02*
X020761Y003499D01*
X020761Y003598D02*
X020861Y003598D01*
X020861Y003696D02*
X023119Y003696D01*
X023119Y003700D02*
X023119Y003600D01*
X023219Y003600D01*
X023219Y003700D01*
X023856Y003700D01*
X023845Y003784D01*
X023821Y003871D01*
X023787Y003955D01*
X023742Y004033D01*
X023687Y004104D01*
X023623Y004168D01*
X023552Y004223D01*
X023474Y004268D01*
X023390Y004302D01*
X023303Y004326D01*
X023219Y004337D01*
X023219Y003700D01*
X023119Y003700D01*
X023119Y004337D01*
X023035Y004326D01*
X022948Y004302D01*
X022864Y004268D01*
X022786Y004223D01*
X022715Y004168D01*
X022651Y004104D01*
X022596Y004033D01*
X022551Y003955D01*
X022517Y003871D01*
X022493Y003784D01*
X022482Y003700D01*
X023119Y003700D01*
X023119Y003795D02*
X023219Y003795D01*
X023219Y003893D02*
X023119Y003893D01*
X023119Y003992D02*
X023219Y003992D01*
X023219Y004090D02*
X023119Y004090D01*
X023119Y004189D02*
X023219Y004189D01*
X023219Y004287D02*
X023119Y004287D01*
X022911Y004287D02*
X021069Y004287D01*
X021238Y004189D02*
X022742Y004189D01*
X022640Y004090D02*
X021340Y004090D01*
X021407Y003992D02*
X022572Y003992D01*
X022526Y003893D02*
X021454Y003893D01*
X021484Y003795D02*
X022496Y003795D01*
X022482Y003600D02*
X022493Y003516D01*
X022517Y003429D01*
X022551Y003345D01*
X022596Y003267D01*
X022651Y003196D01*
X022715Y003132D01*
X022786Y003077D01*
X022864Y003032D01*
X022948Y002998D01*
X023035Y002974D01*
X023119Y002963D01*
X023119Y003600D01*
X022482Y003600D01*
X022483Y003598D02*
X021497Y003598D01*
X021482Y003499D02*
X022498Y003499D01*
X022528Y003401D02*
X021451Y003401D01*
X021404Y003302D02*
X022576Y003302D01*
X022645Y003204D02*
X021335Y003204D01*
X021230Y003105D02*
X022750Y003105D01*
X022926Y003007D02*
X021053Y003007D01*
X020392Y003105D02*
X019784Y003105D01*
X019784Y003204D02*
X020287Y003204D01*
X020218Y003302D02*
X019784Y003302D01*
X019784Y003401D02*
X020170Y003401D01*
X020140Y003499D02*
X019784Y003499D01*
X019919Y003598D02*
X020124Y003598D01*
X020138Y003795D02*
X019919Y003795D01*
X019919Y003893D02*
X020167Y003893D01*
X020214Y003992D02*
X019919Y003992D01*
X019919Y004090D02*
X020282Y004090D01*
X020383Y004189D02*
X019919Y004189D01*
X019919Y004287D02*
X020552Y004287D01*
X020761Y004287D02*
X020861Y004287D01*
X020861Y004189D02*
X020761Y004189D01*
X020761Y004090D02*
X020861Y004090D01*
X020861Y003992D02*
X020761Y003992D01*
X020761Y003893D02*
X020861Y003893D01*
X020861Y003795D02*
X020761Y003795D01*
X020761Y003696D02*
X019919Y003696D01*
X019284Y003499D02*
X019106Y003499D01*
X019284Y003401D02*
X017039Y003401D01*
X017030Y003499D02*
X018465Y003499D01*
X018384Y003598D02*
X016135Y003598D01*
X016135Y003696D02*
X018380Y003696D01*
X018380Y003795D02*
X017787Y003795D01*
X017813Y003893D02*
X018380Y003893D01*
X018380Y004000D02*
X018735Y004000D01*
X018735Y004415D01*
X018510Y004415D01*
X018472Y004405D01*
X018437Y004385D01*
X018410Y004357D01*
X018390Y004323D01*
X018380Y004285D01*
X018380Y004000D01*
X018380Y004090D02*
X017813Y004090D01*
X017813Y003992D02*
X018735Y003992D01*
X018735Y004090D02*
X018835Y004090D01*
X018835Y004189D02*
X018735Y004189D01*
X018735Y004287D02*
X018835Y004287D01*
X018835Y004386D02*
X018735Y004386D01*
X018438Y004386D02*
X017813Y004386D01*
X017809Y004484D02*
X019284Y004484D01*
X019284Y004583D02*
X018148Y004583D01*
X018178Y004681D02*
X019284Y004681D01*
X019284Y004780D02*
X018178Y004780D01*
X018178Y004878D02*
X018605Y004878D01*
X018537Y004977D02*
X018178Y004977D01*
X018120Y005568D02*
X018579Y005568D01*
X019150Y005568D02*
X019169Y005568D01*
X019169Y005469D02*
X019150Y005469D01*
X019150Y005371D02*
X019169Y005371D01*
X019169Y005272D02*
X019150Y005272D01*
X019150Y005174D02*
X019169Y005174D01*
X019169Y005075D02*
X019150Y005075D01*
X019150Y004977D02*
X019169Y004977D01*
X019169Y004878D02*
X019150Y004878D01*
X019133Y004386D02*
X019214Y004386D01*
X019784Y004484D02*
X024260Y004484D01*
X024260Y004386D02*
X019853Y004386D01*
X019784Y004583D02*
X024260Y004583D01*
X024260Y004681D02*
X019784Y004681D01*
X019784Y004780D02*
X024260Y004780D01*
X024260Y004878D02*
X019784Y004878D01*
X019784Y004977D02*
X024260Y004977D01*
X024260Y005075D02*
X019784Y005075D01*
X019784Y005174D02*
X024260Y005174D01*
X024260Y005272D02*
X019784Y005272D01*
X019782Y005371D02*
X024260Y005371D01*
X024260Y005469D02*
X019782Y005469D01*
X019740Y005568D02*
X024260Y005568D01*
X024260Y004287D02*
X023427Y004287D01*
X023596Y004189D02*
X024260Y004189D01*
X024260Y004090D02*
X023698Y004090D01*
X023766Y003992D02*
X024260Y003992D01*
X024260Y003893D02*
X023812Y003893D01*
X023842Y003795D02*
X024260Y003795D01*
X024260Y003696D02*
X023219Y003696D01*
X023219Y003600D02*
X023856Y003600D01*
X023845Y003516D01*
X023821Y003429D01*
X023787Y003345D01*
X023742Y003267D01*
X023687Y003196D01*
X023623Y003132D01*
X023552Y003077D01*
X023474Y003032D01*
X023390Y002998D01*
X023303Y002974D01*
X023219Y002963D01*
X023219Y003600D01*
X023219Y003598D02*
X023119Y003598D01*
X023119Y003499D02*
X023219Y003499D01*
X023219Y003401D02*
X023119Y003401D01*
X023119Y003302D02*
X023219Y003302D01*
X023219Y003204D02*
X023119Y003204D01*
X023119Y003105D02*
X023219Y003105D01*
X023219Y003007D02*
X023119Y003007D01*
X023412Y003007D02*
X024260Y003007D01*
X024260Y003105D02*
X023588Y003105D01*
X023693Y003204D02*
X024260Y003204D01*
X024260Y003302D02*
X023762Y003302D01*
X023810Y003401D02*
X024260Y003401D01*
X024260Y003499D02*
X023840Y003499D01*
X023855Y003598D02*
X024260Y003598D01*
X025842Y002709D02*
X025840Y002609D01*
X025834Y002508D01*
X025824Y002408D01*
X025810Y002309D01*
X025793Y002210D01*
X025771Y002112D01*
X025746Y002014D01*
X025717Y001918D01*
X025684Y001823D01*
X025647Y001730D01*
X025607Y001638D01*
X025563Y001547D01*
X025516Y001459D01*
X025465Y001372D01*
X025411Y001287D01*
X025353Y001205D01*
X025293Y001125D01*
X025229Y001047D01*
X025162Y000972D01*
X025092Y000900D01*
X025020Y000830D01*
X024945Y000763D01*
X024867Y000699D01*
X024787Y000639D01*
X024705Y000581D01*
X024620Y000527D01*
X024533Y000476D01*
X024445Y000429D01*
X024354Y000385D01*
X024262Y000345D01*
X024169Y000308D01*
X024074Y000275D01*
X023978Y000246D01*
X023880Y000221D01*
X023782Y000199D01*
X023683Y000182D01*
X023584Y000168D01*
X023484Y000158D01*
X023383Y000152D01*
X023283Y000150D01*
X004819Y000150D01*
X004719Y000152D01*
X004618Y000158D01*
X004518Y000168D01*
X004419Y000182D01*
X004320Y000199D01*
X004222Y000221D01*
X004124Y000246D01*
X004028Y000275D01*
X003933Y000308D01*
X003840Y000345D01*
X003748Y000385D01*
X003657Y000429D01*
X003569Y000476D01*
X003482Y000527D01*
X003397Y000581D01*
X003315Y000639D01*
X003235Y000699D01*
X003157Y000763D01*
X003082Y000830D01*
X003010Y000900D01*
X002940Y000972D01*
X002873Y001047D01*
X002809Y001125D01*
X002749Y001205D01*
X002691Y001287D01*
X002637Y001372D01*
X002586Y001459D01*
X002539Y001547D01*
X002495Y001638D01*
X002455Y001730D01*
X002418Y001823D01*
X002385Y001918D01*
X002356Y002014D01*
X002331Y002112D01*
X002309Y002210D01*
X002292Y002309D01*
X002278Y002408D01*
X002268Y002508D01*
X002262Y002609D01*
X002260Y002709D01*
X014660Y002711D02*
X015635Y002711D01*
X015500Y002810D02*
X014660Y002810D01*
X014660Y002908D02*
X015500Y002908D01*
X015500Y003007D02*
X014660Y003007D01*
X014660Y003105D02*
X015500Y003105D01*
X015500Y003204D02*
X014660Y003204D01*
X014660Y003302D02*
X015500Y003302D01*
X015635Y003598D02*
X014660Y003598D01*
X014660Y003696D02*
X015635Y003696D01*
X015532Y003795D02*
X014660Y003795D01*
X014660Y003893D02*
X015506Y003893D01*
X015506Y003992D02*
X014660Y003992D01*
X014660Y004090D02*
X015506Y004090D01*
X015506Y004189D02*
X014660Y004189D01*
X014660Y004287D02*
X015506Y004287D01*
X015506Y004386D02*
X014660Y004386D01*
X014660Y004484D02*
X015510Y004484D01*
X016312Y004484D02*
X017007Y004484D01*
X017002Y004386D02*
X016317Y004386D01*
X016317Y004287D02*
X017002Y004287D01*
X017002Y004189D02*
X016317Y004189D01*
X016317Y004090D02*
X017002Y004090D01*
X017002Y003992D02*
X016317Y003992D01*
X016317Y003893D02*
X017002Y003893D01*
X017028Y003795D02*
X016291Y003795D01*
X016584Y003499D02*
X016684Y003499D01*
X016684Y003401D02*
X016584Y003401D01*
X016584Y003302D02*
X016684Y003302D01*
X016684Y003204D02*
X016584Y003204D01*
X016684Y003105D02*
X019284Y003105D01*
X019284Y003007D02*
X017039Y003007D01*
X017039Y003100D02*
X017039Y002835D01*
X017029Y002797D01*
X017009Y002763D01*
X016982Y002735D01*
X016947Y002715D01*
X016909Y002705D01*
X016684Y002705D01*
X016684Y003100D01*
X017039Y003100D01*
X017039Y003204D02*
X019284Y003204D01*
X019284Y003302D02*
X017039Y003302D01*
X017039Y002908D02*
X019284Y002908D01*
X019284Y002810D02*
X017033Y002810D01*
X016933Y002711D02*
X019284Y002711D01*
X018835Y003499D02*
X018735Y003499D01*
X018735Y003598D02*
X018835Y003598D01*
X018835Y003696D02*
X018735Y003696D01*
X018735Y003795D02*
X018835Y003795D01*
X018835Y003893D02*
X018735Y003893D01*
X018380Y004189D02*
X017813Y004189D01*
X017813Y004287D02*
X018380Y004287D01*
X016572Y004583D02*
X014660Y004583D01*
X014660Y004681D02*
X016541Y004681D01*
X016541Y004780D02*
X014660Y004780D01*
X014660Y004878D02*
X016541Y004878D01*
X016541Y004977D02*
X014660Y004977D01*
X014660Y005075D02*
X016541Y005075D01*
X016541Y005174D02*
X014660Y005174D01*
X014660Y005272D02*
X016541Y005272D01*
X016541Y005371D02*
X014660Y005371D01*
X014660Y005469D02*
X016541Y005469D01*
X016599Y005568D02*
X014660Y005568D01*
X014660Y005666D02*
X016175Y005666D01*
X016076Y005765D02*
X014660Y005765D01*
X014660Y005863D02*
X016070Y005863D01*
X016070Y005962D02*
X014660Y005962D01*
X014660Y006060D02*
X016070Y006060D01*
X016070Y006159D02*
X014660Y006159D01*
X014660Y006257D02*
X016070Y006257D01*
X016070Y006356D02*
X014660Y006356D01*
X014660Y006454D02*
X016070Y006454D01*
X016070Y006553D02*
X014660Y006553D01*
X014660Y006651D02*
X016070Y006651D01*
X016070Y006750D02*
X014660Y006750D01*
X014660Y006848D02*
X016070Y006848D01*
X016087Y006947D02*
X014660Y006947D01*
X014660Y007045D02*
X017252Y007045D01*
X017243Y007144D02*
X014660Y007144D01*
X014660Y007242D02*
X017243Y007242D01*
X017243Y007341D02*
X014660Y007341D01*
X014660Y007439D02*
X017658Y007439D01*
X017658Y007500D02*
X017243Y007500D01*
X017243Y007824D01*
X017254Y007862D01*
X017273Y007896D01*
X017301Y007924D01*
X017335Y007944D01*
X017374Y007954D01*
X017658Y007954D01*
X017658Y007500D01*
X017658Y007538D02*
X017758Y007538D01*
X017758Y007636D02*
X017658Y007636D01*
X017658Y007735D02*
X017758Y007735D01*
X017758Y007833D02*
X017658Y007833D01*
X017658Y007932D02*
X017758Y007932D01*
X018103Y007932D02*
X018170Y007932D01*
X018170Y008030D02*
X014660Y008030D01*
X014660Y007932D02*
X017314Y007932D01*
X017246Y007833D02*
X014660Y007833D01*
X014660Y007735D02*
X017243Y007735D01*
X017243Y007636D02*
X014660Y007636D01*
X014660Y007538D02*
X017243Y007538D01*
X018170Y008129D02*
X014660Y008129D01*
X014660Y008227D02*
X018170Y008227D01*
X018170Y008326D02*
X014660Y008326D01*
X014660Y008424D02*
X018170Y008424D01*
X018170Y008523D02*
X014660Y008523D01*
X014660Y008621D02*
X018170Y008621D01*
X016684Y003007D02*
X016584Y003007D01*
X016584Y002908D02*
X016684Y002908D01*
X016684Y002810D02*
X016584Y002810D01*
X016584Y002711D02*
X016684Y002711D01*
X016334Y002711D02*
X016135Y002711D01*
D11*
X015911Y004150D03*
X017408Y004150D03*
D12*
X017708Y007450D03*
X018811Y007450D03*
D13*
X018785Y003950D03*
X019534Y003950D03*
D14*
X019534Y005236D03*
X019160Y005236D03*
X018785Y005236D03*
X018785Y006264D03*
X019534Y006264D03*
D15*
X016634Y003150D03*
X015885Y003150D03*
D16*
X015760Y000750D03*
X016760Y000750D03*
X017760Y000750D03*
X018760Y000750D03*
X019760Y000750D03*
X014760Y000750D03*
X013760Y000750D03*
X012760Y000750D03*
X011760Y000750D03*
X010760Y000750D03*
X009760Y000750D03*
X008760Y000750D03*
D17*
X007760Y003650D03*
X010118Y003650D03*
X010108Y007850D03*
X007750Y007850D03*
X020801Y007850D03*
X023160Y007850D03*
X023169Y003650D03*
X020811Y003650D03*
D18*
X005409Y004381D03*
X005409Y005366D03*
X005409Y006350D03*
X004110Y006350D03*
X004110Y005366D03*
X004110Y004381D03*
D19*
X017360Y005061D03*
X017360Y006439D03*
D20*
X024260Y009650D03*
X024260Y001150D03*
X003760Y001150D03*
X003760Y009650D03*
D21*
X015260Y008150D03*
X016260Y008150D03*
X017060Y007750D03*
X017460Y008150D03*
X017960Y008150D03*
X017060Y007250D03*
X015260Y007150D03*
X015260Y006150D03*
X015260Y005150D03*
X015160Y003850D03*
X016660Y003850D03*
X017260Y003450D03*
X017260Y002950D03*
X018160Y003750D03*
X018560Y003250D03*
X019060Y003250D03*
X020260Y002850D03*
X022060Y002850D03*
X022060Y003650D03*
X022060Y004650D03*
X022060Y005150D03*
X023760Y005150D03*
X023760Y004650D03*
X023760Y002850D03*
X020260Y004650D03*
X020260Y005150D03*
X019060Y004650D03*
X018560Y004650D03*
X018160Y004250D03*
D22*
X016260Y005850D02*
X016260Y006850D01*
X016511Y006850D01*
X016511Y006499D01*
X017300Y006499D01*
X017300Y006379D01*
X017420Y006379D01*
X017420Y006499D01*
X018208Y006499D01*
X018208Y006850D01*
X018360Y006850D01*
X018360Y007012D01*
X018368Y006997D01*
X018397Y006968D01*
X018434Y006947D01*
X018475Y006936D01*
X018751Y006936D01*
X018751Y007390D01*
X018871Y007390D01*
X018871Y007510D01*
X019286Y007510D01*
X019286Y007825D01*
X019275Y007866D01*
X019254Y007903D01*
X019224Y007932D01*
X019187Y007953D01*
X019147Y007964D01*
X018871Y007964D01*
X018871Y007510D01*
X018751Y007510D01*
X018751Y007964D01*
X018475Y007964D01*
X018434Y007953D01*
X018397Y007932D01*
X018368Y007903D01*
X018360Y007888D01*
X018360Y008650D01*
X024260Y008650D01*
X024260Y005850D01*
X016260Y005850D01*
X016260Y005957D02*
X016537Y005957D01*
X016543Y005947D02*
X016572Y005917D01*
X016609Y005896D01*
X016649Y005885D01*
X017300Y005885D01*
X017300Y006379D01*
X016511Y006379D01*
X016511Y006024D01*
X016521Y005984D01*
X016543Y005947D01*
X016511Y006075D02*
X016260Y006075D01*
X016260Y006194D02*
X016511Y006194D01*
X016511Y006312D02*
X016260Y006312D01*
X016260Y006431D02*
X017300Y006431D01*
X017300Y006312D02*
X017420Y006312D01*
X017420Y006379D02*
X017420Y005885D01*
X018070Y005885D01*
X018110Y005896D01*
X018147Y005917D01*
X018177Y005947D01*
X018198Y005984D01*
X018208Y006024D01*
X018208Y006379D01*
X017420Y006379D01*
X017420Y006431D02*
X018507Y006431D01*
X018507Y006521D02*
X018507Y006264D01*
X018507Y006007D01*
X018518Y005966D01*
X018539Y005930D01*
X018569Y005900D01*
X018606Y005879D01*
X018646Y005868D01*
X018785Y005868D01*
X018785Y006264D01*
X018507Y006264D01*
X018785Y006264D01*
X018785Y006264D01*
X018786Y006264D01*
X018786Y006264D01*
X019064Y006264D01*
X019064Y006007D01*
X019053Y005966D01*
X019032Y005930D01*
X019002Y005900D01*
X018965Y005879D01*
X018925Y005868D01*
X018786Y005868D01*
X018786Y006264D01*
X019064Y006264D01*
X019064Y006521D01*
X019053Y006562D01*
X019032Y006599D01*
X019002Y006628D01*
X018965Y006649D01*
X018925Y006660D01*
X018786Y006660D01*
X018786Y006264D01*
X018785Y006264D01*
X018785Y006660D01*
X018646Y006660D01*
X018606Y006649D01*
X018569Y006628D01*
X018539Y006599D01*
X018518Y006562D01*
X018507Y006521D01*
X018515Y006549D02*
X018208Y006549D01*
X018208Y006668D02*
X024260Y006668D01*
X024260Y006786D02*
X018208Y006786D01*
X018360Y006905D02*
X024260Y006905D01*
X024260Y007023D02*
X019268Y007023D01*
X019275Y007034D02*
X019286Y007075D01*
X019286Y007390D01*
X018871Y007390D01*
X018871Y006936D01*
X019147Y006936D01*
X019187Y006947D01*
X019224Y006968D01*
X019254Y006997D01*
X019275Y007034D01*
X019286Y007142D02*
X024260Y007142D01*
X024260Y007260D02*
X023532Y007260D01*
X023548Y007269D02*
X023620Y007325D01*
X023685Y007389D01*
X023741Y007462D01*
X023786Y007541D01*
X023821Y007625D01*
X023845Y007714D01*
X023855Y007790D01*
X023220Y007790D01*
X023220Y007910D01*
X023855Y007910D01*
X023845Y007986D01*
X023821Y008075D01*
X023786Y008159D01*
X023741Y008238D01*
X023685Y008311D01*
X023620Y008375D01*
X023548Y008431D01*
X023469Y008477D01*
X023384Y008512D01*
X023296Y008535D01*
X023220Y008546D01*
X023220Y007910D01*
X023100Y007910D01*
X023100Y008546D01*
X023023Y008535D01*
X022935Y008512D01*
X022850Y008477D01*
X022771Y008431D01*
X022699Y008375D01*
X022634Y008311D01*
X022578Y008238D01*
X022533Y008159D01*
X022498Y008075D01*
X022474Y007986D01*
X022464Y007910D01*
X023100Y007910D01*
X023100Y007790D01*
X023220Y007790D01*
X023220Y007154D01*
X023296Y007165D01*
X023384Y007188D01*
X023469Y007223D01*
X023548Y007269D01*
X023674Y007379D02*
X024260Y007379D01*
X024260Y007497D02*
X023761Y007497D01*
X023817Y007616D02*
X024260Y007616D01*
X024260Y007734D02*
X023848Y007734D01*
X024260Y007853D02*
X023220Y007853D01*
X023220Y007971D02*
X023100Y007971D01*
X023100Y007853D02*
X020861Y007853D01*
X020861Y007910D02*
X021497Y007910D01*
X021487Y007986D01*
X021463Y008075D01*
X021428Y008159D01*
X021382Y008238D01*
X021327Y008311D01*
X021262Y008375D01*
X021190Y008431D01*
X021110Y008477D01*
X021026Y008512D01*
X020938Y008535D01*
X020861Y008546D01*
X020861Y007910D01*
X020741Y007910D01*
X020741Y007790D01*
X020106Y007790D01*
X020116Y007714D01*
X020139Y007625D01*
X020174Y007541D01*
X020220Y007462D01*
X020276Y007389D01*
X020340Y007325D01*
X020413Y007269D01*
X020492Y007223D01*
X020577Y007188D01*
X020665Y007165D01*
X020741Y007154D01*
X020741Y007790D01*
X020861Y007790D01*
X020861Y007154D01*
X020938Y007165D01*
X021026Y007188D01*
X021110Y007223D01*
X021190Y007269D01*
X021262Y007325D01*
X021327Y007389D01*
X021382Y007462D01*
X021428Y007541D01*
X021463Y007625D01*
X021487Y007714D01*
X021497Y007790D01*
X020861Y007790D01*
X020861Y007910D01*
X020861Y007971D02*
X020741Y007971D01*
X020741Y007910D02*
X020741Y008546D01*
X020665Y008535D01*
X020577Y008512D01*
X020492Y008477D01*
X020413Y008431D01*
X020340Y008375D01*
X020276Y008311D01*
X020220Y008238D01*
X020174Y008159D01*
X020139Y008075D01*
X020116Y007986D01*
X020106Y007910D01*
X020741Y007910D01*
X020741Y007853D02*
X019278Y007853D01*
X019286Y007734D02*
X020113Y007734D01*
X020144Y007616D02*
X019286Y007616D01*
X019286Y007379D02*
X020286Y007379D01*
X020200Y007497D02*
X018871Y007497D01*
X018871Y007379D02*
X018751Y007379D01*
X018751Y007260D02*
X018871Y007260D01*
X018871Y007142D02*
X018751Y007142D01*
X018751Y007023D02*
X018871Y007023D01*
X019286Y007260D02*
X020428Y007260D01*
X020741Y007260D02*
X020861Y007260D01*
X020861Y007379D02*
X020741Y007379D01*
X020741Y007497D02*
X020861Y007497D01*
X020861Y007616D02*
X020741Y007616D01*
X020741Y007734D02*
X020861Y007734D01*
X020861Y008090D02*
X020741Y008090D01*
X020741Y008208D02*
X020861Y008208D01*
X020861Y008327D02*
X020741Y008327D01*
X020741Y008445D02*
X020861Y008445D01*
X021165Y008445D02*
X022795Y008445D01*
X022650Y008327D02*
X021311Y008327D01*
X021400Y008208D02*
X022561Y008208D01*
X022504Y008090D02*
X021457Y008090D01*
X021489Y007971D02*
X022472Y007971D01*
X022464Y007790D02*
X022474Y007714D01*
X022498Y007625D01*
X022533Y007541D01*
X022578Y007462D01*
X022634Y007389D01*
X022699Y007325D01*
X022771Y007269D01*
X022850Y007223D01*
X022935Y007188D01*
X023023Y007165D01*
X023100Y007154D01*
X023100Y007790D01*
X022464Y007790D01*
X022471Y007734D02*
X021489Y007734D01*
X021459Y007616D02*
X022502Y007616D01*
X022558Y007497D02*
X021403Y007497D01*
X021316Y007379D02*
X022645Y007379D01*
X022787Y007260D02*
X021174Y007260D01*
X020114Y007971D02*
X018360Y007971D01*
X018360Y008090D02*
X020146Y008090D01*
X020203Y008208D02*
X018360Y008208D01*
X018360Y008327D02*
X020291Y008327D01*
X020437Y008445D02*
X018360Y008445D01*
X018360Y008564D02*
X024260Y008564D01*
X024260Y008445D02*
X023524Y008445D01*
X023669Y008327D02*
X024260Y008327D01*
X024260Y008208D02*
X023758Y008208D01*
X023815Y008090D02*
X024260Y008090D01*
X024260Y007971D02*
X023847Y007971D01*
X023220Y008090D02*
X023100Y008090D01*
X023100Y008208D02*
X023220Y008208D01*
X023220Y008327D02*
X023100Y008327D01*
X023100Y008445D02*
X023220Y008445D01*
X023220Y007734D02*
X023100Y007734D01*
X023100Y007616D02*
X023220Y007616D01*
X023220Y007497D02*
X023100Y007497D01*
X023100Y007379D02*
X023220Y007379D01*
X023220Y007260D02*
X023100Y007260D01*
X024260Y006549D02*
X019804Y006549D01*
X019801Y006562D02*
X019780Y006599D01*
X019750Y006628D01*
X019713Y006649D01*
X019673Y006660D01*
X019534Y006660D01*
X019534Y006264D01*
X019534Y006264D01*
X019812Y006264D01*
X019812Y006007D01*
X019801Y005966D01*
X019780Y005930D01*
X019750Y005900D01*
X019713Y005879D01*
X019673Y005868D01*
X019534Y005868D01*
X019534Y006264D01*
X019812Y006264D01*
X019812Y006521D01*
X019801Y006562D01*
X019812Y006431D02*
X024260Y006431D01*
X024260Y006312D02*
X019812Y006312D01*
X019812Y006194D02*
X024260Y006194D01*
X024260Y006075D02*
X019812Y006075D01*
X019795Y005957D02*
X024260Y005957D01*
X019534Y005957D02*
X019534Y005957D01*
X019534Y005868D02*
X019534Y006264D01*
X019534Y006264D01*
X019534Y006264D01*
X019255Y006264D01*
X019255Y006007D01*
X019266Y005966D01*
X019287Y005930D01*
X019317Y005900D01*
X019354Y005879D01*
X019394Y005868D01*
X019534Y005868D01*
X019534Y006075D02*
X019534Y006075D01*
X019534Y006194D02*
X019534Y006194D01*
X019534Y006264D02*
X019534Y006264D01*
X019534Y006660D01*
X019394Y006660D01*
X019354Y006649D01*
X019317Y006628D01*
X019287Y006599D01*
X019266Y006562D01*
X019255Y006521D01*
X019255Y006264D01*
X019534Y006264D01*
X019534Y006312D02*
X019534Y006312D01*
X019534Y006431D02*
X019534Y006431D01*
X019534Y006549D02*
X019534Y006549D01*
X019263Y006549D02*
X019056Y006549D01*
X019064Y006431D02*
X019255Y006431D01*
X019255Y006312D02*
X019064Y006312D01*
X019064Y006194D02*
X019255Y006194D01*
X019255Y006075D02*
X019064Y006075D01*
X019047Y005957D02*
X019272Y005957D01*
X018786Y005957D02*
X018785Y005957D01*
X018785Y006075D02*
X018786Y006075D01*
X018785Y006194D02*
X018786Y006194D01*
X018785Y006312D02*
X018786Y006312D01*
X018785Y006431D02*
X018786Y006431D01*
X018785Y006549D02*
X018786Y006549D01*
X018507Y006312D02*
X018208Y006312D01*
X018208Y006194D02*
X018507Y006194D01*
X018507Y006075D02*
X018208Y006075D01*
X018182Y005957D02*
X018524Y005957D01*
X017420Y005957D02*
X017300Y005957D01*
X017300Y006075D02*
X017420Y006075D01*
X017420Y006194D02*
X017300Y006194D01*
X016511Y006549D02*
X016260Y006549D01*
X016260Y006668D02*
X016511Y006668D01*
X016511Y006786D02*
X016260Y006786D01*
X018751Y007616D02*
X018871Y007616D01*
X018871Y007734D02*
X018751Y007734D01*
X018751Y007853D02*
X018871Y007853D01*
D23*
X018785Y005236D02*
X017534Y005236D01*
X017360Y005061D01*
X017408Y005013D01*
X017408Y004150D01*
X015911Y004150D02*
X015885Y004250D01*
X015885Y003150D01*
X015885Y002276D01*
X015760Y002150D01*
X009260Y002150D01*
X008760Y001650D01*
X008760Y000750D01*
X009760Y000750D02*
X010760Y000750D01*
X011760Y000750D02*
X012760Y000750D01*
X013760Y000750D02*
X014760Y000750D01*
X015760Y000750D02*
X016760Y000750D01*
X017760Y000750D02*
X018760Y000750D01*
X019760Y000750D02*
X019760Y002150D01*
X019534Y002376D01*
X019534Y003950D01*
X019534Y005236D01*
X010118Y003650D02*
X007760Y003650D01*
X007760Y004850D01*
X007244Y005366D01*
X005409Y005366D01*
X004110Y005366D01*
X004110Y006350D02*
X005409Y006350D01*
X007260Y006350D01*
X007760Y006850D01*
X007760Y007841D01*
X007750Y007850D01*
X010108Y007850D01*
M02*
