G75*
%MOIN*%
%OFA0B0*%
%FSLAX24Y24*%
%IPPOS*%
%LPD*%
%AMOC8*
5,1,8,0,0,1.08239X$1,22.5*
%
%ADD10R,0.0631X0.0631*%
%ADD11R,0.0710X0.0789*%
%ADD12R,0.0592X0.0710*%
%ADD13R,0.0316X0.0552*%
%ADD14R,0.0592X0.0671*%
%ADD15C,0.0820*%
%ADD16C,0.1155*%
%ADD17C,0.0674*%
%ADD18R,0.1458X0.0867*%
%ADD19C,0.0580*%
D10*
X015911Y004150D03*
X017408Y004150D03*
D11*
X017708Y007450D03*
X018811Y007450D03*
D12*
X018785Y003950D03*
X019534Y003950D03*
D13*
X019534Y005236D03*
X019160Y005236D03*
X018785Y005236D03*
X018785Y006264D03*
X019534Y006264D03*
D14*
X016634Y003150D03*
X015885Y003150D03*
D15*
X015760Y000750D03*
X016760Y000750D03*
X017760Y000750D03*
X018760Y000750D03*
X019760Y000750D03*
X014760Y000750D03*
X013760Y000750D03*
X012760Y000750D03*
X011760Y000750D03*
X010760Y000750D03*
X009760Y000750D03*
X008760Y000750D03*
D16*
X007760Y003650D03*
X010118Y003650D03*
X010108Y007850D03*
X007750Y007850D03*
X020801Y007850D03*
X023160Y007850D03*
X023169Y003650D03*
X020811Y003650D03*
D17*
X005409Y004381D03*
X005409Y005366D03*
X005409Y006350D03*
X004110Y006350D03*
X004110Y005366D03*
X004110Y004381D03*
D18*
X017360Y005061D03*
X017360Y006439D03*
D19*
X003760Y001150D03*
X003760Y009650D03*
X024260Y009650D03*
X024260Y001150D03*
M02*
