G75*
%MOIN*%
%OFA0B0*%
%FSLAX24Y24*%
%IPPOS*%
%LPD*%
%AMOC8*
5,1,8,0,0,1.08239X$1,22.5*
%
%ADD10C,0.0080*%
%ADD11C,0.0100*%
%ADD12C,0.0050*%
%ADD13C,0.0120*%
%ADD14C,0.0060*%
%ADD15C,0.0040*%
%ADD16R,0.0041X0.0014*%
%ADD17R,0.3923X0.0014*%
%ADD18R,0.3923X0.0014*%
%ADD19R,0.0385X0.0014*%
%ADD20R,0.3428X0.0014*%
%ADD21R,0.0344X0.0014*%
%ADD22R,0.3386X0.0014*%
%ADD23R,0.0317X0.0014*%
%ADD24R,0.3373X0.0014*%
%ADD25R,0.0303X0.0014*%
%ADD26R,0.3345X0.0014*%
%ADD27R,0.0289X0.0014*%
%ADD28R,0.3331X0.0014*%
%ADD29R,0.0275X0.0014*%
%ADD30R,0.0014X0.0014*%
%ADD31R,0.3318X0.0014*%
%ADD32R,0.0262X0.0014*%
%ADD33R,0.0041X0.0014*%
%ADD34R,0.3304X0.0014*%
%ADD35R,0.0248X0.0014*%
%ADD36R,0.0055X0.0014*%
%ADD37R,0.0069X0.0014*%
%ADD38R,0.3304X0.0014*%
%ADD39R,0.0248X0.0014*%
%ADD40R,0.0069X0.0014*%
%ADD41R,0.0083X0.0014*%
%ADD42R,0.3290X0.0014*%
%ADD43R,0.0234X0.0014*%
%ADD44R,0.0083X0.0014*%
%ADD45R,0.0096X0.0014*%
%ADD46R,0.3290X0.0014*%
%ADD47R,0.0234X0.0014*%
%ADD48R,0.0096X0.0014*%
%ADD49R,0.0110X0.0014*%
%ADD50R,0.3276X0.0014*%
%ADD51R,0.0096X0.0014*%
%ADD52R,0.0110X0.0014*%
%ADD53R,0.3276X0.0014*%
%ADD54R,0.0220X0.0014*%
%ADD55R,0.0110X0.0014*%
%ADD56R,0.0110X0.0014*%
%ADD57R,0.3276X0.0014*%
%ADD58R,0.0220X0.0014*%
%ADD59R,0.0110X0.0014*%
%ADD60R,0.0124X0.0014*%
%ADD61R,0.0220X0.0014*%
%ADD62R,0.0110X0.0014*%
%ADD63R,0.0124X0.0014*%
%ADD64R,0.3262X0.0014*%
%ADD65R,0.3262X0.0014*%
%ADD66R,0.0124X0.0014*%
%ADD67R,0.3262X0.0014*%
%ADD68R,0.0220X0.0014*%
%ADD69R,0.0110X0.0014*%
%ADD70R,0.0124X0.0014*%
%ADD71R,0.3276X0.0014*%
%ADD72R,0.0262X0.0014*%
%ADD73R,0.0041X0.0014*%
%ADD74R,0.0262X0.0014*%
%ADD75R,0.0014X0.0014*%
%ADD76R,0.0055X0.0014*%
%ADD77R,0.3304X0.0014*%
%ADD78R,0.0055X0.0014*%
%ADD79R,0.0289X0.0014*%
%ADD80R,0.0055X0.0014*%
%ADD81R,0.3331X0.0014*%
%ADD82R,0.0317X0.0014*%
%ADD83R,0.3345X0.0014*%
%ADD84R,0.0344X0.0014*%
%ADD85R,0.3455X0.0014*%
%ADD86R,0.0385X0.0014*%
%ADD87R,0.3469X0.0014*%
%ADD88R,0.3923X0.0014*%
%ADD89R,0.0028X0.0014*%
%ADD90R,0.3290X0.0014*%
%ADD91R,0.0014X0.0014*%
%ADD92R,0.0014X0.0014*%
%ADD93R,0.0014X0.0014*%
%ADD94R,0.0028X0.0014*%
%ADD95R,0.3923X0.0014*%
%ADD96R,0.0096X0.0014*%
%ADD97R,0.0234X0.0014*%
%ADD98R,0.0096X0.0014*%
%ADD99R,0.0234X0.0014*%
%ADD100R,0.0096X0.0014*%
%ADD101R,0.0110X0.0014*%
%ADD102R,0.0096X0.0014*%
%ADD103R,0.0248X0.0014*%
%ADD104R,0.0069X0.0014*%
%ADD105R,0.0041X0.0014*%
%ADD106R,0.0083X0.0014*%
%ADD107R,0.3290X0.0014*%
%ADD108R,0.3304X0.0014*%
%ADD109R,0.0275X0.0014*%
%ADD110R,0.3318X0.0014*%
%ADD111R,0.0289X0.0014*%
%ADD112R,0.3331X0.0014*%
%ADD113R,0.0317X0.0014*%
%ADD114R,0.3345X0.0014*%
%ADD115R,0.3455X0.0014*%
%ADD116R,0.0385X0.0014*%
%ADD117R,0.3469X0.0014*%
%ADD118R,0.3428X0.0014*%
%ADD119R,0.3373X0.0014*%
%ADD120R,0.0275X0.0014*%
%ADD121R,0.3318X0.0014*%
%ADD122R,0.0138X0.0014*%
%ADD123R,0.0179X0.0014*%
%ADD124R,0.0248X0.0014*%
%ADD125R,0.0220X0.0014*%
%ADD126R,0.0248X0.0014*%
%ADD127R,0.0289X0.0014*%
%ADD128R,0.0303X0.0014*%
%ADD129R,0.0303X0.0014*%
%ADD130R,0.0303X0.0014*%
%ADD131R,0.3262X0.0014*%
%ADD132R,0.0206X0.0014*%
%ADD133R,0.0179X0.0014*%
%ADD134R,0.0262X0.0014*%
%ADD135R,0.0165X0.0014*%
%ADD136R,0.0165X0.0014*%
%ADD137R,0.3634X0.0014*%
%ADD138R,0.3620X0.0014*%
%ADD139R,0.3620X0.0014*%
%ADD140R,0.3620X0.0014*%
%ADD141R,0.3620X0.0014*%
%ADD142R,0.3634X0.0014*%
%ADD143R,0.3648X0.0014*%
%ADD144R,0.3510X0.0014*%
%ADD145R,0.3552X0.0014*%
%ADD146R,0.3579X0.0014*%
%ADD147R,0.3593X0.0014*%
%ADD148R,0.3607X0.0014*%
%ADD149R,0.3634X0.0014*%
%ADD150R,0.3662X0.0014*%
%ADD151R,0.0385X0.0014*%
%ADD152R,0.3428X0.0014*%
%ADD153R,0.3386X0.0014*%
%ADD154R,0.0317X0.0014*%
%ADD155R,0.3373X0.0014*%
%ADD156R,0.0303X0.0014*%
%ADD157R,0.0069X0.0014*%
%ADD158R,0.0138X0.0014*%
%ADD159R,0.0193X0.0014*%
%ADD160R,0.0220X0.0014*%
%ADD161R,0.0248X0.0014*%
%ADD162R,0.0289X0.0014*%
%ADD163R,0.0303X0.0014*%
%ADD164R,0.0165X0.0014*%
%ADD165R,0.3359X0.0014*%
%ADD166R,0.0330X0.0014*%
%ADD167R,0.0372X0.0014*%
%ADD168R,0.3414X0.0014*%
%ADD169R,0.3469X0.0014*%
%ADD170R,0.3469X0.0014*%
%ADD171R,0.0138X0.0014*%
%ADD172R,0.3483X0.0014*%
%ADD173R,0.3648X0.0014*%
%ADD174R,0.3648X0.0014*%
%ADD175R,0.3648X0.0014*%
%ADD176R,0.3414X0.0014*%
%ADD177R,0.0509X0.0014*%
%ADD178R,0.0537X0.0014*%
%ADD179R,0.0564X0.0014*%
%ADD180R,0.0578X0.0014*%
%ADD181R,0.0578X0.0014*%
%ADD182R,0.0592X0.0014*%
%ADD183R,0.0592X0.0014*%
%ADD184R,0.0592X0.0014*%
%ADD185R,0.0606X0.0014*%
%ADD186R,0.0606X0.0014*%
%ADD187R,0.0606X0.0014*%
%ADD188R,0.0578X0.0014*%
%ADD189R,0.0537X0.0014*%
%ADD190R,0.0427X0.0014*%
%ADD191R,0.2836X0.0014*%
%ADD192R,0.2464X0.0014*%
%ADD193R,0.0151X0.0014*%
%ADD194R,0.2450X0.0014*%
%ADD195R,0.0151X0.0014*%
%ADD196R,0.2423X0.0014*%
%ADD197R,0.0399X0.0014*%
%ADD198R,0.0151X0.0014*%
%ADD199R,0.0124X0.0014*%
%ADD200R,0.2409X0.0014*%
%ADD201R,0.2395X0.0014*%
%ADD202R,0.0372X0.0014*%
%ADD203R,0.0275X0.0014*%
%ADD204R,0.0165X0.0014*%
%ADD205R,0.2381X0.0014*%
%ADD206R,0.0179X0.0014*%
%ADD207R,0.2381X0.0014*%
%ADD208R,0.0330X0.0014*%
%ADD209R,0.0193X0.0014*%
%ADD210R,0.2368X0.0014*%
%ADD211R,0.0358X0.0014*%
%ADD212R,0.0151X0.0014*%
%ADD213R,0.0193X0.0014*%
%ADD214R,0.2368X0.0014*%
%ADD215R,0.0372X0.0014*%
%ADD216R,0.0289X0.0014*%
%ADD217R,0.0206X0.0014*%
%ADD218R,0.2368X0.0014*%
%ADD219R,0.0413X0.0014*%
%ADD220R,0.0206X0.0014*%
%ADD221R,0.2368X0.0014*%
%ADD222R,0.0427X0.0014*%
%ADD223R,0.0441X0.0014*%
%ADD224R,0.0206X0.0014*%
%ADD225R,0.0468X0.0014*%
%ADD226R,0.0482X0.0014*%
%ADD227R,0.0496X0.0014*%
%ADD228R,0.0193X0.0014*%
%ADD229R,0.0523X0.0014*%
%ADD230R,0.2381X0.0014*%
%ADD231R,0.0537X0.0014*%
%ADD232R,0.0138X0.0014*%
%ADD233R,0.0179X0.0014*%
%ADD234R,0.2381X0.0014*%
%ADD235R,0.0551X0.0014*%
%ADD236R,0.0165X0.0014*%
%ADD237R,0.2395X0.0014*%
%ADD238R,0.0165X0.0014*%
%ADD239R,0.0124X0.0014*%
%ADD240R,0.2409X0.0014*%
%ADD241R,0.0757X0.0014*%
%ADD242R,0.2450X0.0014*%
%ADD243R,0.0757X0.0014*%
%ADD244R,0.2478X0.0014*%
%ADD245R,0.0771X0.0014*%
%ADD246R,0.3152X0.0014*%
%ADD247R,0.3937X0.0014*%
%ADD248R,0.3937X0.0014*%
%ADD249R,0.3937X0.0014*%
%ADD250R,0.5569X0.0018*%
%ADD251R,0.5715X0.0018*%
%ADD252R,0.5788X0.0018*%
%ADD253R,0.5861X0.0018*%
%ADD254R,0.5934X0.0018*%
%ADD255R,0.5971X0.0018*%
%ADD256R,0.6007X0.0018*%
%ADD257R,0.6044X0.0018*%
%ADD258R,0.6080X0.0018*%
%ADD259R,0.6117X0.0018*%
%ADD260R,0.6153X0.0018*%
%ADD261R,0.2465X0.0018*%
%ADD262R,0.0073X0.0018*%
%ADD263R,0.0091X0.0018*%
%ADD264R,0.0055X0.0018*%
%ADD265R,0.0091X0.0018*%
%ADD266R,0.0037X0.0018*%
%ADD267R,0.0110X0.0018*%
%ADD268R,0.0201X0.0018*%
%ADD269R,0.0110X0.0018*%
%ADD270R,0.0931X0.0018*%
%ADD271R,0.2483X0.0018*%
%ADD272R,0.0055X0.0018*%
%ADD273R,0.0055X0.0018*%
%ADD274R,0.0073X0.0018*%
%ADD275R,0.0164X0.0018*%
%ADD276R,0.0091X0.0018*%
%ADD277R,0.0164X0.0018*%
%ADD278R,0.0018X0.0018*%
%ADD279R,0.0183X0.0018*%
%ADD280R,0.0931X0.0018*%
%ADD281R,0.2465X0.0018*%
%ADD282R,0.0055X0.0018*%
%ADD283R,0.0055X0.0018*%
%ADD284R,0.0037X0.0018*%
%ADD285R,0.0018X0.0018*%
%ADD286R,0.0073X0.0018*%
%ADD287R,0.0146X0.0018*%
%ADD288R,0.0091X0.0018*%
%ADD289R,0.0164X0.0018*%
%ADD290R,0.0146X0.0018*%
%ADD291R,0.0913X0.0018*%
%ADD292R,0.2483X0.0018*%
%ADD293R,0.0055X0.0018*%
%ADD294R,0.0055X0.0018*%
%ADD295R,0.0037X0.0018*%
%ADD296R,0.0073X0.0018*%
%ADD297R,0.0091X0.0018*%
%ADD298R,0.0146X0.0018*%
%ADD299R,0.0146X0.0018*%
%ADD300R,0.0201X0.0018*%
%ADD301R,0.0913X0.0018*%
%ADD302R,0.2483X0.0018*%
%ADD303R,0.0036X0.0018*%
%ADD304R,0.0274X0.0018*%
%ADD305R,0.0292X0.0018*%
%ADD306R,0.0201X0.0018*%
%ADD307R,0.0128X0.0018*%
%ADD308R,0.2483X0.0018*%
%ADD309R,0.0037X0.0018*%
%ADD310R,0.0036X0.0018*%
%ADD311R,0.0146X0.0018*%
%ADD312R,0.0146X0.0018*%
%ADD313R,0.0201X0.0018*%
%ADD314R,0.0128X0.0018*%
%ADD315R,0.0913X0.0018*%
%ADD316R,0.2501X0.0018*%
%ADD317R,0.0036X0.0018*%
%ADD318R,0.0055X0.0018*%
%ADD319R,0.0146X0.0018*%
%ADD320R,0.0146X0.0018*%
%ADD321R,0.0128X0.0018*%
%ADD322R,0.2501X0.0018*%
%ADD323R,0.2501X0.0018*%
%ADD324R,0.0931X0.0018*%
%ADD325R,0.2520X0.0018*%
%ADD326R,0.0018X0.0018*%
%ADD327R,0.0018X0.0018*%
%ADD328R,0.0164X0.0018*%
%ADD329R,0.0128X0.0018*%
%ADD330R,0.0949X0.0018*%
%ADD331R,0.2520X0.0018*%
%ADD332R,0.0183X0.0018*%
%ADD333R,0.0183X0.0018*%
%ADD334R,0.0949X0.0018*%
%ADD335R,0.0110X0.0018*%
%ADD336R,0.0219X0.0018*%
%ADD337R,0.0201X0.0018*%
%ADD338R,0.2520X0.0018*%
%ADD339R,0.0420X0.0018*%
%ADD340R,0.0840X0.0018*%
%ADD341R,0.0511X0.0018*%
%ADD342R,0.0949X0.0018*%
%ADD343R,0.2520X0.0018*%
%ADD344R,0.0420X0.0018*%
%ADD345R,0.0402X0.0018*%
%ADD346R,0.0511X0.0018*%
%ADD347R,0.0949X0.0018*%
%ADD348R,0.2538X0.0018*%
%ADD349R,0.0438X0.0018*%
%ADD350R,0.0402X0.0018*%
%ADD351R,0.0530X0.0018*%
%ADD352R,0.2538X0.0018*%
%ADD353R,0.0456X0.0018*%
%ADD354R,0.0402X0.0018*%
%ADD355R,0.0420X0.0018*%
%ADD356R,0.0548X0.0018*%
%ADD357R,0.6299X0.0018*%
%ADD358R,0.6299X0.0018*%
%ADD359R,0.6299X0.0018*%
%ADD360R,0.6299X0.0018*%
%ADD361R,0.0840X0.0018*%
%ADD362R,0.0128X0.0018*%
%ADD363R,0.0091X0.0018*%
%ADD364R,0.0110X0.0018*%
%ADD365R,0.0018X0.0018*%
%ADD366R,0.0110X0.0018*%
%ADD367R,0.0876X0.0018*%
%ADD368R,0.0822X0.0018*%
%ADD369R,0.0128X0.0018*%
%ADD370R,0.0018X0.0018*%
%ADD371R,0.0876X0.0018*%
%ADD372R,0.0822X0.0018*%
%ADD373R,0.0822X0.0018*%
%ADD374R,0.0110X0.0018*%
%ADD375R,0.0091X0.0018*%
%ADD376R,0.0164X0.0018*%
%ADD377R,0.0876X0.0018*%
%ADD378R,0.0803X0.0018*%
%ADD379R,0.0036X0.0018*%
%ADD380R,0.0183X0.0018*%
%ADD381R,0.0110X0.0018*%
%ADD382R,0.0110X0.0018*%
%ADD383R,0.0128X0.0018*%
%ADD384R,0.0876X0.0018*%
%ADD385R,0.0803X0.0018*%
%ADD386R,0.0018X0.0018*%
%ADD387R,0.0128X0.0018*%
%ADD388R,0.0803X0.0018*%
%ADD389R,0.0785X0.0018*%
%ADD390R,0.0785X0.0018*%
%ADD391R,0.0785X0.0018*%
%ADD392R,0.0895X0.0018*%
%ADD393R,0.1935X0.0018*%
%ADD394R,0.0219X0.0018*%
%ADD395R,0.0310X0.0018*%
%ADD396R,0.0548X0.0018*%
%ADD397R,0.0237X0.0018*%
%ADD398R,0.0365X0.0018*%
%ADD399R,0.0931X0.0018*%
%ADD400R,0.2100X0.0018*%
%ADD401R,0.0475X0.0018*%
%ADD402R,0.0566X0.0018*%
%ADD403R,0.1808X0.0018*%
%ADD404R,0.2100X0.0018*%
%ADD405R,0.0548X0.0018*%
%ADD406R,0.0493X0.0018*%
%ADD407R,0.1826X0.0018*%
%ADD408R,0.2100X0.0018*%
%ADD409R,0.0548X0.0018*%
%ADD410R,0.0493X0.0018*%
%ADD411R,0.0493X0.0018*%
%ADD412R,0.1844X0.0018*%
%ADD413R,0.1114X0.0018*%
%ADD414R,0.0511X0.0018*%
%ADD415R,0.1899X0.0018*%
%ADD416R,0.2027X0.0018*%
%ADD417R,0.0347X0.0018*%
%ADD418R,0.1972X0.0018*%
%ADD419R,0.0292X0.0018*%
%ADD420R,0.1954X0.0018*%
%ADD421R,0.0274X0.0018*%
%ADD422R,0.1917X0.0018*%
%ADD423R,0.0256X0.0018*%
%ADD424R,0.1917X0.0018*%
%ADD425R,0.0237X0.0018*%
%ADD426R,0.0219X0.0018*%
%ADD427R,0.1881X0.0018*%
%ADD428R,0.1881X0.0018*%
%ADD429R,0.1862X0.0018*%
%ADD430R,0.1862X0.0018*%
%ADD431R,0.0274X0.0018*%
%ADD432R,0.0183X0.0018*%
%ADD433R,0.0822X0.0018*%
%ADD434R,0.0274X0.0018*%
%ADD435R,0.0803X0.0018*%
%ADD436R,0.0183X0.0018*%
%ADD437R,0.0803X0.0018*%
%ADD438R,0.0803X0.0018*%
%ADD439R,0.0274X0.0018*%
%ADD440R,0.0785X0.0018*%
%ADD441R,0.0183X0.0018*%
%ADD442R,0.0256X0.0018*%
%ADD443R,0.0767X0.0018*%
%ADD444R,0.0767X0.0018*%
%ADD445R,0.0749X0.0018*%
%ADD446R,0.0749X0.0018*%
%ADD447R,0.0730X0.0018*%
%ADD448R,0.0730X0.0018*%
%ADD449R,0.0164X0.0018*%
%ADD450R,0.0749X0.0018*%
%ADD451R,0.1296X0.0018*%
%ADD452R,0.1296X0.0018*%
%ADD453R,0.1315X0.0018*%
%ADD454R,0.1333X0.0018*%
%ADD455R,0.1369X0.0018*%
%ADD456R,0.1862X0.0018*%
%ADD457R,0.1862X0.0018*%
%ADD458R,0.1899X0.0018*%
%ADD459R,0.1917X0.0018*%
%ADD460R,0.1917X0.0018*%
%ADD461R,0.0256X0.0018*%
%ADD462R,0.1954X0.0018*%
%ADD463R,0.0274X0.0018*%
%ADD464R,0.1972X0.0018*%
%ADD465R,0.0292X0.0018*%
%ADD466R,0.2027X0.0018*%
%ADD467R,0.0365X0.0018*%
%ADD468R,0.2008X0.0018*%
%ADD469R,0.0365X0.0018*%
%ADD470R,0.0310X0.0018*%
%ADD471R,0.0274X0.0018*%
%ADD472R,0.1881X0.0018*%
%ADD473R,0.1881X0.0018*%
%ADD474R,0.0183X0.0018*%
%ADD475R,0.0219X0.0018*%
%ADD476R,0.0073X0.0018*%
%ADD477R,0.0018X0.0018*%
%ADD478R,0.0237X0.0018*%
%ADD479R,0.0566X0.0018*%
%ADD480R,0.0365X0.0018*%
%ADD481R,0.0566X0.0018*%
%ADD482R,0.0365X0.0018*%
%ADD483R,0.0566X0.0018*%
%ADD484R,0.0365X0.0018*%
%ADD485R,0.0566X0.0018*%
%ADD486R,0.0365X0.0018*%
%ADD487R,0.0292X0.0018*%
%ADD488R,0.0584X0.0018*%
%ADD489R,0.0383X0.0018*%
%ADD490R,0.1844X0.0018*%
%ADD491R,0.1844X0.0018*%
%ADD492R,0.1826X0.0018*%
%ADD493R,0.1844X0.0018*%
%ADD494R,0.0201X0.0018*%
%ADD495R,0.1844X0.0018*%
%ADD496R,0.1862X0.0018*%
%ADD497R,0.1862X0.0018*%
%ADD498R,0.5971X0.0018*%
%ADD499R,0.5934X0.0018*%
%ADD500R,0.5788X0.0018*%
%ADD501R,0.5715X0.0018*%
%ADD502R,0.1473X0.0010*%
%ADD503R,0.1533X0.0010*%
%ADD504R,0.1573X0.0010*%
%ADD505R,0.1612X0.0010*%
%ADD506R,0.1632X0.0010*%
%ADD507R,0.1652X0.0010*%
%ADD508R,0.1672X0.0010*%
%ADD509R,0.1692X0.0010*%
%ADD510R,0.1712X0.0010*%
%ADD511R,0.0159X0.0010*%
%ADD512R,0.1493X0.0010*%
%ADD513R,0.0159X0.0010*%
%ADD514R,0.1493X0.0010*%
%ADD515R,0.0169X0.0010*%
%ADD516R,0.1503X0.0010*%
%ADD517R,0.0169X0.0010*%
%ADD518R,0.1503X0.0010*%
%ADD519R,0.0179X0.0010*%
%ADD520R,0.1513X0.0010*%
%ADD521R,0.0179X0.0010*%
%ADD522R,0.1274X0.0010*%
%ADD523R,0.0090X0.0010*%
%ADD524R,0.1264X0.0010*%
%ADD525R,0.0070X0.0010*%
%ADD526R,0.0179X0.0010*%
%ADD527R,0.1264X0.0010*%
%ADD528R,0.0070X0.0010*%
%ADD529R,0.1254X0.0010*%
%ADD530R,0.1264X0.0010*%
%ADD531R,0.0070X0.0010*%
%ADD532R,0.0060X0.0010*%
%ADD533R,0.1155X0.0010*%
%ADD534R,0.0080X0.0010*%
%ADD535R,0.0060X0.0010*%
%ADD536R,0.1184X0.0010*%
%ADD537R,0.0119X0.0010*%
%ADD538R,0.1393X0.0010*%
%ADD539R,0.1393X0.0010*%
%ADD540R,0.0060X0.0010*%
%ADD541R,0.1393X0.0010*%
%ADD542R,0.1513X0.0010*%
%ADD543R,0.0179X0.0010*%
%ADD544R,0.1513X0.0010*%
%ADD545R,0.1772X0.0010*%
%ADD546R,0.1772X0.0010*%
%ADD547R,0.1772X0.0010*%
%ADD548R,0.0378X0.0010*%
%ADD549R,0.0090X0.0010*%
%ADD550R,0.0100X0.0010*%
%ADD551R,0.0428X0.0010*%
%ADD552R,0.0358X0.0010*%
%ADD553R,0.0060X0.0010*%
%ADD554R,0.0080X0.0010*%
%ADD555R,0.0398X0.0010*%
%ADD556R,0.0358X0.0010*%
%ADD557R,0.0060X0.0010*%
%ADD558R,0.0080X0.0010*%
%ADD559R,0.0378X0.0010*%
%ADD560R,0.0070X0.0010*%
%ADD561R,0.0368X0.0010*%
%ADD562R,0.0070X0.0010*%
%ADD563R,0.0358X0.0010*%
%ADD564R,0.0348X0.0010*%
%ADD565R,0.0080X0.0010*%
%ADD566R,0.0090X0.0010*%
%ADD567R,0.0338X0.0010*%
%ADD568R,0.0279X0.0010*%
%ADD569R,0.0309X0.0010*%
%ADD570R,0.0129X0.0010*%
%ADD571R,0.0338X0.0010*%
%ADD572R,0.0279X0.0010*%
%ADD573R,0.0309X0.0010*%
%ADD574R,0.0139X0.0010*%
%ADD575R,0.0328X0.0010*%
%ADD576R,0.0149X0.0010*%
%ADD577R,0.0328X0.0010*%
%ADD578R,0.0319X0.0010*%
%ADD579R,0.0358X0.0010*%
%ADD580R,0.0279X0.0010*%
%ADD581R,0.0309X0.0010*%
%ADD582R,0.0169X0.0010*%
%ADD583R,0.0319X0.0010*%
%ADD584R,0.0169X0.0010*%
%ADD585R,0.0189X0.0010*%
%ADD586R,0.0299X0.0010*%
%ADD587R,0.0100X0.0010*%
%ADD588R,0.0189X0.0010*%
%ADD589R,0.0299X0.0010*%
%ADD590R,0.0090X0.0010*%
%ADD591R,0.0358X0.0010*%
%ADD592R,0.0279X0.0010*%
%ADD593R,0.0189X0.0010*%
%ADD594R,0.0299X0.0010*%
%ADD595R,0.0169X0.0010*%
%ADD596R,0.0149X0.0010*%
%ADD597R,0.0139X0.0010*%
%ADD598R,0.0309X0.0010*%
%ADD599R,0.0119X0.0010*%
%ADD600R,0.0338X0.0010*%
%ADD601R,0.0299X0.0010*%
%ADD602R,0.0358X0.0010*%
%ADD603R,0.0368X0.0010*%
%ADD604R,0.0348X0.0010*%
%ADD605R,0.0388X0.0010*%
%ADD606R,0.0109X0.0010*%
%ADD607R,0.0418X0.0010*%
%ADD608R,0.1334X0.0010*%
%ADD609R,0.1732X0.0010*%
%ADD610R,0.1692X0.0010*%
%ADD611R,0.1672X0.0010*%
%ADD612R,0.1573X0.0010*%
%ADD613R,0.1533X0.0010*%
D10*
X008260Y000500D02*
X008510Y000250D01*
X009010Y000250D01*
X009260Y000500D01*
X009510Y000250D01*
X010010Y000250D01*
X010260Y000500D01*
X010510Y000250D01*
X011010Y000250D01*
X011260Y000500D01*
X011510Y000250D01*
X012010Y000250D01*
X012260Y000500D01*
X012510Y000250D01*
X013010Y000250D01*
X013260Y000500D01*
X013510Y000250D01*
X014010Y000250D01*
X014260Y000500D01*
X014510Y000250D01*
X015010Y000250D01*
X015260Y000500D01*
X015510Y000250D01*
X016010Y000250D01*
X016260Y000500D01*
X016510Y000250D01*
X017010Y000250D01*
X017260Y000500D01*
X017510Y000250D01*
X018010Y000250D01*
X018260Y000500D01*
X018510Y000250D01*
X019010Y000250D01*
X019260Y000500D01*
X019510Y000250D01*
X020010Y000250D01*
X020260Y000500D01*
X020260Y001000D01*
X020010Y001250D01*
X019510Y001250D01*
X019260Y001000D01*
X019010Y001250D01*
X018510Y001250D01*
X018260Y001000D01*
X018260Y000500D01*
X018260Y001000D01*
X018010Y001250D01*
X017510Y001250D01*
X017260Y001000D01*
X017010Y001250D01*
X016510Y001250D01*
X016260Y001000D01*
X016260Y000500D01*
X016260Y001000D01*
X016010Y001250D01*
X015510Y001250D01*
X015260Y001000D01*
X015010Y001250D01*
X014510Y001250D01*
X014260Y001000D01*
X014260Y000500D01*
X014260Y001000D01*
X014010Y001250D01*
X013510Y001250D01*
X013260Y001000D01*
X013010Y001250D01*
X012510Y001250D01*
X012260Y001000D01*
X012260Y000500D01*
X012260Y001000D01*
X012010Y001250D01*
X011510Y001250D01*
X011260Y001000D01*
X011010Y001250D01*
X010510Y001250D01*
X010260Y001000D01*
X010260Y000500D01*
X010260Y001000D01*
X010010Y001250D01*
X009510Y001250D01*
X009260Y001000D01*
X009010Y001250D01*
X008510Y001250D01*
X008260Y001000D01*
X008260Y000500D01*
X021500Y003143D02*
X021553Y003090D01*
X021660Y003090D01*
X021713Y003143D01*
X021713Y003250D01*
X021606Y003250D01*
X021500Y003357D02*
X021500Y003143D01*
X021500Y003357D02*
X021553Y003410D01*
X021660Y003410D01*
X021713Y003357D01*
X021868Y003410D02*
X021868Y003090D01*
X022081Y003090D02*
X022081Y003410D01*
X022236Y003410D02*
X022396Y003410D01*
X022450Y003357D01*
X022450Y003143D01*
X022396Y003090D01*
X022236Y003090D01*
X022236Y003410D01*
X022081Y003090D02*
X021868Y003410D01*
X021921Y008190D02*
X022081Y008190D01*
X021921Y008190D02*
X021868Y008243D01*
X021868Y008350D01*
X021921Y008404D01*
X022081Y008404D01*
X022236Y008350D02*
X022236Y008243D01*
X022290Y008190D01*
X022450Y008190D01*
X022450Y008404D02*
X022290Y008404D01*
X022236Y008350D01*
X021713Y008297D02*
X021713Y008510D01*
X021500Y008510D02*
X021500Y008297D01*
X021606Y008190D01*
X021713Y008297D01*
D11*
X002260Y008142D02*
X002260Y002709D01*
X002262Y002609D01*
X002268Y002508D01*
X002278Y002408D01*
X002292Y002309D01*
X002309Y002210D01*
X002331Y002112D01*
X002356Y002014D01*
X002385Y001918D01*
X002418Y001823D01*
X002455Y001730D01*
X002495Y001638D01*
X002539Y001547D01*
X002586Y001459D01*
X002637Y001372D01*
X002691Y001287D01*
X002749Y001205D01*
X002809Y001125D01*
X002873Y001047D01*
X002940Y000972D01*
X003010Y000900D01*
X003082Y000830D01*
X003157Y000763D01*
X003235Y000699D01*
X003315Y000639D01*
X003397Y000581D01*
X003482Y000527D01*
X003569Y000476D01*
X003657Y000429D01*
X003748Y000385D01*
X003840Y000345D01*
X003933Y000308D01*
X004028Y000275D01*
X004124Y000246D01*
X004222Y000221D01*
X004320Y000199D01*
X004419Y000182D01*
X004518Y000168D01*
X004618Y000158D01*
X004719Y000152D01*
X004819Y000150D01*
X023283Y000150D01*
X023383Y000152D01*
X023484Y000158D01*
X023584Y000168D01*
X023683Y000182D01*
X023782Y000199D01*
X023880Y000221D01*
X023978Y000246D01*
X024074Y000275D01*
X024169Y000308D01*
X024262Y000345D01*
X024354Y000385D01*
X024445Y000429D01*
X024533Y000476D01*
X024620Y000527D01*
X024705Y000581D01*
X024787Y000639D01*
X024867Y000699D01*
X024945Y000763D01*
X025020Y000830D01*
X025092Y000900D01*
X025162Y000972D01*
X025229Y001047D01*
X025293Y001125D01*
X025353Y001205D01*
X025411Y001287D01*
X025465Y001372D01*
X025516Y001459D01*
X025563Y001547D01*
X025607Y001638D01*
X025647Y001730D01*
X025684Y001823D01*
X025717Y001918D01*
X025746Y002014D01*
X025771Y002112D01*
X025793Y002210D01*
X025810Y002309D01*
X025824Y002408D01*
X025834Y002508D01*
X025840Y002609D01*
X025842Y002709D01*
X025842Y008142D01*
X025840Y008242D01*
X025834Y008343D01*
X025824Y008443D01*
X025810Y008542D01*
X025793Y008641D01*
X025771Y008739D01*
X025746Y008837D01*
X025717Y008933D01*
X025684Y009028D01*
X025647Y009121D01*
X025607Y009213D01*
X025563Y009304D01*
X025516Y009392D01*
X025465Y009479D01*
X025411Y009564D01*
X025353Y009646D01*
X025293Y009726D01*
X025229Y009804D01*
X025162Y009879D01*
X025092Y009951D01*
X025020Y010021D01*
X024945Y010088D01*
X024867Y010152D01*
X024787Y010212D01*
X024705Y010270D01*
X024620Y010324D01*
X024533Y010375D01*
X024445Y010422D01*
X024354Y010466D01*
X024262Y010506D01*
X024169Y010543D01*
X024074Y010576D01*
X023978Y010605D01*
X023880Y010630D01*
X023782Y010652D01*
X023683Y010669D01*
X023584Y010683D01*
X023484Y010693D01*
X023383Y010699D01*
X023283Y010701D01*
X004819Y010701D01*
X004719Y010699D01*
X004618Y010693D01*
X004518Y010683D01*
X004419Y010669D01*
X004320Y010652D01*
X004222Y010630D01*
X004124Y010605D01*
X004028Y010576D01*
X003933Y010543D01*
X003840Y010506D01*
X003748Y010466D01*
X003657Y010422D01*
X003569Y010375D01*
X003482Y010324D01*
X003397Y010270D01*
X003315Y010212D01*
X003235Y010152D01*
X003157Y010088D01*
X003082Y010021D01*
X003010Y009951D01*
X002940Y009879D01*
X002873Y009804D01*
X002809Y009726D01*
X002749Y009646D01*
X002691Y009564D01*
X002637Y009479D01*
X002586Y009392D01*
X002539Y009304D01*
X002495Y009213D01*
X002455Y009121D01*
X002418Y009028D01*
X002385Y008933D01*
X002356Y008837D01*
X002331Y008739D01*
X002309Y008641D01*
X002292Y008542D01*
X002278Y008443D01*
X002268Y008343D01*
X002262Y008242D01*
X002260Y008142D01*
D12*
X007885Y006925D02*
X007885Y006575D01*
X007885Y006750D02*
X008001Y006750D01*
X007885Y006925D02*
X008118Y006925D01*
X008311Y006809D02*
X008428Y006809D01*
X008486Y006750D01*
X008486Y006575D01*
X008311Y006575D01*
X008253Y006633D01*
X008311Y006692D01*
X008486Y006692D01*
X008621Y006575D02*
X008738Y006575D01*
X008680Y006575D02*
X008680Y006925D01*
X008621Y006925D01*
X008867Y006750D02*
X008867Y006633D01*
X008925Y006575D01*
X009100Y006575D01*
X009235Y006633D02*
X009293Y006575D01*
X009410Y006575D01*
X009469Y006633D01*
X009469Y006750D01*
X009410Y006809D01*
X009293Y006809D01*
X009235Y006750D01*
X009235Y006633D01*
X009100Y006809D02*
X008925Y006809D01*
X008867Y006750D01*
X009603Y006809D02*
X009603Y006575D01*
X009837Y006575D02*
X009837Y006750D01*
X009778Y006809D01*
X009603Y006809D01*
X010340Y006925D02*
X010340Y006575D01*
X010573Y006575D01*
X010708Y006575D02*
X010942Y006575D01*
X011077Y006575D02*
X011252Y006575D01*
X011310Y006633D01*
X011310Y006867D01*
X011252Y006925D01*
X011077Y006925D01*
X011077Y006575D01*
X010825Y006750D02*
X010708Y006750D01*
X010708Y006925D02*
X010708Y006575D01*
X010708Y006925D02*
X010942Y006925D01*
X011445Y006750D02*
X011503Y006809D01*
X011678Y006809D01*
X011620Y006692D02*
X011503Y006692D01*
X011445Y006750D01*
X011445Y006575D02*
X011620Y006575D01*
X011678Y006633D01*
X011620Y006692D01*
X008118Y005909D02*
X008118Y005675D01*
X008118Y005850D02*
X007885Y005850D01*
X007885Y005909D02*
X007885Y005675D01*
X007885Y005909D02*
X008001Y006025D01*
X008118Y005909D01*
X015835Y006100D02*
X016015Y006100D01*
X016129Y006100D02*
X016309Y006100D01*
X016219Y006100D02*
X016219Y006370D01*
X016129Y006280D01*
X015835Y006370D02*
X015835Y006100D01*
X016485Y006855D02*
X016485Y004625D01*
X018235Y004625D02*
X018235Y006855D01*
X017260Y007050D02*
X017260Y007850D01*
X019260Y007850D02*
X019260Y007050D01*
X019860Y004350D02*
X018460Y004350D01*
X018460Y003550D01*
X019860Y003550D01*
X019860Y004350D01*
D13*
X016360Y004450D02*
X016360Y003850D01*
D14*
X015425Y004074D02*
X015251Y004074D01*
X015338Y004074D02*
X015338Y004334D01*
X015251Y004247D01*
X015130Y004291D02*
X015087Y004334D01*
X014956Y004334D01*
X014956Y004074D01*
X015087Y004074D01*
X015130Y004117D01*
X015130Y004291D01*
X015030Y003220D02*
X014944Y003220D01*
X014900Y003177D01*
X014900Y003003D01*
X014944Y002960D01*
X015030Y002960D01*
X015074Y003003D01*
X015195Y003003D02*
X015238Y002960D01*
X015325Y002960D01*
X015368Y003003D01*
X015368Y003047D01*
X015325Y003090D01*
X015282Y003090D01*
X015325Y003090D02*
X015368Y003133D01*
X015368Y003177D01*
X015325Y003220D01*
X015238Y003220D01*
X015195Y003177D01*
X015074Y003177D02*
X015030Y003220D01*
X018552Y005470D02*
X018552Y006031D01*
X019767Y006031D02*
X019767Y005470D01*
X019900Y005603D02*
X019944Y005560D01*
X020030Y005560D01*
X020074Y005603D01*
X020074Y005777D01*
X020030Y005820D01*
X019944Y005820D01*
X019900Y005777D01*
X019900Y005603D01*
X019987Y005647D02*
X020074Y005560D01*
X020195Y005560D02*
X020368Y005560D01*
X020282Y005560D02*
X020282Y005820D01*
X020195Y005733D01*
X019371Y004740D02*
X019371Y004480D01*
X019284Y004480D02*
X019458Y004480D01*
X019284Y004653D02*
X019371Y004740D01*
X019163Y004697D02*
X019163Y004610D01*
X019120Y004567D01*
X018990Y004567D01*
X019076Y004567D02*
X019163Y004480D01*
X018990Y004480D02*
X018990Y004740D01*
X019120Y004740D01*
X019163Y004697D01*
X018468Y007960D02*
X018295Y007960D01*
X018468Y008133D01*
X018468Y008177D01*
X018425Y008220D01*
X018338Y008220D01*
X018295Y008177D01*
X018174Y008177D02*
X018130Y008220D01*
X018044Y008220D01*
X018000Y008177D01*
X018000Y008003D01*
X018044Y007960D01*
X018130Y007960D01*
X018174Y008003D01*
D15*
X016960Y003550D02*
X015560Y003550D01*
X015560Y002750D01*
X016960Y002750D01*
X016960Y003550D01*
D16*
X012487Y006650D03*
D17*
X014428Y006664D03*
X014428Y007132D03*
X014428Y007187D03*
X014428Y007269D03*
X014428Y007325D03*
X014428Y007352D03*
X014428Y007806D03*
X014428Y008274D03*
X014428Y008605D03*
X014428Y008880D03*
X014428Y009321D03*
X014428Y009376D03*
X014428Y009692D03*
X014428Y010105D03*
X014428Y010160D03*
D18*
X014428Y010147D03*
X014428Y010119D03*
X014428Y010091D03*
X014428Y009706D03*
X014428Y009389D03*
X014428Y009362D03*
X014428Y009334D03*
X014428Y008866D03*
X014428Y008591D03*
X014428Y008261D03*
X014428Y007848D03*
X014428Y007820D03*
X014428Y007366D03*
X014428Y007311D03*
X014428Y007283D03*
X014428Y007173D03*
X014428Y007146D03*
X014428Y007118D03*
X014428Y006678D03*
D19*
X012659Y006691D03*
X012659Y007380D03*
D20*
X014676Y007380D03*
X014676Y006691D03*
D21*
X012638Y006705D03*
X012638Y007393D03*
X012638Y007765D03*
X012638Y007875D03*
X013038Y010284D03*
D22*
X014696Y007875D03*
X014696Y007393D03*
X014696Y006705D03*
D23*
X012625Y006719D03*
X012625Y007407D03*
D24*
X014703Y007407D03*
X014703Y006719D03*
X014703Y009747D03*
D25*
X012618Y010284D03*
X012618Y007903D03*
X012618Y007421D03*
X012618Y006733D03*
D26*
X014717Y006733D03*
X014717Y007421D03*
X014717Y007903D03*
X014717Y008233D03*
X014717Y010064D03*
D27*
X012611Y010270D03*
X012611Y009265D03*
X012611Y007435D03*
X012611Y006746D03*
D28*
X014724Y006746D03*
X014724Y007435D03*
D29*
X012907Y008013D03*
X012907Y008123D03*
X012604Y007448D03*
X012604Y007035D03*
X012604Y006760D03*
X012604Y008701D03*
X012604Y009252D03*
X012604Y010257D03*
X013072Y010339D03*
X013389Y010339D03*
X013389Y010367D03*
X013389Y010394D03*
X013389Y010422D03*
X013389Y010477D03*
X013389Y010284D03*
X013389Y010257D03*
D30*
X012776Y008453D03*
X012694Y008453D03*
X012859Y007710D03*
X012941Y007448D03*
X012941Y006760D03*
D31*
X014731Y006760D03*
X014731Y007035D03*
X014731Y007448D03*
X014731Y009789D03*
D32*
X012597Y009238D03*
X012597Y008192D03*
X012597Y007944D03*
X012900Y007999D03*
X012597Y007462D03*
X012597Y006774D03*
D33*
X012845Y006774D03*
X012955Y006774D03*
X012955Y007462D03*
X012845Y007462D03*
X013712Y010518D03*
D34*
X014738Y010023D03*
X014738Y008192D03*
X014738Y007944D03*
X014738Y007462D03*
X014738Y006774D03*
D35*
X012590Y006788D03*
X012590Y007476D03*
D36*
X012838Y007476D03*
X012962Y007063D03*
X012838Y006788D03*
X012907Y007930D03*
D37*
X012969Y007476D03*
X012969Y006788D03*
D38*
X014738Y006788D03*
X014738Y007476D03*
D39*
X012590Y007490D03*
X012590Y006994D03*
X012590Y006801D03*
X012590Y008742D03*
X012590Y010243D03*
D40*
X012831Y007490D03*
X012831Y006994D03*
X012831Y006801D03*
D41*
X012976Y006801D03*
X012976Y006994D03*
X012976Y007490D03*
X012824Y007669D03*
X012508Y008412D03*
D42*
X014745Y008632D03*
X014745Y008687D03*
X014745Y009018D03*
X014745Y009458D03*
X014745Y009830D03*
X014745Y007490D03*
X014745Y006994D03*
X014745Y006801D03*
D43*
X012583Y006815D03*
X012583Y006843D03*
X012583Y006953D03*
X012583Y006980D03*
X012583Y007503D03*
X012583Y007531D03*
X012583Y007985D03*
X012583Y008013D03*
X012583Y008150D03*
X012583Y008288D03*
X012583Y008316D03*
X012583Y008371D03*
X012583Y008508D03*
X012583Y008536D03*
X012583Y008646D03*
X012583Y008674D03*
X012583Y008784D03*
X012583Y008839D03*
X012583Y009417D03*
X012583Y010229D03*
X012570Y010477D03*
X012570Y010504D03*
X013093Y010367D03*
D44*
X013485Y010229D03*
X013485Y010202D03*
X012508Y008426D03*
X012508Y008398D03*
X012976Y007682D03*
X012824Y007503D03*
X012976Y007008D03*
X012824Y006980D03*
X012824Y006815D03*
D45*
X012983Y006815D03*
X012983Y006980D03*
X012983Y007503D03*
D46*
X014745Y007503D03*
X014745Y007682D03*
X014745Y007985D03*
X014745Y008178D03*
X014745Y009004D03*
X014745Y009197D03*
X014745Y009816D03*
X014745Y010009D03*
X014745Y007256D03*
X014745Y007008D03*
X014745Y006815D03*
D47*
X012900Y008164D03*
X012583Y008164D03*
X012583Y008302D03*
X012583Y008522D03*
X012583Y008797D03*
X012583Y007517D03*
X012583Y006967D03*
X012583Y006829D03*
X012570Y010491D03*
D48*
X013162Y010491D03*
X013162Y010215D03*
X012817Y007517D03*
X012817Y006967D03*
X012817Y006829D03*
D49*
X012989Y006829D03*
X012989Y006967D03*
D50*
X014752Y006967D03*
X014752Y006829D03*
X014752Y007242D03*
X014752Y007517D03*
X014752Y008027D03*
X014752Y008109D03*
X014752Y008440D03*
X014752Y008660D03*
X014752Y009073D03*
X014752Y009128D03*
X014752Y009857D03*
X014752Y009940D03*
D51*
X013162Y010202D03*
X013162Y010477D03*
X013162Y010504D03*
X012817Y007531D03*
X012817Y006953D03*
X012817Y006843D03*
D52*
X012989Y006843D03*
X012989Y006953D03*
X012989Y007531D03*
X012521Y008453D03*
X013155Y010229D03*
D53*
X014752Y009981D03*
X014752Y009954D03*
X014752Y009926D03*
X014752Y009871D03*
X014752Y009844D03*
X014752Y009417D03*
X014752Y009142D03*
X014752Y009059D03*
X014752Y008674D03*
X014752Y008646D03*
X014752Y008426D03*
X014752Y008398D03*
X014752Y008150D03*
X014752Y008123D03*
X014752Y008095D03*
X014752Y008040D03*
X014752Y008013D03*
X014752Y007559D03*
X014752Y007531D03*
X014752Y007228D03*
X014752Y006980D03*
X014752Y006953D03*
X014752Y006870D03*
X014752Y006843D03*
D54*
X012577Y006856D03*
X012577Y006912D03*
X012577Y006939D03*
X012577Y007545D03*
X012577Y007600D03*
X012577Y007627D03*
X012577Y008054D03*
X012577Y008082D03*
X012577Y008825D03*
X012577Y009100D03*
X012577Y009431D03*
X012577Y009458D03*
X012577Y009513D03*
X012577Y009568D03*
X012577Y009596D03*
X012577Y009610D03*
X012577Y009637D03*
X012577Y009747D03*
X012577Y009775D03*
X012577Y010050D03*
X012577Y010188D03*
X013100Y010381D03*
D55*
X012811Y007627D03*
X012811Y007600D03*
X012811Y007545D03*
X012811Y006939D03*
X012811Y006912D03*
X012811Y006856D03*
D56*
X012989Y006856D03*
X012989Y006939D03*
X012989Y007545D03*
X012989Y007641D03*
X013155Y010463D03*
D57*
X014752Y009968D03*
X014752Y009912D03*
X014752Y009885D03*
X014752Y009431D03*
X014752Y009183D03*
X014752Y009155D03*
X014752Y009045D03*
X014752Y008412D03*
X014752Y008137D03*
X014752Y007999D03*
X014752Y007669D03*
X014752Y007641D03*
X014752Y007627D03*
X014752Y007545D03*
X014752Y007214D03*
X014752Y006939D03*
X014752Y006856D03*
D58*
X012577Y006870D03*
X012577Y006898D03*
X012577Y007559D03*
X012577Y007586D03*
X012577Y008040D03*
X012577Y008095D03*
X012577Y008123D03*
X012577Y008811D03*
X012577Y009059D03*
X012577Y009087D03*
X012577Y009114D03*
X012577Y009142D03*
X012577Y009472D03*
X012577Y009500D03*
X012577Y009527D03*
X012577Y009555D03*
X012577Y009651D03*
X012577Y009678D03*
X012577Y010064D03*
X012577Y010202D03*
D59*
X012811Y007586D03*
X012811Y007559D03*
X012811Y006898D03*
X012811Y006870D03*
D60*
X012996Y006870D03*
X012996Y006898D03*
X012996Y007559D03*
X012996Y007586D03*
X012804Y009472D03*
X012804Y009500D03*
X012804Y009527D03*
X012804Y009555D03*
D61*
X012577Y009541D03*
X012577Y009486D03*
X012577Y009665D03*
X012577Y010078D03*
X012577Y010215D03*
X012577Y009128D03*
X012577Y009073D03*
X012577Y008660D03*
X012577Y008109D03*
X012577Y008027D03*
X012577Y007572D03*
X012577Y006884D03*
D62*
X012811Y006884D03*
X012811Y007572D03*
D63*
X012996Y007572D03*
X012996Y006884D03*
X012804Y009486D03*
X012804Y009541D03*
D64*
X014758Y007572D03*
X014758Y006884D03*
D65*
X014758Y006898D03*
X014758Y007586D03*
X014758Y009087D03*
X014758Y009114D03*
D66*
X012804Y009513D03*
X012804Y009568D03*
X012996Y007627D03*
X012996Y007600D03*
X012996Y006912D03*
D67*
X014758Y006912D03*
X014758Y007600D03*
X014758Y008054D03*
X014758Y008082D03*
X014758Y009100D03*
D68*
X012577Y009444D03*
X012577Y009582D03*
X012577Y009623D03*
X012577Y009761D03*
X012577Y008068D03*
X012577Y007614D03*
X012577Y006925D03*
D69*
X012811Y006925D03*
X012811Y007614D03*
D70*
X012996Y007614D03*
X012996Y006925D03*
X012804Y009582D03*
D71*
X014752Y009444D03*
X014752Y009169D03*
X014752Y009031D03*
X014752Y009899D03*
X014752Y007655D03*
X014752Y007614D03*
X014752Y006925D03*
D72*
X012597Y007008D03*
X012597Y007710D03*
X012597Y008976D03*
X012597Y009224D03*
D73*
X013712Y010504D03*
X013712Y010532D03*
X012845Y007008D03*
D74*
X012597Y007022D03*
X012597Y007696D03*
X012597Y008715D03*
X013079Y010353D03*
D75*
X012859Y007022D03*
D76*
X012962Y007022D03*
X012962Y007751D03*
D77*
X014738Y007022D03*
X014738Y008990D03*
X014738Y009802D03*
D78*
X012962Y007737D03*
X012962Y007710D03*
X012962Y007035D03*
D79*
X012611Y007049D03*
X012611Y007916D03*
D80*
X012962Y007724D03*
X012962Y007049D03*
D81*
X014724Y007049D03*
X014724Y007916D03*
X014724Y008219D03*
X014724Y009775D03*
X014724Y010050D03*
D82*
X013051Y010312D03*
X012625Y007063D03*
D83*
X014717Y007063D03*
X014717Y009761D03*
D84*
X012625Y010298D03*
X012638Y008908D03*
X012638Y007077D03*
D85*
X014662Y007077D03*
D86*
X012659Y007091D03*
X013017Y010257D03*
X012645Y010339D03*
D87*
X014655Y009555D03*
X014655Y009527D03*
X014655Y009500D03*
X014655Y009472D03*
X014655Y007091D03*
D88*
X014428Y007104D03*
X014428Y007159D03*
X014428Y007297D03*
X014428Y007834D03*
X014428Y008247D03*
X014428Y008577D03*
X014428Y009348D03*
X014428Y009403D03*
X014428Y009720D03*
X014428Y010133D03*
D89*
X012480Y007201D03*
D90*
X014745Y007201D03*
D91*
X012473Y007214D03*
D92*
X012473Y007228D03*
D93*
X012473Y007242D03*
D94*
X012480Y007256D03*
D95*
X014428Y007338D03*
X014428Y007793D03*
X014428Y008619D03*
X014428Y010174D03*
D96*
X012515Y008384D03*
X012983Y007517D03*
D97*
X012583Y007641D03*
X012583Y007669D03*
X012583Y007999D03*
X012583Y008137D03*
X012583Y008329D03*
X012583Y008357D03*
X012583Y008467D03*
X012583Y008495D03*
X012583Y008550D03*
X012583Y008632D03*
X012583Y008687D03*
X012583Y008770D03*
X012583Y009018D03*
X012583Y009045D03*
X012583Y009155D03*
X012583Y009183D03*
D98*
X012900Y009238D03*
X012817Y007641D03*
D99*
X012583Y007655D03*
X012583Y008343D03*
X012583Y008481D03*
X012583Y008756D03*
X012583Y009031D03*
X012583Y009169D03*
X012583Y010036D03*
D100*
X012817Y007655D03*
D101*
X012989Y007655D03*
D102*
X012983Y007669D03*
D103*
X012590Y007682D03*
X012590Y007958D03*
X012590Y008178D03*
X012590Y008563D03*
X012590Y008729D03*
X012590Y009004D03*
X012590Y009197D03*
X012590Y009734D03*
D104*
X012831Y007682D03*
D105*
X012845Y007696D03*
D106*
X012976Y007696D03*
X012508Y008440D03*
X013485Y010215D03*
D107*
X014745Y009995D03*
X014745Y009210D03*
X014745Y008384D03*
X014745Y008164D03*
X014745Y007972D03*
X014745Y007696D03*
D108*
X014738Y007710D03*
X014738Y007958D03*
X014738Y008453D03*
X014738Y008976D03*
X014738Y009224D03*
D109*
X013389Y010243D03*
X013389Y010298D03*
X013389Y010325D03*
X013389Y010381D03*
X013389Y010436D03*
X013389Y010463D03*
X012907Y009155D03*
X012907Y009045D03*
X012604Y008963D03*
X012604Y008219D03*
X012907Y008137D03*
X012604Y007724D03*
D110*
X014731Y007724D03*
X014731Y008963D03*
X014731Y009238D03*
D111*
X012611Y008949D03*
X012611Y008233D03*
X012611Y007737D03*
D112*
X014724Y007737D03*
X014724Y008949D03*
X014724Y009252D03*
D113*
X012625Y007889D03*
X012625Y007751D03*
D114*
X014717Y007751D03*
X014717Y008935D03*
X014717Y009265D03*
D115*
X014662Y007765D03*
D116*
X012659Y007779D03*
X012659Y007861D03*
D117*
X014655Y007779D03*
X014655Y009513D03*
X014655Y009568D03*
D118*
X014676Y007861D03*
D119*
X014703Y007889D03*
X014703Y010078D03*
D120*
X013389Y010312D03*
X013389Y010449D03*
X012907Y009169D03*
X012604Y007930D03*
D121*
X014731Y007930D03*
X014731Y008206D03*
X014731Y010036D03*
D122*
X012907Y007944D03*
D123*
X012900Y007958D03*
X012900Y008233D03*
D124*
X012590Y007972D03*
X012590Y008853D03*
X012590Y008990D03*
X012590Y009210D03*
D125*
X012907Y007972D03*
D126*
X012907Y007985D03*
X012907Y008150D03*
D127*
X012900Y008109D03*
X012900Y008027D03*
D128*
X012907Y008040D03*
X012907Y008095D03*
X012907Y009087D03*
X012907Y009114D03*
D129*
X012907Y009100D03*
X012907Y008082D03*
X012907Y008054D03*
D130*
X012907Y008068D03*
D131*
X014758Y008068D03*
D132*
X012900Y008178D03*
X013107Y010394D03*
D133*
X012900Y008192D03*
D134*
X012597Y008206D03*
X012900Y009031D03*
D135*
X012907Y008206D03*
D136*
X012907Y008219D03*
D137*
X014573Y008288D03*
X014573Y008811D03*
X014573Y008839D03*
D138*
X014579Y008522D03*
X014579Y008302D03*
D139*
X014579Y008316D03*
X014579Y008371D03*
X014579Y008508D03*
X014579Y008536D03*
X014579Y008784D03*
D140*
X014579Y008770D03*
X014579Y008495D03*
X014579Y008467D03*
X014579Y008357D03*
X014579Y008329D03*
D141*
X014579Y008343D03*
X014579Y008481D03*
D142*
X014573Y008550D03*
X014573Y008825D03*
D143*
X014566Y008563D03*
X014566Y009651D03*
X014566Y009678D03*
D144*
X014634Y008701D03*
D145*
X014614Y008715D03*
D146*
X014600Y008729D03*
D147*
X014593Y008742D03*
D148*
X014586Y008756D03*
D149*
X014573Y008797D03*
D150*
X014559Y008853D03*
D151*
X012659Y008894D03*
D152*
X014676Y008894D03*
D153*
X014696Y008908D03*
X014696Y009293D03*
D154*
X012625Y009279D03*
X012625Y008921D03*
D155*
X014703Y008921D03*
D156*
X012618Y008935D03*
D157*
X012900Y008963D03*
D158*
X012907Y008976D03*
D159*
X012907Y008990D03*
X012907Y009210D03*
X013113Y010408D03*
X013871Y010408D03*
D160*
X012907Y009197D03*
X012907Y009004D03*
D161*
X012907Y009018D03*
X012907Y009183D03*
D162*
X012900Y009142D03*
X012900Y009059D03*
D163*
X012907Y009073D03*
X012907Y009128D03*
D164*
X012907Y009224D03*
X013650Y010202D03*
X013127Y010422D03*
D165*
X014710Y009279D03*
D166*
X012632Y009293D03*
D167*
X012652Y009307D03*
D168*
X014683Y009307D03*
D169*
X014655Y009486D03*
X014655Y009541D03*
D170*
X014655Y009582D03*
D171*
X012811Y009596D03*
D172*
X014648Y009596D03*
D173*
X014566Y009610D03*
X014566Y009637D03*
D174*
X014566Y009623D03*
D175*
X014566Y009665D03*
D176*
X014683Y009734D03*
D177*
X012721Y009789D03*
D178*
X012735Y009802D03*
D179*
X012749Y009816D03*
X012749Y010009D03*
D180*
X012755Y009830D03*
D181*
X012755Y009844D03*
X012755Y009981D03*
D182*
X012762Y009940D03*
X012762Y009857D03*
D183*
X012762Y009871D03*
X012762Y009954D03*
D184*
X012762Y009968D03*
X012762Y009885D03*
D185*
X012769Y009899D03*
D186*
X012769Y009912D03*
D187*
X012769Y009926D03*
D188*
X012755Y009995D03*
D189*
X012735Y010023D03*
D190*
X013327Y010188D03*
D191*
X014972Y010188D03*
D192*
X015158Y010202D03*
D193*
X013657Y010215D03*
X013657Y010270D03*
X013657Y010353D03*
X013657Y010408D03*
D194*
X015164Y010215D03*
D195*
X013850Y010257D03*
X013657Y010257D03*
X013657Y010284D03*
X013657Y010229D03*
X013657Y010339D03*
X013657Y010367D03*
X013657Y010394D03*
X013657Y010422D03*
X013657Y010477D03*
X013850Y010477D03*
X013327Y010504D03*
X013327Y010532D03*
D196*
X015178Y010504D03*
X015178Y010229D03*
D197*
X013010Y010243D03*
D198*
X013134Y010436D03*
X013327Y010518D03*
X013657Y010463D03*
X013657Y010436D03*
X013657Y010381D03*
X013657Y010325D03*
X013657Y010298D03*
X013657Y010243D03*
D199*
X013836Y010243D03*
D200*
X015185Y010243D03*
D201*
X015192Y010257D03*
X015192Y010477D03*
D202*
X013024Y010270D03*
D203*
X013389Y010270D03*
X013389Y010353D03*
X013389Y010408D03*
X013389Y010491D03*
D204*
X013857Y010270D03*
D205*
X015199Y010270D03*
D206*
X013864Y010284D03*
D207*
X015199Y010284D03*
D208*
X013045Y010298D03*
D209*
X013871Y010298D03*
X013871Y010325D03*
X013871Y010436D03*
D210*
X015206Y010381D03*
X015206Y010325D03*
X015206Y010298D03*
D211*
X012632Y010312D03*
D212*
X013657Y010312D03*
X013657Y010449D03*
D213*
X013871Y010312D03*
D214*
X015206Y010312D03*
D215*
X012638Y010325D03*
D216*
X013065Y010325D03*
D217*
X013877Y010339D03*
X013877Y010367D03*
X013877Y010394D03*
D218*
X015206Y010394D03*
X015206Y010367D03*
X015206Y010339D03*
X015206Y010422D03*
D219*
X012659Y010353D03*
D220*
X013877Y010353D03*
D221*
X015206Y010353D03*
X015206Y010408D03*
D222*
X012666Y010367D03*
D223*
X012673Y010381D03*
D224*
X013877Y010381D03*
D225*
X012687Y010394D03*
D226*
X012694Y010408D03*
D227*
X012700Y010422D03*
D228*
X013871Y010422D03*
D229*
X012714Y010436D03*
D230*
X015199Y010436D03*
D231*
X012721Y010449D03*
D232*
X013141Y010449D03*
D233*
X013864Y010449D03*
D234*
X015199Y010449D03*
D235*
X012728Y010463D03*
D236*
X013857Y010463D03*
D237*
X015192Y010463D03*
D238*
X013650Y010491D03*
D239*
X013836Y010491D03*
D240*
X015185Y010491D03*
D241*
X012831Y010518D03*
D242*
X015164Y010518D03*
D243*
X012831Y010532D03*
D244*
X015151Y010532D03*
D245*
X012838Y010546D03*
D246*
X014813Y010546D03*
D247*
X014421Y010559D03*
D248*
X014421Y010573D03*
X014421Y010601D03*
D249*
X014421Y010587D03*
D250*
X008900Y007281D03*
X008900Y004250D03*
D251*
X008900Y004268D03*
D252*
X008900Y004287D03*
D253*
X008900Y004305D03*
X008900Y007226D03*
D254*
X008900Y004323D03*
D255*
X008900Y004341D03*
D256*
X008900Y004360D03*
X008900Y007171D03*
D257*
X008900Y007153D03*
X008900Y004378D03*
D258*
X008900Y004396D03*
X008900Y007135D03*
D259*
X008900Y004414D03*
D260*
X008900Y004433D03*
D261*
X007056Y004451D03*
D262*
X006682Y004962D03*
X006645Y005820D03*
X006134Y005820D03*
X006408Y006569D03*
X006408Y006733D03*
X007028Y006733D03*
X007321Y006733D03*
X007814Y004962D03*
X007923Y004962D03*
X008161Y004962D03*
X008398Y004962D03*
X008398Y005072D03*
X008526Y005072D03*
X008927Y004962D03*
X009055Y005072D03*
X009420Y005072D03*
X009512Y004451D03*
X010114Y004560D03*
X010826Y004688D03*
X010845Y004962D03*
X010972Y004962D03*
X008471Y004451D03*
X008361Y004451D03*
X008416Y004688D03*
D263*
X008590Y004451D03*
X008279Y005072D03*
X008042Y005072D03*
X009064Y004962D03*
X010726Y005072D03*
X006709Y006569D03*
X006709Y006733D03*
X006307Y005820D03*
D264*
X006764Y005820D03*
X006745Y005072D03*
X007001Y004962D03*
X007074Y005072D03*
X007458Y004962D03*
X007823Y005072D03*
X007914Y005072D03*
X008937Y005072D03*
X009503Y004560D03*
X009557Y004962D03*
X009557Y005072D03*
X009813Y004962D03*
X010854Y005072D03*
X011091Y005072D03*
X011091Y004962D03*
X008736Y004451D03*
X006271Y006569D03*
X006125Y006569D03*
X006198Y006733D03*
X006563Y006733D03*
D265*
X006198Y006806D03*
X007038Y006569D03*
X006362Y005711D03*
X007585Y004962D03*
X007695Y005072D03*
X008663Y005072D03*
X008809Y005072D03*
X009192Y005072D03*
X009429Y004962D03*
X009630Y004560D03*
X009630Y004451D03*
X009977Y004560D03*
X009977Y004688D03*
X010379Y004962D03*
X010507Y005072D03*
X010616Y004962D03*
X008937Y004560D03*
X008845Y004451D03*
X008608Y004560D03*
D266*
X008818Y004560D03*
X008982Y004451D03*
X008343Y004560D03*
X007394Y005072D03*
X006937Y005072D03*
X006846Y005072D03*
X006609Y005072D03*
X006864Y006733D03*
X010005Y005199D03*
X010005Y004451D03*
D267*
X010114Y004451D03*
X009092Y004451D03*
D268*
X009338Y004451D03*
X009813Y004451D03*
X010507Y004451D03*
X010762Y004560D03*
X009740Y005072D03*
X011949Y006058D03*
X011931Y006971D03*
D269*
X009694Y005199D03*
X010242Y004451D03*
X010863Y004451D03*
D270*
X011511Y004451D03*
X011566Y004560D03*
D271*
X007047Y004469D03*
D272*
X007330Y004980D03*
X007403Y005090D03*
X007257Y005090D03*
X007165Y005053D03*
X006618Y005090D03*
X006636Y005838D03*
X007330Y006587D03*
X007330Y006715D03*
X006709Y006715D03*
X008042Y005090D03*
X008279Y005090D03*
X008279Y004980D03*
X008590Y004542D03*
X008827Y004469D03*
X009064Y004542D03*
X009064Y004579D03*
X009302Y004980D03*
X009302Y005053D03*
X009302Y005090D03*
X008352Y004469D03*
X010726Y004980D03*
X010963Y005053D03*
X010963Y005090D03*
D273*
X010854Y005090D03*
X010854Y004980D03*
X011091Y004980D03*
X011091Y005053D03*
X011091Y005090D03*
X010616Y005090D03*
X010616Y004980D03*
X010269Y004980D03*
X009996Y005181D03*
X009557Y005090D03*
X009557Y005053D03*
X009557Y004980D03*
X009429Y005090D03*
X008937Y005090D03*
X008937Y004980D03*
X008809Y004980D03*
X008407Y004980D03*
X008407Y005090D03*
X008170Y004980D03*
X007914Y005053D03*
X007823Y005053D03*
X007823Y005090D03*
X007823Y004980D03*
X007074Y005090D03*
X007001Y004980D03*
X006837Y005053D03*
X006745Y005090D03*
X006672Y004980D03*
X006490Y005729D03*
X006764Y005838D03*
X006271Y006551D03*
X006271Y006587D03*
X006125Y006587D03*
X006198Y006751D03*
X008480Y004469D03*
X009503Y004469D03*
X009503Y004542D03*
X009503Y004579D03*
X010835Y004706D03*
D274*
X010826Y004579D03*
X010352Y004579D03*
X010242Y004469D03*
X010114Y004542D03*
X010114Y004579D03*
X010370Y004980D03*
X010498Y004980D03*
X010498Y005090D03*
X010735Y005090D03*
X010972Y004980D03*
X010005Y005218D03*
X009804Y004980D03*
X009804Y004944D03*
X009548Y004944D03*
X009311Y004944D03*
X009055Y004980D03*
X009055Y005053D03*
X009055Y005090D03*
X008818Y005090D03*
X008526Y005090D03*
X008526Y005053D03*
X008526Y004980D03*
X008416Y004706D03*
X008416Y004670D03*
X008580Y004469D03*
X009073Y004469D03*
X008051Y004980D03*
X007923Y004980D03*
X007923Y005090D03*
X007704Y005090D03*
X007704Y004980D03*
X007576Y004980D03*
X007467Y004980D03*
X007448Y004944D03*
X006682Y004944D03*
X006353Y005729D03*
X006316Y005802D03*
X006609Y005930D03*
X006718Y006587D03*
X006901Y006788D03*
X007028Y006715D03*
X007028Y006587D03*
X007321Y006551D03*
X007321Y006751D03*
X006408Y006715D03*
X006408Y006587D03*
X006116Y006551D03*
D275*
X006453Y006788D03*
X007074Y006788D03*
X008644Y004579D03*
X009356Y004469D03*
X010507Y004542D03*
D276*
X010105Y004469D03*
X009977Y004542D03*
X009977Y004579D03*
X009977Y004670D03*
X009977Y004706D03*
X009630Y004579D03*
X009630Y004542D03*
X009630Y004469D03*
X009192Y004579D03*
X008937Y004579D03*
X008937Y004542D03*
X009192Y005053D03*
X009192Y005090D03*
X009429Y005053D03*
X009429Y004980D03*
X009429Y004944D03*
X008681Y005090D03*
X008663Y005053D03*
X007165Y004980D03*
X007001Y004944D03*
X006636Y005802D03*
X006490Y005838D03*
X006362Y005930D03*
X006143Y005802D03*
X006417Y006551D03*
X006563Y006587D03*
X006563Y006715D03*
X006417Y006751D03*
X006198Y006788D03*
X006198Y006824D03*
X007038Y006751D03*
X007184Y006715D03*
X007038Y006551D03*
X010835Y004944D03*
X010963Y004944D03*
X011091Y004944D03*
X010854Y004469D03*
D277*
X009813Y004469D03*
D278*
X010014Y004469D03*
X007330Y005053D03*
X007165Y005090D03*
X007001Y005053D03*
X006928Y006551D03*
X006289Y006715D03*
D279*
X007521Y006715D03*
X007521Y006751D03*
X007521Y006788D03*
X007521Y006824D03*
X007521Y006587D03*
X007521Y006551D03*
X010534Y005053D03*
X010516Y004469D03*
D280*
X011529Y004469D03*
X011566Y004579D03*
D281*
X007038Y004487D03*
D282*
X007165Y005035D03*
X007257Y005108D03*
X007330Y004999D03*
X006618Y005108D03*
X006636Y005857D03*
X006618Y005912D03*
X006709Y006605D03*
X006709Y006697D03*
X006399Y006697D03*
X006399Y006660D03*
X006399Y006642D03*
X006399Y006605D03*
X007019Y006642D03*
X007019Y006660D03*
X007330Y006660D03*
X007330Y006697D03*
X008900Y005126D03*
X008918Y005108D03*
X009302Y005108D03*
X009302Y005126D03*
X009302Y005035D03*
X009302Y004999D03*
X009064Y004597D03*
X009064Y004524D03*
X008827Y004487D03*
X008681Y004487D03*
X008590Y004597D03*
X008590Y004633D03*
X008352Y004487D03*
D283*
X008480Y004487D03*
X008809Y004597D03*
X008937Y004597D03*
X009192Y004487D03*
X009503Y004487D03*
X009503Y004524D03*
X009503Y004597D03*
X009503Y004633D03*
X009594Y004652D03*
X009630Y004597D03*
X009996Y004652D03*
X010233Y004597D03*
X010233Y004487D03*
X010361Y004487D03*
X010835Y004725D03*
X010854Y004999D03*
X011091Y004999D03*
X011091Y005035D03*
X010616Y005108D03*
X009557Y005035D03*
X009557Y004999D03*
X008937Y004999D03*
X008535Y005108D03*
X008389Y005108D03*
X008370Y005126D03*
X008407Y004999D03*
X008151Y004999D03*
X008151Y005035D03*
X007914Y005035D03*
X007914Y004999D03*
X007823Y005035D03*
X007074Y005108D03*
X007001Y004999D03*
X006745Y005108D03*
X006344Y005747D03*
X006490Y005893D03*
X006198Y006770D03*
D284*
X006718Y006660D03*
X006718Y006642D03*
X006627Y005893D03*
X006937Y005035D03*
X007394Y005035D03*
X008343Y004524D03*
X008416Y004597D03*
X008416Y004633D03*
X008580Y004524D03*
X008580Y004487D03*
X008818Y004524D03*
X009073Y005108D03*
X010005Y004633D03*
X010863Y005035D03*
D285*
X010927Y005126D03*
X011055Y005126D03*
X010087Y004652D03*
X009594Y004633D03*
X009393Y005126D03*
X009083Y005126D03*
X008498Y004597D03*
X008334Y004597D03*
X008937Y004487D03*
X007330Y005035D03*
X007257Y005035D03*
X007165Y005108D03*
X007165Y005126D03*
X007074Y005035D03*
X007001Y005035D03*
X006837Y005108D03*
X006837Y005126D03*
X006618Y005035D03*
X006764Y005784D03*
X006289Y006697D03*
D286*
X007028Y006697D03*
X007028Y006605D03*
X007321Y006605D03*
X007321Y006642D03*
X006353Y005912D03*
X006335Y005893D03*
X006134Y005893D03*
X006755Y005857D03*
X006609Y005126D03*
X006846Y005035D03*
X006937Y005108D03*
X006937Y005126D03*
X007065Y005126D03*
X007266Y005126D03*
X007394Y005126D03*
X007394Y005108D03*
X007814Y005108D03*
X007923Y005108D03*
X007814Y004999D03*
X008161Y005108D03*
X008526Y005035D03*
X008526Y004999D03*
X008818Y004999D03*
X009055Y004999D03*
X009055Y005035D03*
X009183Y005035D03*
X009183Y004999D03*
X009548Y005108D03*
X009512Y004652D03*
X009183Y004597D03*
X009073Y004633D03*
X009073Y004487D03*
X008818Y004633D03*
X008690Y004597D03*
X008708Y004524D03*
X008416Y004652D03*
X009986Y004487D03*
X010114Y004487D03*
X010114Y004524D03*
X010114Y004597D03*
X010352Y004597D03*
X010826Y004597D03*
X010845Y004487D03*
X010972Y004999D03*
X010972Y005035D03*
X010845Y005108D03*
D287*
X009347Y004597D03*
X009347Y004487D03*
X006189Y006879D03*
D288*
X006125Y006532D03*
X006271Y006532D03*
X006764Y005893D03*
X006654Y005747D03*
X006326Y005784D03*
X006745Y005126D03*
X006837Y004999D03*
X007165Y004999D03*
X007932Y005126D03*
X008663Y005035D03*
X008663Y004999D03*
X008608Y004652D03*
X008937Y004524D03*
X009429Y004999D03*
X009429Y005035D03*
X009192Y005108D03*
X009192Y005126D03*
X009977Y004725D03*
X009977Y004597D03*
X009977Y004524D03*
X010233Y004633D03*
X010123Y004999D03*
X010123Y005163D03*
X010507Y004999D03*
X010616Y005126D03*
X010835Y005126D03*
X009630Y004524D03*
X009630Y004487D03*
X007312Y006770D03*
D289*
X009813Y004487D03*
D290*
X009804Y004524D03*
X009804Y004597D03*
X009786Y004633D03*
X010242Y004652D03*
X010516Y004597D03*
X010516Y004487D03*
X010333Y005108D03*
X008818Y004652D03*
X007521Y004999D03*
X007521Y005035D03*
X007558Y005126D03*
X007193Y006605D03*
X006700Y006770D03*
D291*
X011538Y004487D03*
X011557Y004524D03*
D292*
X007028Y004506D03*
D293*
X008352Y004506D03*
X008590Y004615D03*
X009064Y004506D03*
X009302Y005017D03*
X007330Y006678D03*
X007019Y006678D03*
X007019Y006624D03*
X006709Y006624D03*
X006399Y006624D03*
X006399Y006678D03*
D294*
X007914Y005017D03*
X008480Y004506D03*
X008937Y005017D03*
X009503Y004615D03*
X009503Y004506D03*
X009557Y005017D03*
X010233Y004615D03*
X010233Y004506D03*
X010854Y005017D03*
X011091Y005017D03*
D295*
X008818Y004506D03*
X008690Y004615D03*
X008580Y004506D03*
X008416Y004615D03*
X007321Y005017D03*
X007010Y005017D03*
X006627Y005875D03*
X006718Y006678D03*
D296*
X006335Y005765D03*
X008398Y005017D03*
X008526Y005017D03*
X008818Y004615D03*
X008690Y004506D03*
X009073Y004615D03*
X009055Y005017D03*
X009183Y005017D03*
X009986Y004615D03*
X010114Y004506D03*
X010972Y005017D03*
D297*
X010817Y004615D03*
X010981Y004506D03*
X010361Y004506D03*
X009977Y004506D03*
X009630Y004506D03*
X009192Y004506D03*
X008937Y004506D03*
X008663Y005017D03*
X009429Y005017D03*
X007165Y005017D03*
X006837Y005017D03*
X006654Y005765D03*
X006764Y005875D03*
X006490Y005875D03*
X006326Y005875D03*
D298*
X009347Y004615D03*
X009347Y004506D03*
D299*
X009804Y004506D03*
X010516Y004506D03*
X008891Y005145D03*
X008361Y005145D03*
X007960Y005145D03*
X007521Y005017D03*
D300*
X007750Y005017D03*
X009740Y005017D03*
X009740Y005145D03*
X010616Y005145D03*
X010762Y004506D03*
X011949Y005601D03*
X011949Y005656D03*
X011949Y006112D03*
D301*
X011557Y004506D03*
D302*
X007028Y004524D03*
D303*
X006682Y004999D03*
X006682Y005035D03*
X008544Y005126D03*
X008727Y005126D03*
X008946Y005035D03*
X008964Y004652D03*
X008489Y004524D03*
X010224Y004524D03*
X010607Y004999D03*
X006919Y006532D03*
X006919Y006770D03*
X006280Y006660D03*
X006280Y006642D03*
X006280Y006605D03*
X006116Y006605D03*
X006116Y006642D03*
X006116Y006660D03*
D304*
X005887Y006660D03*
X005887Y006642D03*
X005887Y006605D03*
X005887Y006532D03*
X005887Y006697D03*
X005887Y006770D03*
X005887Y006843D03*
X005887Y006021D03*
X005887Y005985D03*
X005887Y005912D03*
X005887Y005893D03*
X005887Y005857D03*
X005887Y005784D03*
X005887Y005747D03*
X009283Y004524D03*
D305*
X010443Y004524D03*
D306*
X010762Y004524D03*
X010762Y004633D03*
X010762Y004652D03*
X009740Y004999D03*
X009740Y005035D03*
X009740Y005108D03*
X009740Y005126D03*
X009740Y005163D03*
X008334Y005035D03*
X007512Y006879D03*
X011931Y006934D03*
X011949Y006094D03*
X011949Y005674D03*
X011949Y005638D03*
X011949Y005619D03*
D307*
X010981Y004725D03*
X010981Y004652D03*
X010981Y004633D03*
X010981Y004597D03*
X010981Y004524D03*
X010142Y005108D03*
X009959Y005108D03*
X009959Y005126D03*
X009959Y005163D03*
X009959Y005035D03*
X009959Y004999D03*
X007056Y006532D03*
X006435Y006532D03*
D308*
X007028Y004542D03*
D309*
X006937Y005053D03*
X006937Y005090D03*
X006846Y005090D03*
X006609Y005053D03*
X007266Y005053D03*
X007394Y005053D03*
X008343Y004579D03*
X008343Y004542D03*
X008416Y004579D03*
X008818Y004579D03*
X008818Y004542D03*
X009220Y004944D03*
X010863Y005053D03*
D310*
X010224Y004579D03*
X010224Y004542D03*
X009183Y004980D03*
X008946Y005053D03*
X008489Y004579D03*
X008489Y004542D03*
X008161Y005053D03*
X008161Y005090D03*
X007065Y005053D03*
X006755Y005053D03*
X006755Y005802D03*
X006189Y006715D03*
D311*
X009347Y004579D03*
X009347Y004542D03*
D312*
X009804Y004542D03*
X009804Y004579D03*
X009950Y004944D03*
X009694Y005218D03*
X010333Y005090D03*
X010516Y004579D03*
X008690Y004944D03*
X007540Y005090D03*
X006846Y004944D03*
X006170Y005729D03*
X006170Y005930D03*
X006170Y005966D03*
X007284Y006788D03*
D313*
X008334Y005053D03*
X009740Y005053D03*
X009740Y005090D03*
X010762Y004670D03*
X010762Y004542D03*
X011949Y006039D03*
X011949Y006076D03*
X011931Y006952D03*
D314*
X010616Y004944D03*
X010981Y004706D03*
X010981Y004670D03*
X010981Y004579D03*
X010981Y004542D03*
X010142Y005053D03*
X010142Y005090D03*
X009959Y005090D03*
X009959Y005053D03*
X009959Y004980D03*
X008170Y004944D03*
X007531Y005053D03*
D315*
X011557Y004542D03*
D316*
X007019Y004560D03*
D317*
X008161Y005072D03*
X008489Y004560D03*
X010224Y004560D03*
X010607Y005072D03*
D318*
X010963Y005072D03*
X010251Y004962D03*
X009302Y004962D03*
X009302Y005072D03*
X009064Y004560D03*
X007330Y004962D03*
X007257Y005072D03*
X007165Y005072D03*
X007184Y006569D03*
X007330Y006569D03*
X007184Y006733D03*
D319*
X009347Y004560D03*
D320*
X009804Y004560D03*
X010516Y004560D03*
X006389Y005948D03*
X006170Y005948D03*
X006170Y005711D03*
D321*
X006599Y005948D03*
X006654Y005711D03*
X006837Y004962D03*
X007531Y005072D03*
X009959Y005072D03*
X009959Y004962D03*
X010142Y005072D03*
X010981Y004688D03*
X010981Y004560D03*
D322*
X007019Y004579D03*
D323*
X007019Y004597D03*
D324*
X011566Y004597D03*
D325*
X007010Y004615D03*
D326*
X007074Y005017D03*
X007257Y005017D03*
X006618Y005017D03*
X008334Y004615D03*
X008498Y004615D03*
X008937Y004615D03*
X010342Y004615D03*
X006289Y006678D03*
D327*
X006198Y006678D03*
X006106Y006678D03*
X006745Y005017D03*
X009192Y004615D03*
D328*
X009795Y004615D03*
X010507Y004615D03*
D329*
X010981Y004615D03*
X009959Y005017D03*
X009959Y005145D03*
X006508Y005765D03*
X006198Y006861D03*
D330*
X011575Y004615D03*
D331*
X007010Y004633D03*
X007010Y004652D03*
D332*
X009347Y004633D03*
X010534Y005035D03*
X007521Y006532D03*
X007521Y006605D03*
X007521Y006642D03*
X007521Y006660D03*
X007521Y006697D03*
X007521Y006770D03*
X007521Y006843D03*
D333*
X010498Y004633D03*
X011958Y005747D03*
X011958Y005784D03*
X011958Y005857D03*
X011958Y005893D03*
X011958Y005912D03*
X011958Y005985D03*
X011958Y006021D03*
D334*
X011575Y004725D03*
X011575Y004652D03*
X011575Y004633D03*
D335*
X010132Y005035D03*
X010132Y005126D03*
X009092Y004652D03*
X008416Y004725D03*
X008161Y005126D03*
X007704Y004999D03*
X006755Y005912D03*
X006499Y005747D03*
X006426Y006770D03*
X006189Y006843D03*
X007047Y006770D03*
D336*
X009329Y004652D03*
X011940Y005583D03*
X011940Y006131D03*
X011940Y006149D03*
X011940Y006496D03*
X011940Y006532D03*
X011940Y006605D03*
X011940Y006642D03*
X011940Y006660D03*
X011940Y006697D03*
X011940Y006770D03*
X011940Y006843D03*
X011940Y006879D03*
X011940Y006897D03*
D337*
X011913Y007007D03*
X011894Y007044D03*
X010488Y004652D03*
X009776Y004652D03*
D338*
X007010Y004670D03*
D339*
X008772Y004670D03*
D340*
X009457Y004670D03*
D341*
X010333Y004670D03*
D342*
X011575Y004670D03*
X011575Y004706D03*
D343*
X007010Y004688D03*
D344*
X008772Y004688D03*
D345*
X009238Y004688D03*
X009676Y004688D03*
D346*
X010333Y004688D03*
D347*
X011575Y004688D03*
D348*
X007019Y004706D03*
D349*
X008763Y004706D03*
D350*
X009238Y004706D03*
X009676Y004706D03*
D351*
X010324Y004706D03*
D352*
X007019Y004725D03*
D353*
X008772Y004725D03*
D354*
X009238Y004725D03*
D355*
X009685Y004725D03*
D356*
X010333Y004725D03*
X008161Y005163D03*
D357*
X008900Y005254D03*
X008900Y005364D03*
X008900Y005419D03*
X008900Y004907D03*
X008900Y004853D03*
X008900Y004743D03*
X008900Y006277D03*
D358*
X008900Y006295D03*
X008900Y006258D03*
X008900Y005437D03*
X008900Y005400D03*
X008900Y005382D03*
X008900Y005346D03*
X008900Y005272D03*
X008900Y005236D03*
X008900Y004926D03*
X008900Y004889D03*
X008900Y004871D03*
X008900Y004834D03*
X008900Y004761D03*
D359*
X008900Y004779D03*
X008900Y004816D03*
X008900Y005291D03*
X008900Y005327D03*
X008900Y005455D03*
X008900Y006313D03*
X008900Y006350D03*
D360*
X008900Y006331D03*
X008900Y005309D03*
X008900Y004798D03*
D361*
X006170Y004944D03*
D362*
X007165Y004944D03*
X006764Y005930D03*
X006709Y006551D03*
X010324Y005053D03*
D363*
X007804Y004944D03*
X007330Y004944D03*
X006709Y006751D03*
D364*
X007193Y006587D03*
X006663Y005729D03*
X006371Y005692D03*
X006846Y004980D03*
X007594Y004944D03*
X007941Y004944D03*
X008398Y004944D03*
X008927Y004944D03*
X010388Y004944D03*
D365*
X008553Y004944D03*
X006106Y006715D03*
D366*
X006298Y005838D03*
X008672Y004980D03*
X008818Y005053D03*
X009073Y004944D03*
X009694Y005181D03*
X010242Y004944D03*
X010735Y005053D03*
D367*
X011611Y005053D03*
X011611Y005090D03*
X011611Y004980D03*
X011611Y004944D03*
D368*
X006161Y004962D03*
D369*
X007165Y004962D03*
X008681Y004962D03*
X010324Y005072D03*
D370*
X008553Y004962D03*
X006106Y006733D03*
D371*
X011611Y005072D03*
X011611Y004962D03*
D372*
X006161Y004980D03*
D373*
X006161Y004999D03*
D374*
X006152Y005784D03*
X006316Y005857D03*
X006152Y005985D03*
X006554Y006605D03*
X006864Y006605D03*
X006864Y006642D03*
X006864Y006660D03*
X006864Y006697D03*
X007175Y006697D03*
X008051Y004999D03*
X008818Y005035D03*
X010735Y005035D03*
D375*
X010726Y004999D03*
X009539Y005126D03*
X008279Y004999D03*
X007804Y005126D03*
D376*
X006709Y006532D03*
X010342Y005126D03*
X010324Y004999D03*
D377*
X011611Y004999D03*
X011611Y005035D03*
X011611Y005108D03*
D378*
X006152Y005017D03*
D379*
X006682Y005017D03*
X006280Y006624D03*
X006116Y006624D03*
D380*
X007521Y006624D03*
X007521Y006678D03*
X007521Y006861D03*
X008087Y005017D03*
X010534Y005017D03*
D381*
X010735Y005017D03*
X008818Y005017D03*
X008288Y005017D03*
X006152Y005765D03*
X006864Y006624D03*
X006864Y006678D03*
X007175Y006678D03*
D382*
X010132Y005145D03*
X010132Y005017D03*
D383*
X010324Y005017D03*
X007786Y005145D03*
X006563Y006624D03*
X006563Y006678D03*
D384*
X011611Y005017D03*
D385*
X006152Y005035D03*
D386*
X006745Y005035D03*
X008717Y005108D03*
X006198Y006660D03*
X006198Y006697D03*
X006106Y006697D03*
D387*
X006563Y006697D03*
X006563Y006660D03*
X006563Y006642D03*
X007311Y006532D03*
X006490Y005857D03*
X006161Y005912D03*
X006161Y005747D03*
X007549Y005108D03*
X010324Y005035D03*
D388*
X006152Y005053D03*
D389*
X006143Y005072D03*
D390*
X006143Y005090D03*
D391*
X006143Y005108D03*
X006143Y005126D03*
X007220Y005784D03*
D392*
X011602Y005126D03*
D393*
X006718Y005145D03*
X006718Y006405D03*
D394*
X008161Y005145D03*
X011940Y006514D03*
X011940Y006624D03*
X011940Y006678D03*
X011940Y006861D03*
X011940Y006916D03*
D395*
X008644Y005145D03*
D396*
X009311Y005145D03*
D397*
X010361Y005145D03*
X011931Y006167D03*
X007238Y006624D03*
D398*
X010918Y005145D03*
D399*
X011584Y005145D03*
D400*
X006800Y005163D03*
D401*
X008727Y005163D03*
D402*
X009302Y005163D03*
D403*
X011146Y005163D03*
D404*
X006800Y005181D03*
X006800Y005218D03*
D405*
X008161Y005181D03*
X009311Y005181D03*
D406*
X008736Y005181D03*
D407*
X011137Y005181D03*
D408*
X006800Y005199D03*
D409*
X008161Y005199D03*
D410*
X008736Y005199D03*
D411*
X009338Y005199D03*
D412*
X011128Y005199D03*
X006691Y006971D03*
D413*
X008444Y005218D03*
D414*
X009329Y005218D03*
D415*
X011100Y005218D03*
X006700Y005565D03*
X006700Y006441D03*
X006773Y007098D03*
D416*
X006764Y005473D03*
D417*
X011876Y005473D03*
D418*
X006736Y005492D03*
D419*
X005896Y006039D03*
X011904Y005492D03*
D420*
X006727Y005510D03*
X006727Y006386D03*
X006819Y007117D03*
D421*
X011913Y005510D03*
D422*
X006709Y005528D03*
D423*
X011849Y007098D03*
X011922Y006441D03*
X011922Y005528D03*
D424*
X006709Y005546D03*
D425*
X011931Y005546D03*
X011931Y006459D03*
D426*
X011940Y006478D03*
X011940Y006551D03*
X011940Y006587D03*
X011940Y006715D03*
X011940Y006751D03*
X011940Y006788D03*
X011940Y006824D03*
X011885Y007062D03*
X011940Y005565D03*
D427*
X006691Y005583D03*
X006691Y005619D03*
X006691Y006094D03*
X006691Y006131D03*
D428*
X006691Y006112D03*
X006691Y005601D03*
D429*
X006682Y005638D03*
X006682Y005674D03*
X006682Y006496D03*
X006682Y006897D03*
D430*
X006682Y006916D03*
X006682Y006514D03*
X006682Y005656D03*
D431*
X005887Y005692D03*
X005887Y005729D03*
X005887Y005802D03*
X005887Y005838D03*
X005887Y005930D03*
X005887Y005966D03*
X005887Y006551D03*
X005887Y006587D03*
X005887Y006715D03*
X005887Y006751D03*
X005887Y006788D03*
X005887Y006824D03*
D432*
X006170Y005692D03*
X006645Y005692D03*
X011958Y005692D03*
X011958Y005729D03*
X011958Y005802D03*
X011958Y005838D03*
X011958Y005930D03*
X011958Y005966D03*
X011922Y006989D03*
D433*
X007202Y005692D03*
D434*
X005887Y005711D03*
X005887Y005820D03*
X005887Y005948D03*
X005887Y006569D03*
X005887Y006733D03*
X005887Y006806D03*
D435*
X007211Y005711D03*
D436*
X011958Y005711D03*
X011958Y005820D03*
X011958Y005948D03*
D437*
X007211Y005729D03*
D438*
X007211Y005747D03*
D439*
X005887Y005765D03*
X005887Y005875D03*
X005887Y006003D03*
X005887Y006624D03*
X005887Y006678D03*
X005887Y006861D03*
D440*
X007220Y005765D03*
D441*
X011958Y005765D03*
X011958Y005875D03*
X011958Y006003D03*
D442*
X006554Y005784D03*
D443*
X007229Y005802D03*
X007229Y005838D03*
D444*
X007229Y005820D03*
D445*
X007238Y005857D03*
D446*
X007238Y005875D03*
D447*
X007248Y005893D03*
X007248Y005912D03*
D448*
X007248Y005930D03*
D449*
X006764Y005948D03*
D450*
X007238Y005948D03*
D451*
X006965Y005966D03*
D452*
X006965Y005985D03*
D453*
X006955Y006003D03*
D454*
X006946Y006021D03*
D455*
X006928Y006039D03*
D456*
X006682Y006058D03*
D457*
X006682Y006076D03*
D458*
X006700Y006149D03*
X006700Y006423D03*
D459*
X006709Y006167D03*
D460*
X006709Y006185D03*
D461*
X011922Y006185D03*
X011922Y006423D03*
D462*
X006727Y006204D03*
D463*
X011913Y006204D03*
D464*
X006736Y006222D03*
D465*
X011904Y006222D03*
D466*
X006764Y006240D03*
D467*
X011867Y006240D03*
D468*
X006755Y006368D03*
D469*
X011867Y006368D03*
D470*
X011894Y006386D03*
X011803Y007117D03*
D471*
X011913Y006405D03*
D472*
X006691Y006459D03*
D473*
X006691Y006478D03*
D474*
X007521Y006569D03*
X007521Y006733D03*
X007521Y006806D03*
D475*
X011867Y007080D03*
X011940Y006806D03*
X011940Y006733D03*
X011940Y006569D03*
D476*
X006864Y006587D03*
X006864Y006715D03*
D477*
X006289Y006733D03*
D478*
X006709Y006788D03*
D479*
X006654Y006806D03*
D480*
X007175Y006806D03*
D481*
X006654Y006824D03*
D482*
X007175Y006824D03*
D483*
X006654Y006843D03*
D484*
X007175Y006843D03*
D485*
X006654Y006861D03*
D486*
X007175Y006861D03*
D487*
X005896Y006879D03*
D488*
X006645Y006879D03*
D489*
X007184Y006879D03*
D490*
X006709Y007007D03*
X006691Y006934D03*
D491*
X006691Y006952D03*
D492*
X006700Y006989D03*
D493*
X006709Y007025D03*
D494*
X011913Y007025D03*
D495*
X006727Y007044D03*
D496*
X006736Y007062D03*
D497*
X006755Y007080D03*
D498*
X008900Y007190D03*
D499*
X008900Y007208D03*
D500*
X008900Y007244D03*
D501*
X008900Y007263D03*
D502*
X009240Y002475D03*
X009240Y001350D03*
X011240Y001350D03*
X011240Y002475D03*
X013240Y002475D03*
X013240Y001350D03*
X015240Y001350D03*
X015240Y002475D03*
X017240Y002475D03*
X017240Y001350D03*
X019240Y001350D03*
X019240Y002475D03*
D503*
X019240Y001360D03*
X017240Y001360D03*
X015240Y001360D03*
X013240Y001360D03*
X011240Y001360D03*
X009240Y001360D03*
D504*
X009240Y001370D03*
X011240Y001370D03*
X013240Y001370D03*
X015240Y001370D03*
X017240Y001370D03*
X019240Y001370D03*
D505*
X019240Y001380D03*
X019240Y002445D03*
X017240Y002445D03*
X017240Y001380D03*
X015240Y001380D03*
X015240Y002445D03*
X013240Y002445D03*
X013240Y001380D03*
X011240Y001380D03*
X011240Y002445D03*
X009240Y002445D03*
X009240Y001380D03*
D506*
X009240Y001390D03*
X009240Y002435D03*
X011240Y002435D03*
X011240Y001390D03*
X013240Y001390D03*
X013240Y002435D03*
X015240Y002435D03*
X015240Y001390D03*
X017240Y001390D03*
X017240Y002435D03*
X019240Y002435D03*
X019240Y001390D03*
D507*
X019240Y001400D03*
X019240Y002425D03*
X017240Y002425D03*
X017240Y001400D03*
X015240Y001400D03*
X015240Y002425D03*
X013240Y002425D03*
X013240Y001400D03*
X011240Y001400D03*
X011240Y002425D03*
X009240Y002425D03*
X009240Y001400D03*
D508*
X009240Y001410D03*
X011240Y001410D03*
X013240Y001410D03*
X015240Y001410D03*
X017240Y001410D03*
X019240Y001410D03*
D509*
X019240Y001420D03*
X017240Y001420D03*
X015240Y001420D03*
X013240Y001420D03*
X011240Y001420D03*
X009240Y001420D03*
D510*
X009240Y001430D03*
X009240Y002395D03*
X011240Y002395D03*
X011240Y001430D03*
X013240Y001430D03*
X013240Y002395D03*
X015240Y002395D03*
X015240Y001430D03*
X017240Y001430D03*
X017240Y002395D03*
X019240Y002395D03*
X019240Y001430D03*
D511*
X018454Y001440D03*
X016454Y001440D03*
X014454Y001440D03*
X012454Y001440D03*
X010454Y001440D03*
X008454Y001440D03*
D512*
X009360Y001440D03*
X011360Y001440D03*
X013360Y001440D03*
X015360Y001440D03*
X017360Y001440D03*
X019360Y001440D03*
D513*
X019629Y002057D03*
X019629Y002266D03*
X018454Y001450D03*
X017629Y002057D03*
X017629Y002266D03*
X016454Y001450D03*
X015629Y002057D03*
X015629Y002266D03*
X014454Y001450D03*
X013629Y002057D03*
X013629Y002266D03*
X012454Y001450D03*
X011629Y002057D03*
X011629Y002266D03*
X010454Y001450D03*
X009629Y002057D03*
X009629Y002266D03*
X008454Y001450D03*
D514*
X009360Y001450D03*
X011360Y001450D03*
X013360Y001450D03*
X015360Y001450D03*
X017360Y001450D03*
X019360Y001450D03*
D515*
X018449Y001459D03*
X018449Y001479D03*
X016449Y001479D03*
X016449Y001459D03*
X014449Y001459D03*
X014449Y001479D03*
X012449Y001479D03*
X012449Y001459D03*
X010449Y001459D03*
X010449Y001479D03*
X008449Y001479D03*
X008449Y001459D03*
D516*
X009365Y001459D03*
X009365Y001479D03*
X011365Y001479D03*
X011365Y001459D03*
X013365Y001459D03*
X013365Y001479D03*
X015365Y001479D03*
X015365Y001459D03*
X017365Y001459D03*
X017365Y001479D03*
X019365Y001479D03*
X019365Y001459D03*
D517*
X018449Y001469D03*
X016449Y001469D03*
X014449Y001469D03*
X012449Y001469D03*
X010449Y001469D03*
X008449Y001469D03*
D518*
X009365Y001469D03*
X011365Y001469D03*
X013365Y001469D03*
X015365Y001469D03*
X017365Y001469D03*
X019365Y001469D03*
D519*
X019638Y002096D03*
X019638Y002116D03*
X019638Y002226D03*
X018444Y001728D03*
X018444Y001698D03*
X018444Y001678D03*
X018444Y001649D03*
X018444Y001549D03*
X018444Y001489D03*
X017638Y002096D03*
X017638Y002116D03*
X017638Y002226D03*
X016444Y001728D03*
X016444Y001698D03*
X016444Y001678D03*
X016444Y001649D03*
X016444Y001549D03*
X016444Y001489D03*
X015638Y002096D03*
X015638Y002116D03*
X015638Y002226D03*
X014444Y001728D03*
X014444Y001698D03*
X014444Y001678D03*
X014444Y001649D03*
X014444Y001549D03*
X014444Y001489D03*
X013638Y002096D03*
X013638Y002116D03*
X013638Y002226D03*
X012444Y001728D03*
X012444Y001698D03*
X012444Y001678D03*
X012444Y001649D03*
X012444Y001549D03*
X012444Y001489D03*
X011638Y002096D03*
X011638Y002116D03*
X011638Y002226D03*
X010444Y001728D03*
X010444Y001698D03*
X010444Y001678D03*
X010444Y001649D03*
X010444Y001549D03*
X010444Y001489D03*
X009638Y002096D03*
X009638Y002116D03*
X009638Y002226D03*
X008444Y001728D03*
X008444Y001698D03*
X008444Y001678D03*
X008444Y001649D03*
X008444Y001549D03*
X008444Y001489D03*
D520*
X009370Y001489D03*
X009370Y001649D03*
X009370Y001678D03*
X009370Y001698D03*
X009370Y001728D03*
X011370Y001728D03*
X011370Y001698D03*
X011370Y001678D03*
X011370Y001649D03*
X011370Y001489D03*
X013370Y001489D03*
X013370Y001649D03*
X013370Y001678D03*
X013370Y001698D03*
X013370Y001728D03*
X015370Y001728D03*
X015370Y001698D03*
X015370Y001678D03*
X015370Y001649D03*
X015370Y001489D03*
X017370Y001489D03*
X017370Y001649D03*
X017370Y001678D03*
X017370Y001698D03*
X017370Y001728D03*
X019370Y001728D03*
X019370Y001698D03*
X019370Y001678D03*
X019370Y001649D03*
X019370Y001489D03*
D521*
X019638Y002087D03*
X019638Y002106D03*
X019638Y002206D03*
X019638Y002216D03*
X019638Y002236D03*
X018444Y001748D03*
X018444Y001718D03*
X018444Y001708D03*
X018444Y001688D03*
X018444Y001669D03*
X018444Y001659D03*
X018444Y001639D03*
X018444Y001539D03*
X018444Y001529D03*
X018444Y001509D03*
X018444Y001499D03*
X017638Y002087D03*
X017638Y002106D03*
X017638Y002206D03*
X017638Y002216D03*
X017638Y002236D03*
X016444Y001748D03*
X016444Y001718D03*
X016444Y001708D03*
X016444Y001688D03*
X016444Y001669D03*
X016444Y001659D03*
X016444Y001639D03*
X016444Y001539D03*
X016444Y001529D03*
X016444Y001509D03*
X016444Y001499D03*
X015638Y002087D03*
X015638Y002106D03*
X015638Y002206D03*
X015638Y002216D03*
X015638Y002236D03*
X014444Y001748D03*
X014444Y001718D03*
X014444Y001708D03*
X014444Y001688D03*
X014444Y001669D03*
X014444Y001659D03*
X014444Y001639D03*
X014444Y001539D03*
X014444Y001529D03*
X014444Y001509D03*
X014444Y001499D03*
X013638Y002087D03*
X013638Y002106D03*
X013638Y002206D03*
X013638Y002216D03*
X013638Y002236D03*
X012444Y001748D03*
X012444Y001718D03*
X012444Y001708D03*
X012444Y001688D03*
X012444Y001669D03*
X012444Y001659D03*
X012444Y001639D03*
X012444Y001539D03*
X012444Y001529D03*
X012444Y001509D03*
X012444Y001499D03*
X011638Y002087D03*
X011638Y002106D03*
X011638Y002206D03*
X011638Y002216D03*
X011638Y002236D03*
X010444Y001748D03*
X010444Y001718D03*
X010444Y001708D03*
X010444Y001688D03*
X010444Y001669D03*
X010444Y001659D03*
X010444Y001639D03*
X010444Y001539D03*
X010444Y001529D03*
X010444Y001509D03*
X010444Y001499D03*
X009638Y002087D03*
X009638Y002106D03*
X009638Y002206D03*
X009638Y002216D03*
X009638Y002236D03*
X008444Y001748D03*
X008444Y001718D03*
X008444Y001708D03*
X008444Y001688D03*
X008444Y001669D03*
X008444Y001659D03*
X008444Y001639D03*
X008444Y001539D03*
X008444Y001529D03*
X008444Y001509D03*
X008444Y001499D03*
D522*
X009250Y001499D03*
X011250Y001499D03*
X013250Y001499D03*
X015250Y001499D03*
X017250Y001499D03*
X019250Y001499D03*
D523*
X020081Y001499D03*
X018081Y001499D03*
X016081Y001499D03*
X014081Y001499D03*
X012081Y001499D03*
X010081Y001499D03*
D524*
X009245Y001509D03*
X009245Y001539D03*
X011245Y001539D03*
X011245Y001509D03*
X013245Y001509D03*
X013245Y001539D03*
X015245Y001539D03*
X015245Y001509D03*
X017245Y001509D03*
X017245Y001539D03*
X019245Y001539D03*
X019245Y001509D03*
D525*
X019036Y002007D03*
X018091Y001539D03*
X018091Y001529D03*
X018091Y001509D03*
X017036Y002007D03*
X016091Y001539D03*
X016091Y001529D03*
X016091Y001509D03*
X015036Y002007D03*
X014091Y001539D03*
X014091Y001529D03*
X014091Y001509D03*
X013036Y002007D03*
X012091Y001539D03*
X012091Y001529D03*
X012091Y001509D03*
X011036Y002007D03*
X010091Y001539D03*
X010091Y001529D03*
X010091Y001509D03*
X009036Y002007D03*
X020091Y001539D03*
X020091Y001529D03*
X020091Y001509D03*
D526*
X018444Y001519D03*
X016444Y001519D03*
X014444Y001519D03*
X012444Y001519D03*
X010444Y001519D03*
X008444Y001519D03*
D527*
X009245Y001519D03*
X011245Y001519D03*
X013245Y001519D03*
X015245Y001519D03*
X017245Y001519D03*
X019245Y001519D03*
D528*
X020091Y001519D03*
X018091Y001519D03*
X016091Y001519D03*
X014091Y001519D03*
X012091Y001519D03*
X010091Y001519D03*
D529*
X009240Y001529D03*
X011240Y001529D03*
X013240Y001529D03*
X015240Y001529D03*
X017240Y001529D03*
X019240Y001529D03*
D530*
X019245Y001549D03*
X017245Y001549D03*
X015245Y001549D03*
X013245Y001549D03*
X011245Y001549D03*
X009245Y001549D03*
D531*
X010091Y001549D03*
X012091Y001549D03*
X014091Y001549D03*
X016091Y001549D03*
X018091Y001549D03*
X020091Y001549D03*
D532*
X018384Y001559D03*
X018384Y001579D03*
X018384Y001589D03*
X018384Y001609D03*
X016384Y001609D03*
X016384Y001589D03*
X016384Y001579D03*
X016384Y001559D03*
X014384Y001559D03*
X014384Y001579D03*
X014384Y001589D03*
X014384Y001609D03*
X012384Y001609D03*
X012384Y001589D03*
X012384Y001579D03*
X012384Y001559D03*
X010384Y001559D03*
X010384Y001579D03*
X010384Y001589D03*
X010384Y001609D03*
X008384Y001609D03*
X008384Y001589D03*
X008384Y001579D03*
X008384Y001559D03*
D533*
X009310Y001559D03*
X011310Y001559D03*
X013310Y001559D03*
X015310Y001559D03*
X017310Y001559D03*
X019310Y001559D03*
D534*
X020086Y001559D03*
X018086Y001559D03*
X016086Y001559D03*
X014086Y001559D03*
X012086Y001559D03*
X010086Y001559D03*
D535*
X010384Y001569D03*
X010384Y001599D03*
X010384Y001619D03*
X012384Y001619D03*
X012384Y001599D03*
X012384Y001569D03*
X014384Y001569D03*
X014384Y001599D03*
X014384Y001619D03*
X016384Y001619D03*
X016384Y001599D03*
X016384Y001569D03*
X018384Y001569D03*
X018384Y001599D03*
X018384Y001619D03*
X008384Y001619D03*
X008384Y001599D03*
X008384Y001569D03*
D536*
X009325Y001569D03*
X011325Y001569D03*
X013325Y001569D03*
X015325Y001569D03*
X017325Y001569D03*
X019325Y001569D03*
D537*
X020066Y001569D03*
X018066Y001569D03*
X016066Y001569D03*
X014066Y001569D03*
X012066Y001569D03*
X010066Y001569D03*
D538*
X009429Y001579D03*
X009429Y001589D03*
X009429Y001609D03*
X011429Y001609D03*
X011429Y001589D03*
X011429Y001579D03*
X013429Y001579D03*
X013429Y001589D03*
X013429Y001609D03*
X015429Y001609D03*
X015429Y001589D03*
X015429Y001579D03*
X017429Y001579D03*
X017429Y001589D03*
X017429Y001609D03*
X019429Y001609D03*
X019429Y001589D03*
X019429Y001579D03*
D539*
X019429Y001599D03*
X019429Y001619D03*
X017429Y001619D03*
X017429Y001599D03*
X015429Y001599D03*
X015429Y001619D03*
X013429Y001619D03*
X013429Y001599D03*
X011429Y001599D03*
X011429Y001619D03*
X009429Y001619D03*
X009429Y001599D03*
D540*
X010384Y001629D03*
X012384Y001629D03*
X014384Y001629D03*
X016384Y001629D03*
X018384Y001629D03*
X008384Y001629D03*
D541*
X009429Y001629D03*
X011429Y001629D03*
X013429Y001629D03*
X015429Y001629D03*
X017429Y001629D03*
X019429Y001629D03*
D542*
X019370Y001639D03*
X019370Y001659D03*
X019370Y001669D03*
X019370Y001688D03*
X019370Y001708D03*
X019370Y001718D03*
X019370Y001748D03*
X017370Y001748D03*
X017370Y001718D03*
X017370Y001708D03*
X017370Y001688D03*
X017370Y001669D03*
X017370Y001659D03*
X017370Y001639D03*
X015370Y001639D03*
X015370Y001659D03*
X015370Y001669D03*
X015370Y001688D03*
X015370Y001708D03*
X015370Y001718D03*
X015370Y001748D03*
X013370Y001748D03*
X013370Y001718D03*
X013370Y001708D03*
X013370Y001688D03*
X013370Y001669D03*
X013370Y001659D03*
X013370Y001639D03*
X011370Y001639D03*
X011370Y001659D03*
X011370Y001669D03*
X011370Y001688D03*
X011370Y001708D03*
X011370Y001718D03*
X011370Y001748D03*
X009370Y001748D03*
X009370Y001718D03*
X009370Y001708D03*
X009370Y001688D03*
X009370Y001669D03*
X009370Y001659D03*
X009370Y001639D03*
D543*
X008444Y001738D03*
X010444Y001738D03*
X012444Y001738D03*
X014444Y001738D03*
X016444Y001738D03*
X018444Y001738D03*
D544*
X019370Y001738D03*
X017370Y001738D03*
X015370Y001738D03*
X013370Y001738D03*
X011370Y001738D03*
X009370Y001738D03*
D545*
X009240Y001758D03*
X009240Y001778D03*
X009240Y001808D03*
X009240Y001828D03*
X009240Y001858D03*
X009240Y001887D03*
X009240Y001907D03*
X009240Y001937D03*
X011240Y001937D03*
X011240Y001907D03*
X011240Y001887D03*
X011240Y001858D03*
X011240Y001828D03*
X011240Y001808D03*
X011240Y001778D03*
X011240Y001758D03*
X013240Y001758D03*
X013240Y001778D03*
X013240Y001808D03*
X013240Y001828D03*
X013240Y001858D03*
X013240Y001887D03*
X013240Y001907D03*
X013240Y001937D03*
X015240Y001937D03*
X015240Y001907D03*
X015240Y001887D03*
X015240Y001858D03*
X015240Y001828D03*
X015240Y001808D03*
X015240Y001778D03*
X015240Y001758D03*
X017240Y001758D03*
X017240Y001778D03*
X017240Y001808D03*
X017240Y001828D03*
X017240Y001858D03*
X017240Y001887D03*
X017240Y001907D03*
X017240Y001937D03*
X019240Y001937D03*
X019240Y001907D03*
X019240Y001887D03*
X019240Y001858D03*
X019240Y001828D03*
X019240Y001808D03*
X019240Y001778D03*
X019240Y001758D03*
D546*
X019240Y001768D03*
X019240Y001788D03*
X019240Y001798D03*
X019240Y001818D03*
X019240Y001838D03*
X019240Y001868D03*
X019240Y001878D03*
X019240Y001897D03*
X019240Y001917D03*
X019240Y001927D03*
X019240Y001947D03*
X017240Y001947D03*
X017240Y001927D03*
X017240Y001917D03*
X017240Y001897D03*
X017240Y001878D03*
X017240Y001868D03*
X017240Y001838D03*
X017240Y001818D03*
X017240Y001798D03*
X017240Y001788D03*
X017240Y001768D03*
X015240Y001768D03*
X015240Y001788D03*
X015240Y001798D03*
X015240Y001818D03*
X015240Y001838D03*
X015240Y001868D03*
X015240Y001878D03*
X015240Y001897D03*
X015240Y001917D03*
X015240Y001927D03*
X015240Y001947D03*
X013240Y001947D03*
X013240Y001927D03*
X013240Y001917D03*
X013240Y001897D03*
X013240Y001878D03*
X013240Y001868D03*
X013240Y001838D03*
X013240Y001818D03*
X013240Y001798D03*
X013240Y001788D03*
X013240Y001768D03*
X011240Y001768D03*
X011240Y001788D03*
X011240Y001798D03*
X011240Y001818D03*
X011240Y001838D03*
X011240Y001868D03*
X011240Y001878D03*
X011240Y001897D03*
X011240Y001917D03*
X011240Y001927D03*
X011240Y001947D03*
X009240Y001947D03*
X009240Y001927D03*
X009240Y001917D03*
X009240Y001897D03*
X009240Y001878D03*
X009240Y001868D03*
X009240Y001838D03*
X009240Y001818D03*
X009240Y001798D03*
X009240Y001788D03*
X009240Y001768D03*
D547*
X009240Y001848D03*
X011240Y001848D03*
X013240Y001848D03*
X015240Y001848D03*
X017240Y001848D03*
X019240Y001848D03*
D548*
X018544Y001957D03*
X016544Y001957D03*
X014544Y001957D03*
X012544Y001957D03*
X010544Y001957D03*
X008544Y001957D03*
D549*
X009046Y001957D03*
X009415Y002176D03*
X011046Y001957D03*
X011415Y002176D03*
X013046Y001957D03*
X013415Y002176D03*
X015046Y001957D03*
X015415Y002176D03*
X017046Y001957D03*
X017415Y002176D03*
X019046Y001957D03*
X019415Y002176D03*
D550*
X019429Y001957D03*
X017429Y001957D03*
X015429Y001957D03*
X013429Y001957D03*
X011429Y001957D03*
X009429Y001957D03*
D551*
X009912Y001957D03*
X011912Y001957D03*
X013912Y001957D03*
X015912Y001957D03*
X017912Y001957D03*
X019912Y001957D03*
D552*
X018534Y001967D03*
X018534Y001987D03*
X018534Y002017D03*
X018534Y002037D03*
X018534Y002096D03*
X018534Y002116D03*
X018534Y002146D03*
X018534Y002166D03*
X018534Y002196D03*
X018534Y002226D03*
X018534Y002246D03*
X018534Y002276D03*
X018534Y002305D03*
X018534Y002325D03*
X018554Y002375D03*
X016554Y002375D03*
X016534Y002325D03*
X016534Y002305D03*
X016534Y002276D03*
X016534Y002246D03*
X016534Y002226D03*
X016534Y002196D03*
X016534Y002166D03*
X016534Y002146D03*
X016534Y002116D03*
X016534Y002096D03*
X016534Y002037D03*
X016534Y002017D03*
X016534Y001987D03*
X016534Y001967D03*
X014534Y001967D03*
X014534Y001987D03*
X014534Y002017D03*
X014534Y002037D03*
X014534Y002096D03*
X014534Y002116D03*
X014534Y002146D03*
X014534Y002166D03*
X014534Y002196D03*
X014534Y002226D03*
X014534Y002246D03*
X014534Y002276D03*
X014534Y002305D03*
X014534Y002325D03*
X014554Y002375D03*
X012554Y002375D03*
X012534Y002325D03*
X012534Y002305D03*
X012534Y002276D03*
X012534Y002246D03*
X012534Y002226D03*
X012534Y002196D03*
X012534Y002166D03*
X012534Y002146D03*
X012534Y002116D03*
X012534Y002096D03*
X012534Y002037D03*
X012534Y002017D03*
X012534Y001987D03*
X012534Y001967D03*
X010534Y001967D03*
X010534Y001987D03*
X010534Y002017D03*
X010534Y002037D03*
X010534Y002096D03*
X010534Y002116D03*
X010534Y002146D03*
X010534Y002166D03*
X010534Y002196D03*
X010534Y002226D03*
X010534Y002246D03*
X010534Y002276D03*
X010534Y002305D03*
X010534Y002325D03*
X010554Y002375D03*
X008554Y002375D03*
X008534Y002325D03*
X008534Y002305D03*
X008534Y002276D03*
X008534Y002246D03*
X008534Y002226D03*
X008534Y002196D03*
X008534Y002166D03*
X008534Y002146D03*
X008534Y002116D03*
X008534Y002096D03*
X008534Y002037D03*
X008534Y002017D03*
X008534Y001987D03*
X008534Y001967D03*
D553*
X009041Y001967D03*
X009041Y001987D03*
X011041Y001987D03*
X011041Y001967D03*
X013041Y001967D03*
X013041Y001987D03*
X015041Y001987D03*
X015041Y001967D03*
X017041Y001967D03*
X017041Y001987D03*
X019041Y001987D03*
X019041Y001967D03*
D554*
X019429Y001967D03*
X019420Y002325D03*
X017420Y002325D03*
X017429Y001967D03*
X015429Y001967D03*
X015420Y002325D03*
X013420Y002325D03*
X013429Y001967D03*
X011429Y001967D03*
X011420Y002325D03*
X009420Y002325D03*
X009429Y001967D03*
D555*
X009927Y001967D03*
X011927Y001967D03*
X013927Y001967D03*
X015927Y001967D03*
X017927Y001967D03*
X019927Y001967D03*
D556*
X018534Y001977D03*
X018534Y001997D03*
X018534Y002007D03*
X018534Y002027D03*
X018534Y002047D03*
X018534Y002057D03*
X018534Y002077D03*
X018534Y002087D03*
X018534Y002106D03*
X018534Y002126D03*
X018534Y002136D03*
X018534Y002156D03*
X018534Y002186D03*
X018534Y002206D03*
X018534Y002216D03*
X018534Y002236D03*
X018534Y002256D03*
X018534Y002266D03*
X018534Y002286D03*
X018534Y002315D03*
X018534Y002335D03*
X016534Y002335D03*
X016534Y002315D03*
X016534Y002286D03*
X016534Y002266D03*
X016534Y002256D03*
X016534Y002236D03*
X016534Y002216D03*
X016534Y002206D03*
X016534Y002186D03*
X016534Y002156D03*
X016534Y002136D03*
X016534Y002126D03*
X016534Y002106D03*
X016534Y002087D03*
X016534Y002077D03*
X016534Y002057D03*
X016534Y002047D03*
X016534Y002027D03*
X016534Y002007D03*
X016534Y001997D03*
X016534Y001977D03*
X014534Y001977D03*
X014534Y001997D03*
X014534Y002007D03*
X014534Y002027D03*
X014534Y002047D03*
X014534Y002057D03*
X014534Y002077D03*
X014534Y002087D03*
X014534Y002106D03*
X014534Y002126D03*
X014534Y002136D03*
X014534Y002156D03*
X014534Y002186D03*
X014534Y002206D03*
X014534Y002216D03*
X014534Y002236D03*
X014534Y002256D03*
X014534Y002266D03*
X014534Y002286D03*
X014534Y002315D03*
X014534Y002335D03*
X012534Y002335D03*
X012534Y002315D03*
X012534Y002286D03*
X012534Y002266D03*
X012534Y002256D03*
X012534Y002236D03*
X012534Y002216D03*
X012534Y002206D03*
X012534Y002186D03*
X012534Y002156D03*
X012534Y002136D03*
X012534Y002126D03*
X012534Y002106D03*
X012534Y002087D03*
X012534Y002077D03*
X012534Y002057D03*
X012534Y002047D03*
X012534Y002027D03*
X012534Y002007D03*
X012534Y001997D03*
X012534Y001977D03*
X010534Y001977D03*
X010534Y001997D03*
X010534Y002007D03*
X010534Y002027D03*
X010534Y002047D03*
X010534Y002057D03*
X010534Y002077D03*
X010534Y002087D03*
X010534Y002106D03*
X010534Y002126D03*
X010534Y002136D03*
X010534Y002156D03*
X010534Y002186D03*
X010534Y002206D03*
X010534Y002216D03*
X010534Y002236D03*
X010534Y002256D03*
X010534Y002266D03*
X010534Y002286D03*
X010534Y002315D03*
X010534Y002335D03*
X008534Y002335D03*
X008534Y002315D03*
X008534Y002286D03*
X008534Y002266D03*
X008534Y002256D03*
X008534Y002236D03*
X008534Y002216D03*
X008534Y002206D03*
X008534Y002186D03*
X008534Y002156D03*
X008534Y002136D03*
X008534Y002126D03*
X008534Y002106D03*
X008534Y002087D03*
X008534Y002077D03*
X008534Y002057D03*
X008534Y002047D03*
X008534Y002027D03*
X008534Y002007D03*
X008534Y001997D03*
X008534Y001977D03*
D557*
X009041Y001977D03*
X009041Y001997D03*
X011041Y001997D03*
X011041Y001977D03*
X013041Y001977D03*
X013041Y001997D03*
X015041Y001997D03*
X015041Y001977D03*
X017041Y001977D03*
X017041Y001997D03*
X019041Y001997D03*
X019041Y001977D03*
D558*
X019420Y002007D03*
X019429Y001977D03*
X019420Y002315D03*
X019429Y002345D03*
X017429Y002345D03*
X017420Y002315D03*
X017420Y002007D03*
X017429Y001977D03*
X015429Y001977D03*
X015420Y002007D03*
X015420Y002315D03*
X015429Y002345D03*
X013429Y002345D03*
X013420Y002315D03*
X013420Y002007D03*
X013429Y001977D03*
X011429Y001977D03*
X011420Y002007D03*
X011420Y002315D03*
X011429Y002345D03*
X009429Y002345D03*
X009420Y002315D03*
X009420Y002007D03*
X009429Y001977D03*
D559*
X009937Y001977D03*
X011937Y001977D03*
X013937Y001977D03*
X015937Y001977D03*
X017937Y001977D03*
X019937Y001977D03*
D560*
X019424Y001987D03*
X017424Y001987D03*
X015424Y001987D03*
X013424Y001987D03*
X011424Y001987D03*
X009424Y001987D03*
D561*
X009942Y001987D03*
X011942Y001987D03*
X013942Y001987D03*
X015942Y001987D03*
X017942Y001987D03*
X019942Y001987D03*
D562*
X019424Y001997D03*
X019424Y002335D03*
X017424Y002335D03*
X017424Y001997D03*
X015424Y001997D03*
X015424Y002335D03*
X013424Y002335D03*
X013424Y001997D03*
X011424Y001997D03*
X011424Y002335D03*
X009424Y002335D03*
X009424Y001997D03*
D563*
X009947Y001997D03*
X010544Y002365D03*
X011947Y001997D03*
X012544Y002365D03*
X013947Y001997D03*
X014544Y002365D03*
X015947Y001997D03*
X016544Y002365D03*
X017947Y001997D03*
X018544Y002365D03*
X019947Y001997D03*
X008544Y002365D03*
D564*
X008539Y002345D03*
X009952Y002315D03*
X009952Y002007D03*
X010539Y002345D03*
X011952Y002315D03*
X011952Y002007D03*
X012539Y002345D03*
X013952Y002315D03*
X013952Y002007D03*
X014539Y002345D03*
X015952Y002315D03*
X015952Y002007D03*
X016539Y002345D03*
X017952Y002315D03*
X017952Y002007D03*
X018539Y002345D03*
X019952Y002315D03*
X019952Y002007D03*
D565*
X019031Y002017D03*
X017031Y002017D03*
X015031Y002017D03*
X013031Y002017D03*
X011031Y002017D03*
X009031Y002017D03*
D566*
X009415Y002017D03*
X009415Y002166D03*
X009424Y002355D03*
X011415Y002166D03*
X011415Y002017D03*
X011424Y002355D03*
X013415Y002166D03*
X013415Y002017D03*
X013424Y002355D03*
X015415Y002166D03*
X015415Y002017D03*
X015424Y002355D03*
X017415Y002166D03*
X017415Y002017D03*
X017424Y002355D03*
X019415Y002166D03*
X019415Y002017D03*
X019424Y002355D03*
D567*
X019957Y002305D03*
X019957Y002017D03*
X017957Y002017D03*
X017957Y002305D03*
X015957Y002305D03*
X015957Y002017D03*
X013957Y002017D03*
X013957Y002305D03*
X011957Y002305D03*
X011957Y002017D03*
X009957Y002017D03*
X009957Y002305D03*
D568*
X010932Y002315D03*
X010932Y002335D03*
X010932Y002345D03*
X010932Y002286D03*
X010932Y002266D03*
X010932Y002256D03*
X010932Y002236D03*
X010932Y002216D03*
X010932Y002206D03*
X010932Y002186D03*
X010932Y002156D03*
X010932Y002136D03*
X010932Y002126D03*
X010932Y002106D03*
X010932Y002087D03*
X010932Y002077D03*
X010932Y002057D03*
X010932Y002047D03*
X010932Y002027D03*
X012932Y002027D03*
X012932Y002047D03*
X012932Y002057D03*
X012932Y002077D03*
X012932Y002087D03*
X012932Y002106D03*
X012932Y002126D03*
X012932Y002136D03*
X012932Y002156D03*
X012932Y002186D03*
X012932Y002206D03*
X012932Y002216D03*
X012932Y002236D03*
X012932Y002256D03*
X012932Y002266D03*
X012932Y002286D03*
X012932Y002315D03*
X012932Y002335D03*
X012932Y002345D03*
X014932Y002345D03*
X014932Y002335D03*
X014932Y002315D03*
X014932Y002286D03*
X014932Y002266D03*
X014932Y002256D03*
X014932Y002236D03*
X014932Y002216D03*
X014932Y002206D03*
X014932Y002186D03*
X014932Y002156D03*
X014932Y002136D03*
X014932Y002126D03*
X014932Y002106D03*
X014932Y002087D03*
X014932Y002077D03*
X014932Y002057D03*
X014932Y002047D03*
X014932Y002027D03*
X016932Y002027D03*
X016932Y002047D03*
X016932Y002057D03*
X016932Y002077D03*
X016932Y002087D03*
X016932Y002106D03*
X016932Y002126D03*
X016932Y002136D03*
X016932Y002156D03*
X016932Y002186D03*
X016932Y002206D03*
X016932Y002216D03*
X016932Y002236D03*
X016932Y002256D03*
X016932Y002266D03*
X016932Y002286D03*
X016932Y002315D03*
X016932Y002335D03*
X016932Y002345D03*
X018932Y002345D03*
X018932Y002335D03*
X018932Y002315D03*
X018932Y002286D03*
X018932Y002266D03*
X018932Y002256D03*
X018932Y002236D03*
X018932Y002216D03*
X018932Y002206D03*
X018932Y002186D03*
X018932Y002156D03*
X018932Y002136D03*
X018932Y002126D03*
X018932Y002106D03*
X018932Y002087D03*
X018932Y002077D03*
X018932Y002057D03*
X018932Y002047D03*
X018932Y002027D03*
X008932Y002027D03*
X008932Y002047D03*
X008932Y002057D03*
X008932Y002077D03*
X008932Y002087D03*
X008932Y002106D03*
X008932Y002126D03*
X008932Y002136D03*
X008932Y002156D03*
X008932Y002186D03*
X008932Y002206D03*
X008932Y002216D03*
X008932Y002236D03*
X008932Y002256D03*
X008932Y002266D03*
X008932Y002286D03*
X008932Y002315D03*
X008932Y002335D03*
X008932Y002345D03*
D569*
X009305Y002286D03*
X009305Y002266D03*
X009305Y002256D03*
X009305Y002236D03*
X009305Y002216D03*
X009305Y002206D03*
X009305Y002136D03*
X009305Y002126D03*
X009305Y002106D03*
X009305Y002087D03*
X009305Y002077D03*
X009305Y002057D03*
X009305Y002047D03*
X009305Y002027D03*
X009972Y002077D03*
X009972Y002087D03*
X009972Y002106D03*
X009972Y002126D03*
X009972Y002206D03*
X009972Y002216D03*
X009972Y002236D03*
X011305Y002236D03*
X011305Y002256D03*
X011305Y002266D03*
X011305Y002286D03*
X011305Y002216D03*
X011305Y002206D03*
X011305Y002136D03*
X011305Y002126D03*
X011305Y002106D03*
X011305Y002087D03*
X011305Y002077D03*
X011305Y002057D03*
X011305Y002047D03*
X011305Y002027D03*
X011972Y002077D03*
X011972Y002087D03*
X011972Y002106D03*
X011972Y002126D03*
X011972Y002206D03*
X011972Y002216D03*
X011972Y002236D03*
X013305Y002236D03*
X013305Y002256D03*
X013305Y002266D03*
X013305Y002286D03*
X013305Y002216D03*
X013305Y002206D03*
X013305Y002136D03*
X013305Y002126D03*
X013305Y002106D03*
X013305Y002087D03*
X013305Y002077D03*
X013305Y002057D03*
X013305Y002047D03*
X013305Y002027D03*
X013972Y002077D03*
X013972Y002087D03*
X013972Y002106D03*
X013972Y002126D03*
X013972Y002206D03*
X013972Y002216D03*
X013972Y002236D03*
X015305Y002236D03*
X015305Y002256D03*
X015305Y002266D03*
X015305Y002286D03*
X015305Y002216D03*
X015305Y002206D03*
X015305Y002136D03*
X015305Y002126D03*
X015305Y002106D03*
X015305Y002087D03*
X015305Y002077D03*
X015305Y002057D03*
X015305Y002047D03*
X015305Y002027D03*
X015972Y002077D03*
X015972Y002087D03*
X015972Y002106D03*
X015972Y002126D03*
X015972Y002206D03*
X015972Y002216D03*
X015972Y002236D03*
X017305Y002236D03*
X017305Y002256D03*
X017305Y002266D03*
X017305Y002286D03*
X017305Y002216D03*
X017305Y002206D03*
X017305Y002136D03*
X017305Y002126D03*
X017305Y002106D03*
X017305Y002087D03*
X017305Y002077D03*
X017305Y002057D03*
X017305Y002047D03*
X017305Y002027D03*
X017972Y002077D03*
X017972Y002087D03*
X017972Y002106D03*
X017972Y002126D03*
X017972Y002206D03*
X017972Y002216D03*
X017972Y002236D03*
X019305Y002236D03*
X019305Y002256D03*
X019305Y002266D03*
X019305Y002286D03*
X019305Y002216D03*
X019305Y002206D03*
X019305Y002136D03*
X019305Y002126D03*
X019305Y002106D03*
X019305Y002087D03*
X019305Y002077D03*
X019305Y002057D03*
X019305Y002047D03*
X019305Y002027D03*
X019972Y002077D03*
X019972Y002087D03*
X019972Y002106D03*
X019972Y002126D03*
X019972Y002206D03*
X019972Y002216D03*
X019972Y002236D03*
D570*
X019614Y002027D03*
X017614Y002027D03*
X015614Y002027D03*
X013614Y002027D03*
X011614Y002027D03*
X009614Y002027D03*
D571*
X009957Y002027D03*
X011957Y002027D03*
X013957Y002027D03*
X015957Y002027D03*
X017957Y002027D03*
X019957Y002027D03*
D572*
X018932Y002037D03*
X018932Y002096D03*
X018932Y002116D03*
X018932Y002146D03*
X018932Y002166D03*
X018932Y002196D03*
X018932Y002226D03*
X018932Y002246D03*
X018932Y002276D03*
X018932Y002305D03*
X018932Y002325D03*
X018932Y002355D03*
X016932Y002355D03*
X016932Y002325D03*
X016932Y002305D03*
X016932Y002276D03*
X016932Y002246D03*
X016932Y002226D03*
X016932Y002196D03*
X016932Y002166D03*
X016932Y002146D03*
X016932Y002116D03*
X016932Y002096D03*
X016932Y002037D03*
X014932Y002037D03*
X014932Y002096D03*
X014932Y002116D03*
X014932Y002146D03*
X014932Y002166D03*
X014932Y002196D03*
X014932Y002226D03*
X014932Y002246D03*
X014932Y002276D03*
X014932Y002305D03*
X014932Y002325D03*
X014932Y002355D03*
X012932Y002355D03*
X012932Y002325D03*
X012932Y002305D03*
X012932Y002276D03*
X012932Y002246D03*
X012932Y002226D03*
X012932Y002196D03*
X012932Y002166D03*
X012932Y002146D03*
X012932Y002116D03*
X012932Y002096D03*
X012932Y002037D03*
X010932Y002037D03*
X010932Y002096D03*
X010932Y002116D03*
X010932Y002146D03*
X010932Y002166D03*
X010932Y002196D03*
X010932Y002226D03*
X010932Y002246D03*
X010932Y002276D03*
X010932Y002305D03*
X010932Y002325D03*
X010932Y002355D03*
X008932Y002355D03*
X008932Y002325D03*
X008932Y002305D03*
X008932Y002276D03*
X008932Y002246D03*
X008932Y002226D03*
X008932Y002196D03*
X008932Y002166D03*
X008932Y002146D03*
X008932Y002116D03*
X008932Y002096D03*
X008932Y002037D03*
D573*
X009305Y002037D03*
X009305Y002096D03*
X009305Y002116D03*
X009305Y002226D03*
X009305Y002246D03*
X009305Y002276D03*
X009972Y002246D03*
X009972Y002226D03*
X009972Y002196D03*
X009972Y002116D03*
X009972Y002096D03*
X011305Y002096D03*
X011305Y002116D03*
X011305Y002037D03*
X011305Y002226D03*
X011305Y002246D03*
X011305Y002276D03*
X011972Y002246D03*
X011972Y002226D03*
X011972Y002196D03*
X011972Y002116D03*
X011972Y002096D03*
X013305Y002096D03*
X013305Y002116D03*
X013305Y002037D03*
X013305Y002226D03*
X013305Y002246D03*
X013305Y002276D03*
X013972Y002246D03*
X013972Y002226D03*
X013972Y002196D03*
X013972Y002116D03*
X013972Y002096D03*
X015305Y002096D03*
X015305Y002116D03*
X015305Y002037D03*
X015305Y002226D03*
X015305Y002246D03*
X015305Y002276D03*
X015972Y002246D03*
X015972Y002226D03*
X015972Y002196D03*
X015972Y002116D03*
X015972Y002096D03*
X017305Y002096D03*
X017305Y002116D03*
X017305Y002037D03*
X017305Y002226D03*
X017305Y002246D03*
X017305Y002276D03*
X017972Y002246D03*
X017972Y002226D03*
X017972Y002196D03*
X017972Y002116D03*
X017972Y002096D03*
X019305Y002096D03*
X019305Y002116D03*
X019305Y002037D03*
X019305Y002226D03*
X019305Y002246D03*
X019305Y002276D03*
X019972Y002246D03*
X019972Y002226D03*
X019972Y002196D03*
X019972Y002116D03*
X019972Y002096D03*
D574*
X019619Y002037D03*
X017619Y002037D03*
X015619Y002037D03*
X013619Y002037D03*
X011619Y002037D03*
X009619Y002037D03*
D575*
X009962Y002037D03*
X009962Y002276D03*
X011962Y002276D03*
X011962Y002037D03*
X013962Y002037D03*
X013962Y002276D03*
X015962Y002276D03*
X015962Y002037D03*
X017962Y002037D03*
X017962Y002276D03*
X019962Y002276D03*
X019962Y002037D03*
D576*
X019624Y002047D03*
X017624Y002047D03*
X015624Y002047D03*
X013624Y002047D03*
X011624Y002047D03*
X009624Y002047D03*
D577*
X009962Y002047D03*
X009962Y002286D03*
X011962Y002286D03*
X011962Y002047D03*
X013962Y002047D03*
X013962Y002286D03*
X015962Y002286D03*
X015962Y002047D03*
X017962Y002047D03*
X017962Y002286D03*
X019962Y002286D03*
X019962Y002047D03*
D578*
X019967Y002057D03*
X019967Y002256D03*
X019967Y002266D03*
X017967Y002266D03*
X017967Y002256D03*
X017967Y002057D03*
X015967Y002057D03*
X015967Y002256D03*
X015967Y002266D03*
X013967Y002266D03*
X013967Y002256D03*
X013967Y002057D03*
X011967Y002057D03*
X011967Y002256D03*
X011967Y002266D03*
X009967Y002266D03*
X009967Y002256D03*
X009967Y002057D03*
D579*
X010534Y002067D03*
X008534Y002067D03*
X012534Y002067D03*
X014534Y002067D03*
X016534Y002067D03*
X018534Y002067D03*
D580*
X018932Y002067D03*
X016932Y002067D03*
X014932Y002067D03*
X012932Y002067D03*
X010932Y002067D03*
X008932Y002067D03*
D581*
X009305Y002067D03*
X011305Y002067D03*
X013305Y002067D03*
X015305Y002067D03*
X017305Y002067D03*
X019305Y002067D03*
D582*
X019634Y002067D03*
X017634Y002067D03*
X015634Y002067D03*
X013634Y002067D03*
X011634Y002067D03*
X009634Y002067D03*
D583*
X009967Y002067D03*
X011967Y002067D03*
X013967Y002067D03*
X015967Y002067D03*
X017967Y002067D03*
X019967Y002067D03*
D584*
X019634Y002077D03*
X019634Y002256D03*
X017634Y002256D03*
X017634Y002077D03*
X015634Y002077D03*
X015634Y002256D03*
X013634Y002256D03*
X013634Y002077D03*
X011634Y002077D03*
X011634Y002256D03*
X009634Y002256D03*
X009634Y002077D03*
D585*
X009643Y002126D03*
X009643Y002136D03*
X009643Y002156D03*
X009643Y002186D03*
X011643Y002186D03*
X011643Y002156D03*
X011643Y002136D03*
X011643Y002126D03*
X013643Y002126D03*
X013643Y002136D03*
X013643Y002156D03*
X013643Y002186D03*
X015643Y002186D03*
X015643Y002156D03*
X015643Y002136D03*
X015643Y002126D03*
X017643Y002126D03*
X017643Y002136D03*
X017643Y002156D03*
X017643Y002186D03*
X019643Y002186D03*
X019643Y002156D03*
X019643Y002136D03*
X019643Y002126D03*
D586*
X019977Y002136D03*
X019977Y002156D03*
X019977Y002186D03*
X018932Y002365D03*
X017977Y002186D03*
X017977Y002156D03*
X017977Y002136D03*
X016932Y002365D03*
X015977Y002186D03*
X015977Y002156D03*
X015977Y002136D03*
X014932Y002365D03*
X013977Y002186D03*
X013977Y002156D03*
X013977Y002136D03*
X012932Y002365D03*
X011977Y002186D03*
X011977Y002156D03*
X011977Y002136D03*
X010932Y002365D03*
X009977Y002186D03*
X009977Y002156D03*
X009977Y002136D03*
X008932Y002365D03*
D587*
X009410Y002196D03*
X009410Y002146D03*
X011410Y002146D03*
X011410Y002196D03*
X013410Y002196D03*
X013410Y002146D03*
X015410Y002146D03*
X015410Y002196D03*
X017410Y002196D03*
X017410Y002146D03*
X019410Y002146D03*
X019410Y002196D03*
D588*
X019643Y002196D03*
X019643Y002166D03*
X019643Y002146D03*
X017643Y002146D03*
X017643Y002166D03*
X017643Y002196D03*
X015643Y002196D03*
X015643Y002166D03*
X015643Y002146D03*
X013643Y002146D03*
X013643Y002166D03*
X013643Y002196D03*
X011643Y002196D03*
X011643Y002166D03*
X011643Y002146D03*
X009643Y002146D03*
X009643Y002166D03*
X009643Y002196D03*
D589*
X009977Y002166D03*
X009977Y002146D03*
X011977Y002146D03*
X011977Y002166D03*
X013977Y002166D03*
X013977Y002146D03*
X015977Y002146D03*
X015977Y002166D03*
X017977Y002166D03*
X017977Y002146D03*
X019977Y002146D03*
X019977Y002166D03*
D590*
X019415Y002156D03*
X019415Y002186D03*
X017415Y002186D03*
X017415Y002156D03*
X015415Y002156D03*
X015415Y002186D03*
X013415Y002186D03*
X013415Y002156D03*
X011415Y002156D03*
X011415Y002186D03*
X009415Y002186D03*
X009415Y002156D03*
D591*
X008534Y002176D03*
X008534Y002296D03*
X010534Y002296D03*
X010534Y002176D03*
X012534Y002176D03*
X012534Y002296D03*
X014534Y002296D03*
X014534Y002176D03*
X016534Y002176D03*
X016534Y002296D03*
X018534Y002296D03*
X018534Y002176D03*
D592*
X018932Y002176D03*
X018932Y002296D03*
X016932Y002296D03*
X016932Y002176D03*
X014932Y002176D03*
X014932Y002296D03*
X012932Y002296D03*
X012932Y002176D03*
X010932Y002176D03*
X010932Y002296D03*
X008932Y002296D03*
X008932Y002176D03*
D593*
X009643Y002176D03*
X011643Y002176D03*
X013643Y002176D03*
X015643Y002176D03*
X017643Y002176D03*
X019643Y002176D03*
D594*
X019977Y002176D03*
X017977Y002176D03*
X015977Y002176D03*
X013977Y002176D03*
X011977Y002176D03*
X009977Y002176D03*
D595*
X009634Y002246D03*
X011634Y002246D03*
X013634Y002246D03*
X015634Y002246D03*
X017634Y002246D03*
X019634Y002246D03*
D596*
X019624Y002276D03*
X017624Y002276D03*
X015624Y002276D03*
X013624Y002276D03*
X011624Y002276D03*
X009624Y002276D03*
D597*
X009619Y002286D03*
X011619Y002286D03*
X013619Y002286D03*
X015619Y002286D03*
X017619Y002286D03*
X019619Y002286D03*
D598*
X019305Y002296D03*
X017305Y002296D03*
X015305Y002296D03*
X013305Y002296D03*
X011305Y002296D03*
X009305Y002296D03*
D599*
X009609Y002296D03*
X011609Y002296D03*
X013609Y002296D03*
X015609Y002296D03*
X017609Y002296D03*
X019609Y002296D03*
D600*
X019957Y002296D03*
X017957Y002296D03*
X015957Y002296D03*
X013957Y002296D03*
X011957Y002296D03*
X009957Y002296D03*
D601*
X009310Y002305D03*
X011310Y002305D03*
X013310Y002305D03*
X015310Y002305D03*
X017310Y002305D03*
X019310Y002305D03*
D602*
X019947Y002325D03*
X017947Y002325D03*
X015947Y002325D03*
X013947Y002325D03*
X011947Y002325D03*
X009947Y002325D03*
D603*
X009942Y002335D03*
X009932Y002345D03*
X011932Y002345D03*
X011942Y002335D03*
X013932Y002345D03*
X013942Y002335D03*
X015932Y002345D03*
X015942Y002335D03*
X017932Y002345D03*
X017942Y002335D03*
X019932Y002345D03*
X019942Y002335D03*
D604*
X018539Y002355D03*
X016539Y002355D03*
X014539Y002355D03*
X012539Y002355D03*
X010539Y002355D03*
X008539Y002355D03*
D605*
X009922Y002355D03*
X011922Y002355D03*
X013922Y002355D03*
X015922Y002355D03*
X017922Y002355D03*
X019922Y002355D03*
D606*
X019424Y002365D03*
X017424Y002365D03*
X015424Y002365D03*
X013424Y002365D03*
X011424Y002365D03*
X009424Y002365D03*
D607*
X009907Y002365D03*
X011907Y002365D03*
X013907Y002365D03*
X015907Y002365D03*
X017907Y002365D03*
X019907Y002365D03*
D608*
X019439Y002375D03*
X017439Y002375D03*
X015439Y002375D03*
X013439Y002375D03*
X011439Y002375D03*
X009439Y002375D03*
D609*
X009240Y002385D03*
X011240Y002385D03*
X013240Y002385D03*
X015240Y002385D03*
X017240Y002385D03*
X019240Y002385D03*
D610*
X019240Y002405D03*
X017240Y002405D03*
X015240Y002405D03*
X013240Y002405D03*
X011240Y002405D03*
X009240Y002405D03*
D611*
X009240Y002415D03*
X011240Y002415D03*
X013240Y002415D03*
X015240Y002415D03*
X017240Y002415D03*
X019240Y002415D03*
D612*
X019240Y002455D03*
X017240Y002455D03*
X015240Y002455D03*
X013240Y002455D03*
X011240Y002455D03*
X009240Y002455D03*
D613*
X009240Y002465D03*
X011240Y002465D03*
X013240Y002465D03*
X015240Y002465D03*
X017240Y002465D03*
X019240Y002465D03*
M02*
