G75*
%MOIN*%
%OFA0B0*%
%FSLAX24Y24*%
%IPPOS*%
%LPD*%
%AMOC8*
5,1,8,0,0,1.08239X$1,22.5*
%
%ADD10C,0.0118*%
%ADD11C,0.0120*%
%ADD12C,0.0090*%
%ADD13C,0.0050*%
%ADD14C,0.0040*%
%ADD15R,0.0082X0.0009*%
%ADD16R,0.0164X0.0009*%
%ADD17R,0.0027X0.0009*%
%ADD18R,0.0036X0.0009*%
%ADD19R,0.0146X0.0009*%
%ADD20R,0.0046X0.0009*%
%ADD21R,0.0037X0.0009*%
%ADD22R,0.0128X0.0009*%
%ADD23R,0.0192X0.0009*%
%ADD24R,0.0046X0.0009*%
%ADD25R,0.0036X0.0009*%
%ADD26R,0.0055X0.0009*%
%ADD27R,0.0173X0.0009*%
%ADD28R,0.0064X0.0009*%
%ADD29R,0.0155X0.0009*%
%ADD30R,0.0192X0.0009*%
%ADD31R,0.0055X0.0009*%
%ADD32R,0.0064X0.0009*%
%ADD33R,0.0173X0.0009*%
%ADD34R,0.0055X0.0009*%
%ADD35R,0.0183X0.0009*%
%ADD36R,0.0201X0.0009*%
%ADD37R,0.0064X0.0009*%
%ADD38R,0.0073X0.0009*%
%ADD39R,0.0182X0.0009*%
%ADD40R,0.0082X0.0009*%
%ADD41R,0.0073X0.0009*%
%ADD42R,0.0183X0.0009*%
%ADD43R,0.0046X0.0009*%
%ADD44R,0.0055X0.0009*%
%ADD45R,0.0055X0.0009*%
%ADD46R,0.0082X0.0009*%
%ADD47R,0.0173X0.0009*%
%ADD48R,0.0037X0.0009*%
%ADD49R,0.0155X0.0009*%
%ADD50R,0.0091X0.0009*%
%ADD51R,0.0055X0.0009*%
%ADD52R,0.0091X0.0009*%
%ADD53R,0.0064X0.0009*%
%ADD54R,0.0100X0.0009*%
%ADD55R,0.0109X0.0009*%
%ADD56R,0.0009X0.0009*%
%ADD57R,0.0155X0.0009*%
%ADD58R,0.0219X0.0009*%
%ADD59R,0.0064X0.0009*%
%ADD60R,0.0219X0.0009*%
%ADD61R,0.0046X0.0009*%
%ADD62R,0.0183X0.0009*%
%ADD63R,0.0192X0.0009*%
%ADD64R,0.0219X0.0009*%
%ADD65R,0.0046X0.0009*%
%ADD66R,0.0027X0.0009*%
%ADD67R,0.0110X0.0009*%
%ADD68R,0.0110X0.0009*%
%ADD69R,0.0119X0.0009*%
%ADD70R,0.0064X0.0009*%
%ADD71R,0.0055X0.0009*%
%ADD72R,0.0055X0.0009*%
%ADD73R,0.0046X0.0009*%
%ADD74R,0.0091X0.0009*%
%ADD75R,0.0100X0.0009*%
%ADD76R,0.0073X0.0009*%
%ADD77R,0.0073X0.0009*%
%ADD78R,0.0146X0.0009*%
%ADD79R,0.0128X0.0009*%
%ADD80R,0.0182X0.0009*%
%ADD81R,0.0119X0.0009*%
%ADD82R,0.0137X0.0009*%
%ADD83R,0.0100X0.0009*%
%ADD84R,0.0027X0.0009*%
%ADD85R,0.0009X0.0009*%
%ADD86R,0.0037X0.0009*%
%ADD87R,0.0027X0.0009*%
%ADD88R,0.0027X0.0009*%
%ADD89R,0.0036X0.0009*%
%ADD90R,0.0027X0.0009*%
%ADD91R,0.0036X0.0009*%
%ADD92R,0.0210X0.0009*%
%ADD93R,0.0283X0.0009*%
%ADD94R,0.0310X0.0009*%
%ADD95R,0.0037X0.0009*%
%ADD96R,0.0027X0.0009*%
%ADD97R,0.0128X0.0009*%
%ADD98R,0.0018X0.0009*%
%ADD99R,0.0274X0.0009*%
%ADD100R,0.0338X0.0009*%
%ADD101R,0.0392X0.0009*%
%ADD102R,0.0018X0.0009*%
%ADD103R,0.0119X0.0009*%
%ADD104R,0.0091X0.0009*%
%ADD105R,0.0082X0.0009*%
%ADD106R,0.0109X0.0009*%
%ADD107R,0.0027X0.0009*%
%ADD108R,0.0046X0.0009*%
%ADD109R,0.0146X0.0009*%
%ADD110R,0.0164X0.0009*%
%ADD111R,0.0018X0.0009*%
%ADD112R,0.0018X0.0009*%
%ADD113R,0.0018X0.0009*%
%ADD114R,0.0064X0.0009*%
%ADD115R,0.0155X0.0009*%
%ADD116R,0.0137X0.0009*%
%ADD117R,0.0018X0.0009*%
%ADD118R,0.0146X0.0009*%
%ADD119R,0.0164X0.0009*%
%ADD120R,0.0046X0.0009*%
%ADD121R,0.0329X0.0009*%
%ADD122R,0.0265X0.0009*%
%ADD123R,0.0064X0.0009*%
%ADD124R,0.0100X0.0009*%
%ADD125R,0.1341X0.0009*%
%ADD126R,0.1305X0.0009*%
%ADD127R,0.1278X0.0009*%
%ADD128R,0.1214X0.0009*%
%ADD129C,0.0059*%
%ADD130R,0.1246X0.0013*%
%ADD131R,0.1348X0.0013*%
%ADD132R,0.1399X0.0013*%
%ADD133R,0.1425X0.0013*%
%ADD134R,0.1475X0.0013*%
%ADD135R,0.1501X0.0013*%
%ADD136R,0.1526X0.0013*%
%ADD137R,0.1552X0.0013*%
%ADD138R,0.1577X0.0013*%
%ADD139R,0.1603X0.0013*%
%ADD140R,0.1603X0.0013*%
%ADD141R,0.1628X0.0013*%
%ADD142R,0.1628X0.0013*%
%ADD143R,0.0521X0.0013*%
%ADD144R,0.1094X0.0013*%
%ADD145R,0.0458X0.0013*%
%ADD146R,0.0293X0.0013*%
%ADD147R,0.0267X0.0013*%
%ADD148R,0.0318X0.0013*%
%ADD149R,0.0420X0.0013*%
%ADD150R,0.0242X0.0013*%
%ADD151R,0.0305X0.0013*%
%ADD152R,0.0394X0.0013*%
%ADD153R,0.0216X0.0013*%
%ADD154R,0.0305X0.0013*%
%ADD155R,0.0369X0.0013*%
%ADD156R,0.0191X0.0013*%
%ADD157R,0.0356X0.0013*%
%ADD158R,0.0178X0.0013*%
%ADD159R,0.0204X0.0013*%
%ADD160R,0.0343X0.0013*%
%ADD161R,0.0165X0.0013*%
%ADD162R,0.0331X0.0013*%
%ADD163R,0.0025X0.0013*%
%ADD164R,0.0153X0.0013*%
%ADD165R,0.0191X0.0013*%
%ADD166R,0.0331X0.0013*%
%ADD167R,0.0127X0.0013*%
%ADD168R,0.0153X0.0013*%
%ADD169R,0.0178X0.0013*%
%ADD170R,0.0305X0.0013*%
%ADD171R,0.0318X0.0013*%
%ADD172R,0.0140X0.0013*%
%ADD173R,0.0305X0.0013*%
%ADD174R,0.0127X0.0013*%
%ADD175R,0.0305X0.0013*%
%ADD176R,0.0216X0.0013*%
%ADD177R,0.0127X0.0013*%
%ADD178R,0.0153X0.0013*%
%ADD179R,0.0293X0.0013*%
%ADD180R,0.0242X0.0013*%
%ADD181R,0.0114X0.0013*%
%ADD182R,0.0140X0.0013*%
%ADD183R,0.0254X0.0013*%
%ADD184R,0.0114X0.0013*%
%ADD185R,0.0127X0.0013*%
%ADD186R,0.0280X0.0013*%
%ADD187R,0.0114X0.0013*%
%ADD188R,0.0114X0.0013*%
%ADD189R,0.0280X0.0013*%
%ADD190R,0.0102X0.0013*%
%ADD191R,0.0114X0.0013*%
%ADD192R,0.0013X0.0013*%
%ADD193R,0.0102X0.0013*%
%ADD194R,0.0025X0.0013*%
%ADD195R,0.0089X0.0013*%
%ADD196R,0.0038X0.0013*%
%ADD197R,0.0293X0.0013*%
%ADD198R,0.0102X0.0013*%
%ADD199R,0.0076X0.0013*%
%ADD200R,0.0051X0.0013*%
%ADD201R,0.0280X0.0013*%
%ADD202R,0.0305X0.0013*%
%ADD203R,0.0102X0.0013*%
%ADD204R,0.0064X0.0013*%
%ADD205R,0.0051X0.0013*%
%ADD206R,0.0064X0.0013*%
%ADD207R,0.0051X0.0013*%
%ADD208R,0.0076X0.0013*%
%ADD209R,0.0038X0.0013*%
%ADD210R,0.0089X0.0013*%
%ADD211R,0.0025X0.0013*%
%ADD212R,0.0013X0.0013*%
%ADD213R,0.0267X0.0013*%
%ADD214R,0.0153X0.0013*%
%ADD215R,0.0191X0.0013*%
%ADD216R,0.0165X0.0013*%
%ADD217R,0.0331X0.0013*%
%ADD218R,0.0165X0.0013*%
%ADD219R,0.0382X0.0013*%
%ADD220R,0.0204X0.0013*%
%ADD221R,0.0229X0.0013*%
%ADD222R,0.0394X0.0013*%
%ADD223R,0.0242X0.0013*%
%ADD224R,0.0407X0.0013*%
%ADD225R,0.0254X0.0013*%
%ADD226R,0.0293X0.0013*%
%ADD227R,0.0445X0.0013*%
%ADD228R,0.1603X0.0013*%
%ADD229R,0.1577X0.0013*%
%ADD230R,0.1552X0.0013*%
%ADD231R,0.1475X0.0013*%
%ADD232R,0.1425X0.0013*%
%ADD233R,0.1246X0.0013*%
%ADD234R,0.0343X0.0013*%
%ADD235R,0.0420X0.0013*%
%ADD236R,0.0369X0.0013*%
%ADD237R,0.0382X0.0013*%
%ADD238R,0.0356X0.0013*%
%ADD239R,0.0254X0.0013*%
%ADD240R,0.0229X0.0013*%
%ADD241R,0.0356X0.0013*%
%ADD242R,0.0229X0.0013*%
%ADD243R,0.0356X0.0013*%
%ADD244R,0.0216X0.0013*%
%ADD245R,0.0204X0.0013*%
%ADD246R,0.0191X0.0013*%
%ADD247R,0.0178X0.0013*%
%ADD248R,0.0064X0.0013*%
%ADD249R,0.0343X0.0013*%
%ADD250R,0.0140X0.0013*%
%ADD251R,0.0343X0.0013*%
%ADD252R,0.0242X0.0013*%
%ADD253R,0.0153X0.0013*%
%ADD254R,0.0127X0.0013*%
%ADD255R,0.0114X0.0013*%
%ADD256R,0.0178X0.0013*%
%ADD257R,0.0191X0.0013*%
%ADD258R,0.0089X0.0013*%
%ADD259R,0.0089X0.0013*%
%ADD260R,0.0076X0.0013*%
%ADD261R,0.0229X0.0013*%
%ADD262R,0.0089X0.0013*%
%ADD263R,0.0076X0.0013*%
%ADD264R,0.0267X0.0013*%
%ADD265R,0.0318X0.0013*%
%ADD266R,0.1196X0.0013*%
D10*
X006185Y001681D02*
X024744Y001681D01*
X024744Y005619D01*
X006185Y005619D01*
X006185Y001681D01*
X011760Y003150D02*
X012260Y003150D01*
X012260Y004150D01*
X011760Y004150D01*
X011760Y003150D01*
X012260Y003150D02*
X012260Y002650D01*
X012262Y002620D01*
X012267Y002590D01*
X012276Y002561D01*
X012289Y002534D01*
X012304Y002508D01*
X012323Y002484D01*
X012344Y002463D01*
X012368Y002444D01*
X012394Y002429D01*
X012421Y002416D01*
X012450Y002407D01*
X012480Y002402D01*
X012510Y002400D01*
X018510Y002400D01*
X018540Y002402D01*
X018570Y002407D01*
X018599Y002416D01*
X018626Y002429D01*
X018652Y002444D01*
X018676Y002463D01*
X018697Y002484D01*
X018716Y002508D01*
X018731Y002534D01*
X018744Y002561D01*
X018753Y002590D01*
X018758Y002620D01*
X018760Y002650D01*
X018760Y004650D01*
X018758Y004680D01*
X018753Y004710D01*
X018744Y004739D01*
X018731Y004766D01*
X018716Y004792D01*
X018697Y004816D01*
X018676Y004837D01*
X018652Y004856D01*
X018626Y004871D01*
X018599Y004884D01*
X018570Y004893D01*
X018540Y004898D01*
X018510Y004900D01*
X012613Y004900D01*
X012576Y004898D01*
X012539Y004892D01*
X012504Y004883D01*
X012469Y004869D01*
X012436Y004853D01*
X012405Y004832D01*
X012376Y004809D01*
X012350Y004783D01*
X012327Y004754D01*
X012306Y004723D01*
X012290Y004690D01*
X012276Y004655D01*
X012267Y004620D01*
X012261Y004583D01*
X012259Y004546D01*
X012260Y004546D02*
X012260Y004150D01*
X012410Y006600D02*
X018306Y006600D01*
X018343Y006602D01*
X018380Y006608D01*
X018415Y006617D01*
X018450Y006631D01*
X018483Y006647D01*
X018514Y006668D01*
X018543Y006691D01*
X018569Y006717D01*
X018592Y006746D01*
X018613Y006777D01*
X018629Y006810D01*
X018643Y006845D01*
X018652Y006880D01*
X018658Y006917D01*
X018660Y006954D01*
X018660Y007350D01*
X019160Y007350D01*
X019160Y008350D01*
X018660Y008350D01*
X018660Y007350D01*
X018660Y008350D02*
X018660Y008850D01*
X018658Y008880D01*
X018653Y008910D01*
X018644Y008939D01*
X018631Y008966D01*
X018616Y008992D01*
X018597Y009016D01*
X018576Y009037D01*
X018552Y009056D01*
X018526Y009071D01*
X018499Y009084D01*
X018470Y009093D01*
X018440Y009098D01*
X018410Y009100D01*
X012410Y009100D01*
X012380Y009098D01*
X012350Y009093D01*
X012321Y009084D01*
X012294Y009071D01*
X012268Y009056D01*
X012244Y009037D01*
X012223Y009016D01*
X012204Y008992D01*
X012189Y008966D01*
X012176Y008939D01*
X012167Y008910D01*
X012162Y008880D01*
X012160Y008850D01*
X012160Y006850D01*
X012162Y006820D01*
X012167Y006790D01*
X012176Y006761D01*
X012189Y006734D01*
X012204Y006708D01*
X012223Y006684D01*
X012244Y006663D01*
X012268Y006644D01*
X012294Y006629D01*
X012321Y006616D01*
X012350Y006607D01*
X012380Y006602D01*
X012410Y006600D01*
X006175Y005881D02*
X024734Y005881D01*
X024734Y009819D01*
X006175Y009819D01*
X006175Y005881D01*
D11*
X010925Y003650D02*
X011512Y003650D01*
X011218Y003944D02*
X011218Y003357D01*
X011371Y007850D02*
X011958Y007850D01*
X019175Y003650D02*
X019762Y003650D01*
X019914Y007557D02*
X019914Y008144D01*
X020208Y007850D02*
X019621Y007850D01*
D12*
X018115Y007821D02*
X017902Y008034D01*
X017902Y007395D01*
X018115Y007395D02*
X017689Y007395D01*
X017444Y007395D02*
X017337Y007395D01*
X017337Y007501D01*
X017444Y007501D01*
X017444Y007395D01*
X017109Y007501D02*
X017002Y007395D01*
X016789Y007395D01*
X016683Y007501D01*
X016683Y007714D01*
X016789Y007821D01*
X016896Y007821D01*
X017109Y007714D01*
X017109Y008034D01*
X016683Y008034D01*
X016438Y008034D02*
X016438Y007608D01*
X016225Y007395D01*
X016012Y007608D01*
X016012Y008034D01*
X015097Y007821D02*
X015097Y007395D01*
X015097Y007714D02*
X014671Y007714D01*
X014671Y007821D02*
X014671Y007395D01*
X014426Y007395D02*
X014426Y007821D01*
X014213Y008034D01*
X014000Y007821D01*
X014000Y007395D01*
X013755Y007395D02*
X013755Y007821D01*
X013542Y008034D01*
X013329Y007821D01*
X013329Y007395D01*
X013085Y007395D02*
X013085Y007821D01*
X012872Y008034D01*
X012659Y007821D01*
X012659Y007395D01*
X012659Y007714D02*
X013085Y007714D01*
X013329Y007714D02*
X013755Y007714D01*
X014000Y007714D02*
X014426Y007714D01*
X014671Y007821D02*
X014884Y008034D01*
X015097Y007821D01*
X015184Y004106D02*
X014971Y003893D01*
X014971Y003467D01*
X014726Y003467D02*
X014726Y003893D01*
X014514Y004106D01*
X014301Y003893D01*
X014301Y003467D01*
X014056Y003467D02*
X014056Y003893D01*
X013843Y004106D01*
X013630Y003893D01*
X013630Y003467D01*
X013385Y003467D02*
X013385Y003893D01*
X013172Y004106D01*
X012959Y003893D01*
X012959Y003467D01*
X012959Y003786D02*
X013385Y003786D01*
X013630Y003786D02*
X014056Y003786D01*
X014301Y003786D02*
X014726Y003786D01*
X014971Y003786D02*
X015397Y003786D01*
X015397Y003893D02*
X015184Y004106D01*
X015397Y003893D02*
X015397Y003467D01*
X016313Y003680D02*
X016313Y004106D01*
X016738Y004106D02*
X016738Y003680D01*
X016525Y003467D01*
X016313Y003680D01*
X016983Y003786D02*
X016983Y003573D01*
X017090Y003467D01*
X017303Y003467D01*
X017409Y003573D01*
X017638Y003573D02*
X017638Y003467D01*
X017744Y003467D01*
X017744Y003573D01*
X017638Y003573D01*
X017989Y003467D02*
X018415Y003467D01*
X018202Y003467D02*
X018202Y004106D01*
X018415Y003893D01*
X017409Y003786D02*
X017196Y003893D01*
X017090Y003893D01*
X016983Y003786D01*
X016983Y004106D02*
X017409Y004106D01*
X017409Y003786D01*
D13*
X005760Y003594D02*
X005760Y007137D01*
X003760Y007137D01*
X003760Y003594D01*
X005760Y003594D01*
D14*
X003490Y005126D02*
X003413Y005049D01*
X003336Y005049D01*
X003260Y005126D01*
X003260Y005279D01*
X003183Y005356D01*
X003106Y005356D01*
X003030Y005279D01*
X003030Y005126D01*
X003106Y005049D01*
X003490Y005126D02*
X003490Y005279D01*
X003413Y005356D01*
X003336Y005510D02*
X003490Y005663D01*
X003030Y005663D01*
X003030Y005510D02*
X003030Y005817D01*
D15*
X003961Y008377D03*
X004344Y009098D03*
X004809Y009107D03*
X005129Y009317D03*
X005247Y008560D03*
X005110Y008396D03*
X004809Y008350D03*
X004809Y008606D03*
X005895Y008569D03*
X005941Y008350D03*
X004800Y010266D03*
X004581Y010440D03*
X004399Y010285D03*
X004344Y010266D03*
X004298Y010248D03*
D16*
X005690Y008350D03*
D17*
X005521Y008350D03*
X005357Y008350D03*
X005256Y008606D03*
X005092Y008606D03*
X005001Y008779D03*
X004609Y008606D03*
X004444Y008606D03*
X004444Y008350D03*
X003961Y008806D03*
X003970Y008843D03*
X003979Y008888D03*
X004006Y009016D03*
X004015Y009044D03*
X004025Y009098D03*
X004052Y009208D03*
X004052Y009217D03*
X004061Y009235D03*
X004061Y009253D03*
X004070Y009281D03*
X003979Y009472D03*
X003970Y009509D03*
X003961Y009555D03*
X003961Y009810D03*
X003961Y009819D03*
X003961Y009837D03*
X003970Y009856D03*
X003979Y009883D03*
X003915Y009874D03*
X003915Y009856D03*
X003915Y009837D03*
X003897Y010002D03*
X003897Y010011D03*
X003879Y010139D03*
X003879Y010157D03*
X003879Y010175D03*
X003879Y010184D03*
X004271Y009637D03*
X004563Y009253D03*
X004581Y009235D03*
X004700Y009107D03*
X004992Y009217D03*
X005010Y009235D03*
X005092Y009345D03*
X005129Y009399D03*
X005138Y009409D03*
X005165Y009472D03*
X005165Y009491D03*
X005174Y009509D03*
X005174Y009518D03*
X005183Y009555D03*
X005384Y009472D03*
X005348Y009336D03*
X005293Y009126D03*
X005439Y009682D03*
X005466Y009837D03*
X005466Y009856D03*
X005466Y009874D03*
X005466Y009883D03*
X005466Y009901D03*
X005384Y010184D03*
X003468Y008523D03*
D18*
X003710Y008587D03*
X003792Y008505D03*
X003710Y008350D03*
X003956Y008779D03*
X003956Y008797D03*
X003965Y008825D03*
X003974Y008861D03*
X003974Y008870D03*
X003983Y008907D03*
X003983Y008916D03*
X004002Y008980D03*
X004011Y009034D03*
X004020Y009062D03*
X004029Y009107D03*
X004047Y009190D03*
X004066Y009272D03*
X004075Y009299D03*
X004084Y009336D03*
X004084Y009345D03*
X004093Y009363D03*
X004093Y009399D03*
X004102Y009409D03*
X004102Y009427D03*
X004111Y009445D03*
X004111Y009454D03*
X004111Y009472D03*
X004129Y009555D03*
X004139Y009573D03*
X004139Y009582D03*
X004148Y009600D03*
X004148Y009618D03*
X004157Y009637D03*
X004157Y009646D03*
X004157Y009664D03*
X004175Y009728D03*
X004175Y009746D03*
X004184Y009755D03*
X004184Y009774D03*
X004184Y009792D03*
X004230Y009792D03*
X004239Y009755D03*
X004239Y009746D03*
X004239Y009728D03*
X004257Y009664D03*
X004266Y009646D03*
X004275Y009618D03*
X004285Y009600D03*
X004303Y009573D03*
X004312Y009555D03*
X004358Y009491D03*
X004522Y009299D03*
X004540Y009281D03*
X004604Y009208D03*
X004622Y009190D03*
X004659Y009144D03*
X004677Y009126D03*
X004704Y009098D03*
X004741Y009062D03*
X004759Y009044D03*
X004787Y009016D03*
X004823Y008971D03*
X004841Y008952D03*
X004859Y008934D03*
X004878Y008916D03*
X004887Y008907D03*
X004905Y008888D03*
X004923Y008870D03*
X004923Y008861D03*
X004960Y008825D03*
X004978Y008806D03*
X004987Y008797D03*
X005033Y008742D03*
X005097Y008350D03*
X005261Y008350D03*
X004613Y008350D03*
X004987Y009208D03*
X005142Y009427D03*
X005152Y009445D03*
X005288Y009427D03*
X005307Y009445D03*
X005316Y009454D03*
X005343Y009491D03*
X005389Y009491D03*
X005361Y009399D03*
X005352Y009363D03*
X005352Y009345D03*
X005343Y009317D03*
X005334Y009299D03*
X005334Y009281D03*
X005334Y009272D03*
X005316Y009217D03*
X005316Y009208D03*
X005307Y009190D03*
X005307Y009171D03*
X005298Y009162D03*
X005298Y009144D03*
X005425Y009637D03*
X005425Y009646D03*
X005434Y009664D03*
X005444Y009701D03*
X005444Y009710D03*
X005453Y009728D03*
X005453Y009746D03*
X005453Y009755D03*
X005462Y009774D03*
X005462Y009792D03*
X005462Y009810D03*
X005462Y009819D03*
X005380Y009856D03*
X005380Y009874D03*
X005380Y009883D03*
X005380Y009901D03*
X005361Y009965D03*
X005343Y009983D03*
X005444Y010029D03*
X005444Y010047D03*
X005434Y010056D03*
X005425Y010093D03*
X005407Y010139D03*
X005398Y010157D03*
X005389Y010175D03*
X005361Y010221D03*
X005352Y010239D03*
X005343Y010248D03*
X005042Y010093D03*
X005006Y010139D03*
X005097Y009983D03*
X005097Y009965D03*
X005097Y009947D03*
X005097Y009938D03*
X005097Y009883D03*
X005097Y009874D03*
X005097Y009856D03*
X005097Y009837D03*
X005097Y009819D03*
X005097Y009810D03*
X005097Y009792D03*
X004887Y009792D03*
X004887Y009810D03*
X004887Y009819D03*
X004887Y009837D03*
X004887Y009856D03*
X004887Y009874D03*
X004887Y009883D03*
X004887Y009901D03*
X004887Y009938D03*
X004887Y009947D03*
X004887Y009965D03*
X004887Y009983D03*
X004887Y010002D03*
X004787Y009856D03*
X004887Y009774D03*
X005361Y009810D03*
X005462Y009938D03*
X005462Y009947D03*
X005462Y009965D03*
X005453Y010002D03*
X005453Y010011D03*
X004321Y010202D03*
X004303Y010175D03*
X004285Y010139D03*
X004275Y010120D03*
X004275Y010111D03*
X004266Y010093D03*
X004239Y010011D03*
X004239Y010002D03*
X004230Y009965D03*
X004093Y010093D03*
X004066Y010056D03*
X004056Y010047D03*
X004029Y010011D03*
X004029Y010002D03*
X004020Y009983D03*
X004011Y009965D03*
X004002Y009947D03*
X003983Y009901D03*
X003974Y009874D03*
X003938Y009710D03*
X003938Y009701D03*
X003938Y009682D03*
X003965Y009518D03*
X003974Y009491D03*
X004002Y009427D03*
X004011Y009409D03*
X004011Y009399D03*
X005854Y008441D03*
D19*
X005945Y008587D03*
X005471Y008460D03*
X004275Y008350D03*
X003399Y008350D03*
X004695Y009272D03*
X005042Y009901D03*
X004695Y010476D03*
D20*
X004335Y010221D03*
X004307Y010184D03*
X004189Y010184D03*
X004152Y010157D03*
X004134Y010139D03*
X004116Y010120D03*
X004107Y010111D03*
X004234Y009983D03*
X004225Y009947D03*
X004225Y009938D03*
X004234Y009774D03*
X004435Y009792D03*
X004481Y009837D03*
X004499Y009856D03*
X004517Y009874D03*
X004526Y009883D03*
X004545Y009901D03*
X004581Y009938D03*
X004590Y009947D03*
X004627Y009983D03*
X004727Y009983D03*
X004727Y009938D03*
X004773Y009901D03*
X004800Y009874D03*
X004773Y009837D03*
X004755Y009819D03*
X004745Y009810D03*
X004727Y009792D03*
X004718Y009774D03*
X004390Y009454D03*
X004371Y009472D03*
X004344Y009509D03*
X004134Y009235D03*
X004152Y009217D03*
X004161Y009208D03*
X004180Y009190D03*
X004216Y009162D03*
X004444Y008587D03*
X004444Y008569D03*
X004444Y008560D03*
X004444Y008523D03*
X004444Y008441D03*
X004444Y008432D03*
X004444Y008414D03*
X004444Y008396D03*
X004444Y008377D03*
X004444Y008368D03*
X004609Y008368D03*
X004709Y008460D03*
X004709Y008478D03*
X004709Y008496D03*
X004609Y008587D03*
X005092Y008587D03*
X005092Y008569D03*
X005092Y008560D03*
X005092Y008523D03*
X005092Y008505D03*
X005092Y008496D03*
X005092Y008478D03*
X005092Y008460D03*
X005092Y008441D03*
X005266Y008368D03*
X005521Y008368D03*
X005521Y008377D03*
X005521Y008396D03*
X005521Y008414D03*
X005521Y008432D03*
X005521Y008441D03*
X005521Y008505D03*
X005521Y008523D03*
X005521Y008560D03*
X005859Y008523D03*
X005859Y008432D03*
X006032Y008432D03*
X004964Y009190D03*
X004928Y009162D03*
X004901Y009144D03*
X005256Y009399D03*
X005266Y009409D03*
X005393Y009555D03*
X005402Y009573D03*
X005402Y009582D03*
X005412Y009600D03*
X005348Y009792D03*
X005366Y009819D03*
X005183Y009774D03*
X005092Y009774D03*
X005092Y010002D03*
X005183Y010002D03*
X005311Y010002D03*
X005329Y010266D03*
X005311Y010285D03*
X005302Y010294D03*
X005238Y010358D03*
X005028Y010111D03*
X004964Y010175D03*
X003942Y009746D03*
X003942Y009728D03*
X003869Y008587D03*
X003879Y008560D03*
X003897Y008505D03*
X003915Y008460D03*
X003924Y008441D03*
X003924Y008432D03*
X003933Y008414D03*
X003988Y008414D03*
X003997Y008441D03*
X004015Y008496D03*
X004025Y008523D03*
X003961Y008350D03*
X003714Y008368D03*
X003349Y008496D03*
X003340Y008523D03*
D21*
X003564Y008350D03*
X003947Y008742D03*
X003947Y008761D03*
X003993Y008952D03*
X004038Y009144D03*
X004120Y009253D03*
X003993Y009445D03*
X004120Y009491D03*
X004120Y009509D03*
X004120Y009518D03*
X004166Y009682D03*
X004166Y009701D03*
X004166Y009710D03*
X004248Y009710D03*
X004248Y009701D03*
X004294Y009582D03*
X004339Y009518D03*
X004549Y009272D03*
X004595Y009217D03*
X004768Y009034D03*
X004814Y008980D03*
X004942Y008843D03*
X004942Y009171D03*
X005325Y009235D03*
X005325Y009253D03*
X005371Y009427D03*
X005325Y009472D03*
X005416Y009618D03*
X005197Y009637D03*
X005197Y009646D03*
X005371Y009837D03*
X005371Y009938D03*
X005371Y009947D03*
X005416Y010111D03*
X005416Y010120D03*
X005371Y010202D03*
X005024Y010120D03*
X004723Y009965D03*
X004723Y009947D03*
X004294Y010157D03*
X004248Y010047D03*
X004038Y010029D03*
X003947Y009637D03*
X003947Y009618D03*
D22*
X004805Y008359D03*
X005945Y008359D03*
D23*
X005685Y008359D03*
X005694Y008578D03*
D24*
X005859Y008533D03*
X005859Y008423D03*
X006032Y008514D03*
X005521Y008514D03*
X005521Y008533D03*
X005521Y008551D03*
X005521Y008450D03*
X005521Y008423D03*
X005521Y008405D03*
X005521Y008359D03*
X005357Y008359D03*
X005256Y008596D03*
X005092Y008596D03*
X005092Y008578D03*
X005092Y008551D03*
X005092Y008533D03*
X005092Y008514D03*
X005092Y008487D03*
X005092Y008450D03*
X004709Y008487D03*
X004609Y008596D03*
X004444Y008596D03*
X004444Y008578D03*
X004444Y008551D03*
X004444Y008533D03*
X004444Y008514D03*
X004444Y008450D03*
X004444Y008423D03*
X004444Y008405D03*
X004444Y008359D03*
X004609Y008359D03*
X004335Y008596D03*
X003988Y008423D03*
X003924Y008423D03*
X003915Y008450D03*
X003897Y008514D03*
X003888Y008533D03*
X003869Y008596D03*
X003787Y008514D03*
X003568Y008359D03*
X003468Y008533D03*
X003459Y008551D03*
X003340Y008551D03*
X003340Y008533D03*
X003340Y008514D03*
X004125Y009244D03*
X004171Y009199D03*
X004362Y009482D03*
X004307Y009564D03*
X004289Y009591D03*
X004727Y009783D03*
X004736Y009801D03*
X004764Y009828D03*
X004791Y009865D03*
X004727Y009974D03*
X004599Y009956D03*
X004572Y009929D03*
X004554Y009910D03*
X004536Y009892D03*
X004472Y009828D03*
X004225Y009929D03*
X004234Y009974D03*
X004098Y010102D03*
X004125Y010129D03*
X004070Y010066D03*
X004298Y010166D03*
X004317Y010193D03*
X004326Y010212D03*
X004417Y010321D03*
X004974Y010166D03*
X005320Y010275D03*
X005339Y010257D03*
X005357Y009801D03*
X005421Y009628D03*
X005412Y009591D03*
X005247Y009390D03*
X004974Y009199D03*
X004955Y009180D03*
X003942Y009719D03*
X003942Y009737D03*
D25*
X003956Y009564D03*
X004002Y009418D03*
X004020Y009390D03*
X004029Y009372D03*
X004084Y009354D03*
X004093Y009372D03*
X004093Y009390D03*
X004102Y009418D03*
X004102Y009436D03*
X004129Y009527D03*
X004129Y009545D03*
X004139Y009564D03*
X004139Y009591D03*
X004148Y009628D03*
X004157Y009655D03*
X004157Y009673D03*
X004175Y009719D03*
X004175Y009737D03*
X004184Y009783D03*
X004230Y009783D03*
X004239Y009737D03*
X004257Y009673D03*
X004275Y009628D03*
X004321Y009545D03*
X004330Y009527D03*
X004348Y009500D03*
X004531Y009290D03*
X004558Y009263D03*
X004613Y009199D03*
X004668Y009135D03*
X004686Y009117D03*
X004714Y009089D03*
X004732Y009071D03*
X004750Y009053D03*
X004777Y009025D03*
X004796Y009007D03*
X004832Y008961D03*
X004850Y008943D03*
X004914Y008879D03*
X004951Y008834D03*
X004969Y008815D03*
X004777Y009089D03*
X005124Y009390D03*
X005279Y009418D03*
X005298Y009436D03*
X005334Y009482D03*
X005361Y009390D03*
X005361Y009372D03*
X005352Y009354D03*
X005343Y009326D03*
X005334Y009290D03*
X005307Y009199D03*
X005307Y009180D03*
X005298Y009135D03*
X005188Y009564D03*
X005097Y009783D03*
X005097Y009801D03*
X005097Y009828D03*
X005097Y009865D03*
X005097Y009910D03*
X005097Y009929D03*
X005097Y009956D03*
X005097Y009974D03*
X005051Y010084D03*
X005033Y010102D03*
X005015Y010129D03*
X004887Y009974D03*
X004887Y009956D03*
X004887Y009929D03*
X004887Y009910D03*
X004887Y009865D03*
X004887Y009828D03*
X004887Y009801D03*
X004887Y009783D03*
X004750Y009910D03*
X004732Y009929D03*
X004431Y009783D03*
X004230Y009956D03*
X004239Y010020D03*
X004257Y010066D03*
X004257Y010084D03*
X004266Y010102D03*
X004275Y010129D03*
X004084Y010084D03*
X004047Y010038D03*
X004011Y009974D03*
X004002Y009956D03*
X003983Y009910D03*
X004084Y009326D03*
X004075Y009290D03*
X004066Y009263D03*
X004047Y009180D03*
X004020Y009071D03*
X004011Y009025D03*
X004002Y008989D03*
X003983Y008898D03*
X003974Y008879D03*
X003965Y008834D03*
X003965Y008815D03*
X003956Y008788D03*
X004047Y008596D03*
X003710Y008596D03*
X003710Y008359D03*
X005261Y008359D03*
X005434Y009655D03*
X005434Y009673D03*
X005453Y009737D03*
X005462Y009783D03*
X005462Y009801D03*
X005462Y009828D03*
X005380Y009865D03*
X005380Y009892D03*
X005380Y009910D03*
X005380Y009929D03*
X005361Y009956D03*
X005352Y009974D03*
X005462Y009974D03*
X005462Y009956D03*
X005462Y009929D03*
X005453Y010020D03*
X005444Y010038D03*
X005434Y010066D03*
X005425Y010084D03*
X005425Y010102D03*
X005407Y010129D03*
X005398Y010166D03*
X005380Y010193D03*
D26*
X005261Y010339D03*
X005225Y010367D03*
X004914Y010212D03*
X004622Y009974D03*
X004440Y009801D03*
X004221Y009892D03*
X004221Y009910D03*
X003938Y009783D03*
X004403Y009436D03*
X004193Y009180D03*
X004257Y009135D03*
X004887Y009135D03*
X005225Y009372D03*
X005389Y009545D03*
X005398Y009564D03*
X005334Y009783D03*
X004440Y010339D03*
X004230Y010212D03*
X004047Y008578D03*
X004029Y008533D03*
X004020Y008514D03*
X004011Y008487D03*
X004002Y008450D03*
X003883Y008551D03*
X003874Y008578D03*
X003710Y008578D03*
X003710Y008514D03*
X003710Y008487D03*
X003710Y008450D03*
X003710Y008423D03*
X003710Y008405D03*
X003445Y008405D03*
X003427Y008423D03*
X003354Y008487D03*
X004613Y008514D03*
X004613Y008533D03*
X004613Y008551D03*
X004613Y008578D03*
X004714Y008514D03*
X004714Y008450D03*
X004613Y008450D03*
X004613Y008423D03*
X004613Y008405D03*
X004887Y008405D03*
X004905Y008450D03*
X004905Y008487D03*
X004905Y008514D03*
X004887Y008551D03*
X005097Y008359D03*
X005188Y008487D03*
X005261Y008487D03*
X005261Y008450D03*
X005261Y008423D03*
X005261Y008405D03*
X005380Y008405D03*
X005361Y008533D03*
X006028Y008533D03*
X006037Y008487D03*
X006037Y008450D03*
X006028Y008423D03*
D27*
X005941Y008578D03*
X005457Y008596D03*
X004809Y008578D03*
X004271Y008359D03*
X003395Y008359D03*
X004572Y010321D03*
D28*
X004490Y010385D03*
X005174Y010403D03*
X005384Y009527D03*
X004453Y009390D03*
X003961Y008359D03*
X005393Y008423D03*
X005868Y008405D03*
X005868Y008551D03*
D29*
X005941Y008368D03*
X004809Y008368D03*
X004809Y008587D03*
D30*
X005685Y008587D03*
X005685Y008368D03*
D31*
X005863Y008414D03*
X006009Y008396D03*
X006028Y008414D03*
X006037Y008441D03*
X006037Y008460D03*
X006037Y008478D03*
X006037Y008496D03*
X006037Y008505D03*
X006028Y008523D03*
X005517Y008496D03*
X005398Y008432D03*
X005361Y008368D03*
X005261Y008377D03*
X005261Y008396D03*
X005261Y008414D03*
X005261Y008432D03*
X005261Y008441D03*
X005261Y008460D03*
X005261Y008478D03*
X005261Y008496D03*
X005261Y008505D03*
X005188Y008496D03*
X005179Y008478D03*
X005170Y008460D03*
X005361Y008523D03*
X004905Y008523D03*
X004905Y008505D03*
X004905Y008496D03*
X004905Y008478D03*
X004905Y008460D03*
X004905Y008441D03*
X004905Y008432D03*
X004714Y008432D03*
X004714Y008441D03*
X004714Y008505D03*
X004714Y008523D03*
X004613Y008523D03*
X004613Y008560D03*
X004613Y008569D03*
X004613Y008460D03*
X004613Y008441D03*
X004613Y008432D03*
X004613Y008414D03*
X004613Y008396D03*
X004613Y008377D03*
X004449Y008460D03*
X004449Y008505D03*
X004047Y008587D03*
X004020Y008505D03*
X004011Y008478D03*
X004002Y008460D03*
X003892Y008523D03*
X003874Y008569D03*
X003710Y008523D03*
X003710Y008505D03*
X003710Y008496D03*
X003710Y008478D03*
X003710Y008460D03*
X003710Y008441D03*
X003710Y008432D03*
X003710Y008414D03*
X003710Y008396D03*
X003710Y008377D03*
X003454Y008396D03*
X003418Y008432D03*
X003454Y008560D03*
X003399Y008606D03*
X004239Y009144D03*
X004275Y009126D03*
X004440Y009399D03*
X004431Y009409D03*
X004412Y009427D03*
X004394Y009445D03*
X003938Y009755D03*
X003938Y009774D03*
X003938Y009792D03*
X004221Y009874D03*
X004221Y009883D03*
X004221Y009901D03*
X004175Y010175D03*
X004431Y010330D03*
X004449Y010348D03*
X004458Y010358D03*
X004750Y010002D03*
X004923Y010202D03*
X004951Y010184D03*
X005252Y010348D03*
X005270Y010330D03*
X005188Y010394D03*
X005316Y009774D03*
D32*
X005211Y009363D03*
X005183Y009345D03*
X004618Y009965D03*
X004444Y009810D03*
X004280Y010239D03*
X003714Y008569D03*
X003450Y008569D03*
X003358Y008569D03*
X003367Y008478D03*
X003404Y008441D03*
X003961Y008368D03*
X004609Y008505D03*
X004736Y008396D03*
X004882Y008396D03*
X005101Y008368D03*
X005256Y008587D03*
X005402Y008441D03*
X005384Y008414D03*
X005941Y008606D03*
X006005Y008560D03*
D33*
X005941Y008377D03*
X005457Y008478D03*
X004809Y008377D03*
X004271Y008368D03*
X003404Y008377D03*
D34*
X003436Y008414D03*
X003345Y008505D03*
X003345Y008560D03*
X003564Y008377D03*
X003564Y008368D03*
X003901Y008496D03*
X003993Y008432D03*
X004038Y008560D03*
X004038Y008569D03*
X004339Y008569D03*
X004339Y008560D03*
X004339Y008587D03*
X004339Y008523D03*
X004339Y008505D03*
X004339Y008496D03*
X004339Y008478D03*
X004339Y008460D03*
X004339Y008441D03*
X004339Y008432D03*
X004339Y008414D03*
X004339Y008396D03*
X004723Y008414D03*
X004896Y008414D03*
X005152Y008441D03*
X005197Y008505D03*
X005763Y008505D03*
X005763Y008523D03*
X005763Y008560D03*
X005763Y008460D03*
X005763Y008441D03*
X005763Y008432D03*
X005763Y008414D03*
X005763Y008396D03*
X004202Y009171D03*
X004814Y009883D03*
X004896Y010221D03*
X005288Y010312D03*
X004212Y010202D03*
D35*
X004850Y009235D03*
X005453Y008587D03*
X005699Y008569D03*
X005699Y008496D03*
X005699Y008478D03*
X003399Y008368D03*
D36*
X005444Y008569D03*
X005690Y008377D03*
D37*
X005877Y008396D03*
X005877Y008560D03*
X005375Y008560D03*
X005375Y008505D03*
X005375Y008396D03*
X005366Y008377D03*
X004864Y009126D03*
X005165Y009336D03*
X005375Y009509D03*
X005375Y009518D03*
X004864Y010239D03*
X004846Y010248D03*
X005156Y010412D03*
X004244Y010221D03*
X004216Y009856D03*
X004216Y009837D03*
X003778Y008523D03*
X003386Y008460D03*
D38*
X004212Y009810D03*
X004212Y009819D03*
X004987Y010002D03*
X005252Y009755D03*
X005142Y010421D03*
X005106Y010440D03*
X004549Y010421D03*
X004504Y010394D03*
X005252Y008569D03*
X005106Y008377D03*
D39*
X004275Y008377D03*
D40*
X005996Y008387D03*
D41*
X005891Y008387D03*
X005106Y008387D03*
D42*
X005699Y008387D03*
X005699Y008469D03*
D43*
X005521Y008387D03*
X005092Y008469D03*
X004709Y008469D03*
X004444Y008387D03*
X004006Y008469D03*
X003915Y008469D03*
X004143Y009226D03*
X004280Y009609D03*
X004234Y009764D03*
X004490Y009847D03*
X004709Y009764D03*
X004782Y009847D03*
X004736Y009993D03*
X004992Y010148D03*
X005329Y009993D03*
X005402Y010148D03*
X005357Y010230D03*
X004143Y010148D03*
D44*
X004339Y008469D03*
X005371Y008387D03*
D45*
X005261Y008387D03*
X005261Y008469D03*
X005170Y008469D03*
X004905Y008469D03*
X004613Y008387D03*
X003710Y008387D03*
X003710Y008469D03*
X004230Y009153D03*
X003938Y009764D03*
X004914Y009153D03*
X006037Y008469D03*
X005298Y010303D03*
D46*
X004864Y008387D03*
X004755Y008387D03*
X003961Y008387D03*
D47*
X004280Y008387D03*
D48*
X003564Y008387D03*
X004038Y009153D03*
X004166Y009691D03*
X004248Y009691D03*
X005325Y009463D03*
X005416Y009609D03*
D49*
X003404Y008387D03*
D50*
X003956Y008396D03*
X004759Y008569D03*
X004860Y008569D03*
X005115Y008414D03*
X005398Y008496D03*
X005991Y008569D03*
X004604Y009299D03*
X004504Y009345D03*
X004996Y009774D03*
D51*
X004942Y010193D03*
X005279Y010321D03*
X004467Y010367D03*
X004202Y010193D03*
X004166Y010166D03*
X004421Y009418D03*
X005197Y009354D03*
X005371Y008551D03*
X005371Y008514D03*
X005161Y008450D03*
X004896Y008423D03*
X004896Y008533D03*
X004723Y008533D03*
X004339Y008533D03*
X004339Y008551D03*
X004339Y008578D03*
X004339Y008514D03*
X004339Y008487D03*
X004339Y008450D03*
X004339Y008423D03*
X004339Y008405D03*
X004038Y008551D03*
X005763Y008551D03*
X005763Y008533D03*
X005763Y008514D03*
X005763Y008450D03*
X005763Y008423D03*
X005763Y008405D03*
X006018Y008405D03*
X006018Y008551D03*
D52*
X005243Y008551D03*
X005115Y008405D03*
X004494Y009354D03*
X003728Y008551D03*
X003399Y008596D03*
X004777Y010275D03*
X004604Y010449D03*
X005088Y010449D03*
D53*
X005202Y010385D03*
X004517Y010403D03*
X004216Y009865D03*
X003942Y009801D03*
X004472Y009372D03*
X004289Y009117D03*
X004846Y009117D03*
X004727Y008551D03*
X004718Y008423D03*
X004727Y008405D03*
X005412Y008450D03*
X003395Y008450D03*
D54*
X003961Y008405D03*
X004371Y009089D03*
X004627Y009290D03*
X005238Y008533D03*
X005120Y008423D03*
D55*
X005124Y008432D03*
X004750Y010285D03*
X004440Y010294D03*
D56*
X003468Y008514D03*
X005859Y008450D03*
D57*
X005466Y008469D03*
D58*
X004531Y008469D03*
D59*
X003377Y008469D03*
X004262Y010230D03*
X004882Y010230D03*
D60*
X004531Y008496D03*
X004531Y008478D03*
D61*
X003906Y008478D03*
X004983Y010157D03*
D62*
X005699Y008487D03*
D63*
X005448Y008487D03*
X005448Y008578D03*
D64*
X004531Y008487D03*
D65*
X003906Y008487D03*
X004508Y009865D03*
D66*
X004262Y009655D03*
X003979Y009482D03*
X003970Y009500D03*
X003961Y009527D03*
X003961Y009545D03*
X003961Y009828D03*
X003970Y009865D03*
X003979Y009892D03*
X003915Y009865D03*
X003915Y009828D03*
X003897Y010020D03*
X003888Y010084D03*
X003879Y010166D03*
X003879Y010193D03*
X004061Y009244D03*
X004052Y009199D03*
X004025Y009089D03*
X004015Y009053D03*
X004006Y009007D03*
X004572Y009244D03*
X004627Y009180D03*
X005101Y009354D03*
X005138Y009418D03*
X005147Y009436D03*
X005165Y009482D03*
X005174Y009500D03*
X005183Y009527D03*
X005183Y009545D03*
X005384Y009482D03*
X005448Y009719D03*
X005466Y009865D03*
X005466Y009892D03*
X005466Y009910D03*
X004992Y008788D03*
X005859Y008514D03*
D67*
X005234Y008514D03*
X005060Y009290D03*
X005033Y010467D03*
D68*
X005033Y009281D03*
X005234Y008523D03*
D69*
X005941Y008596D03*
X003742Y008533D03*
D70*
X004463Y009381D03*
X006023Y008542D03*
D71*
X005863Y008542D03*
X005361Y008542D03*
X004613Y008542D03*
X004029Y008542D03*
X005234Y009381D03*
X005389Y009536D03*
X005215Y010376D03*
D72*
X004896Y008542D03*
X004723Y008542D03*
X004339Y008542D03*
X005763Y008542D03*
D73*
X005521Y008542D03*
X005092Y008542D03*
X004444Y008542D03*
X003888Y008542D03*
X003468Y008542D03*
X003340Y008542D03*
X004225Y009920D03*
X004563Y009920D03*
D74*
X005060Y010458D03*
X005243Y008542D03*
D75*
X003733Y008542D03*
X004627Y010458D03*
D76*
X004531Y010412D03*
X004449Y009819D03*
X004485Y009363D03*
X004321Y009107D03*
X004787Y009098D03*
X004741Y008560D03*
X004878Y008560D03*
X003719Y008560D03*
D77*
X005252Y008578D03*
X005371Y009500D03*
X005243Y010020D03*
X005124Y010431D03*
X004212Y009828D03*
X004212Y009801D03*
D78*
X003399Y008578D03*
D79*
X003399Y008587D03*
D80*
X005690Y008596D03*
D81*
X004809Y008596D03*
D82*
X005685Y008606D03*
X004992Y009272D03*
X004709Y010294D03*
X005001Y010476D03*
D83*
X005083Y009299D03*
X004517Y009336D03*
X005466Y008606D03*
D84*
X005019Y008761D03*
X004645Y009162D03*
X004636Y009171D03*
X005110Y009363D03*
X005156Y009454D03*
X005193Y009573D03*
X005193Y009582D03*
X005193Y009600D03*
X005193Y009618D03*
X005202Y009664D03*
X005202Y009682D03*
X005375Y009454D03*
X005375Y009445D03*
X005366Y009409D03*
X005457Y009983D03*
X004636Y010002D03*
X004426Y009774D03*
X004253Y009682D03*
X003988Y009454D03*
X004034Y009363D03*
X004079Y009317D03*
X004043Y009171D03*
X004043Y009162D03*
X004034Y009126D03*
X003997Y008971D03*
X003988Y008934D03*
X004043Y008606D03*
X003869Y008606D03*
X004335Y008606D03*
X003952Y009573D03*
X003952Y009582D03*
X003952Y009600D03*
X003942Y009646D03*
X003942Y009664D03*
X003906Y009901D03*
X003906Y009938D03*
X003906Y009947D03*
X003997Y009938D03*
X004244Y010029D03*
X004253Y010056D03*
X003869Y010221D03*
X003869Y010239D03*
X003869Y010248D03*
X003869Y010266D03*
X003860Y010285D03*
X003860Y010294D03*
X003860Y010312D03*
X003860Y010330D03*
D85*
X004043Y009336D03*
X003705Y008606D03*
X005165Y009983D03*
D86*
X005371Y009828D03*
X005197Y009655D03*
X005197Y009628D03*
X005325Y009263D03*
X005325Y009244D03*
X004896Y008898D03*
X004814Y008989D03*
X005024Y008752D03*
X003993Y008943D03*
X003947Y008752D03*
X003993Y009436D03*
X004120Y009482D03*
X004120Y009500D03*
X003947Y009628D03*
X003993Y009929D03*
X004038Y010020D03*
X004723Y009956D03*
X005371Y010212D03*
D87*
X005174Y009993D03*
X005466Y009847D03*
X005001Y009226D03*
X004654Y009153D03*
X005010Y008770D03*
X003970Y008852D03*
X003915Y009847D03*
X003879Y010148D03*
D88*
X003869Y010230D03*
X003860Y010303D03*
X004344Y010230D03*
X005202Y009691D03*
X005193Y009609D03*
X005156Y009463D03*
X005457Y009764D03*
X003988Y008925D03*
X003952Y008770D03*
X003952Y009609D03*
D89*
X003938Y009691D03*
X003965Y009847D03*
X004020Y009993D03*
X004239Y009993D03*
X004285Y010148D03*
X004631Y009993D03*
X004887Y009993D03*
X004887Y009847D03*
X004887Y009764D03*
X005097Y009847D03*
X005097Y009993D03*
X005380Y009847D03*
X005453Y009993D03*
X005444Y009691D03*
X005380Y009463D03*
X005343Y009308D03*
X005316Y009226D03*
X005298Y009153D03*
X004933Y008852D03*
X004869Y008925D03*
X004586Y009226D03*
X004513Y009308D03*
X004111Y009463D03*
X003983Y009463D03*
X004075Y009308D03*
X004056Y009226D03*
X004148Y009609D03*
X004184Y009764D03*
D90*
X004244Y009719D03*
X003942Y009673D03*
X003942Y009655D03*
X003952Y009591D03*
X004034Y009354D03*
X004116Y009263D03*
X004034Y009135D03*
X004034Y009117D03*
X003997Y008961D03*
X005110Y009372D03*
X005193Y009591D03*
X005202Y009673D03*
X005375Y009436D03*
X005366Y009418D03*
X004244Y010038D03*
X003906Y009929D03*
X003906Y009910D03*
X003869Y010212D03*
X003869Y010257D03*
X003860Y010321D03*
X003860Y010339D03*
D91*
X004257Y010075D03*
X004741Y009920D03*
X004887Y009920D03*
X005097Y009920D03*
X005060Y010075D03*
X005380Y009920D03*
X005462Y009920D03*
X005434Y010075D03*
X005361Y009381D03*
X004805Y008998D03*
X004321Y009536D03*
X004129Y009536D03*
X004093Y009381D03*
X004020Y009381D03*
X004002Y008998D03*
D92*
X004563Y009053D03*
D93*
X004554Y009062D03*
D94*
X004531Y009071D03*
D95*
X004723Y009080D03*
D96*
X004663Y009080D03*
X004025Y009080D03*
X003961Y009536D03*
X003888Y010075D03*
X005183Y009536D03*
D97*
X004412Y009080D03*
D98*
X005024Y009244D03*
X004640Y009783D03*
X004640Y009801D03*
X004640Y009828D03*
X004640Y009865D03*
X004640Y009892D03*
X004640Y009910D03*
X004640Y009929D03*
X004640Y009956D03*
X004421Y009956D03*
X004421Y009974D03*
X004421Y009929D03*
X004421Y009910D03*
X004421Y009892D03*
X004421Y009865D03*
X004421Y009828D03*
X003910Y009892D03*
X003901Y009956D03*
X003901Y009974D03*
X003865Y010275D03*
X005060Y010066D03*
D99*
X004841Y009244D03*
D100*
X004837Y009253D03*
D101*
X004837Y009263D03*
D102*
X005079Y009336D03*
X005197Y009701D03*
X005060Y010056D03*
X004640Y010011D03*
X004640Y009947D03*
X004640Y009938D03*
X004640Y009901D03*
X004640Y009883D03*
X004640Y009874D03*
X004640Y009856D03*
X004640Y009837D03*
X004640Y009819D03*
X004640Y009810D03*
X004640Y009792D03*
X004640Y009774D03*
X004421Y009837D03*
X004421Y009856D03*
X004421Y009874D03*
X004421Y009883D03*
X004421Y009901D03*
X004421Y009938D03*
X004421Y009947D03*
X004421Y009965D03*
X004421Y009983D03*
X004421Y010002D03*
X004421Y010011D03*
X003901Y009983D03*
X003901Y009965D03*
X003910Y009883D03*
X003874Y010202D03*
X003856Y010348D03*
X004038Y009345D03*
X004111Y009272D03*
D103*
X004545Y009317D03*
X004654Y009281D03*
D104*
X004586Y009308D03*
X005106Y009308D03*
D105*
X005147Y009326D03*
X004828Y010257D03*
X004563Y010431D03*
X004371Y010275D03*
X004326Y010257D03*
D106*
X004531Y009326D03*
D107*
X005120Y009381D03*
X003988Y009920D03*
X003906Y009920D03*
D108*
X004380Y009463D03*
D109*
X005252Y009764D03*
D110*
X005033Y009764D03*
D111*
X004640Y009764D03*
X004640Y009847D03*
X004421Y009847D03*
X004421Y009764D03*
X004421Y009993D03*
X003901Y009993D03*
D112*
X003892Y010038D03*
X003892Y010066D03*
X003883Y010102D03*
X003883Y010129D03*
X005170Y009783D03*
D113*
X004358Y010239D03*
X004394Y010312D03*
X003883Y010120D03*
X003883Y010111D03*
X003883Y010093D03*
X003892Y010056D03*
X003892Y010047D03*
X003892Y010029D03*
X003920Y009819D03*
X003920Y009810D03*
D114*
X004216Y009847D03*
D115*
X005037Y009892D03*
D116*
X004837Y009892D03*
D117*
X004640Y009920D03*
X004421Y009920D03*
D118*
X005243Y010011D03*
D119*
X005033Y010011D03*
X004823Y010011D03*
D120*
X004079Y010075D03*
D121*
X004586Y010303D03*
D122*
X004581Y010312D03*
D123*
X004481Y010376D03*
D124*
X004654Y010467D03*
D125*
X004371Y010485D03*
D126*
X004353Y010494D03*
D127*
X004339Y010504D03*
D128*
X004307Y010513D03*
D129*
X003783Y001470D02*
X003783Y001230D01*
X004100Y001198D01*
X004134Y001091D01*
X004186Y000991D01*
X003984Y000744D01*
X004154Y000574D01*
X004401Y000776D01*
X004501Y000725D01*
X004642Y001066D01*
X004586Y001096D01*
X004538Y001137D01*
X004499Y001186D01*
X004104Y001186D01*
X004122Y001128D02*
X004548Y001128D01*
X004499Y001186D02*
X004471Y001243D01*
X004455Y001304D01*
X004452Y001367D01*
X004462Y001430D01*
X004485Y001489D01*
X004519Y001542D01*
X004563Y001587D01*
X004616Y001622D01*
X004674Y001646D01*
X004737Y001657D01*
X004800Y001655D01*
X004861Y001640D01*
X004918Y001613D01*
X004969Y001575D01*
X005010Y001528D01*
X005041Y001473D01*
X005061Y001413D01*
X005067Y001350D01*
X005061Y001290D01*
X005044Y001232D01*
X005015Y001179D01*
X004977Y001132D01*
X004930Y001094D01*
X004877Y001066D01*
X005018Y000725D01*
X005118Y000776D01*
X005365Y000574D01*
X005535Y000744D01*
X005333Y000991D01*
X005385Y001091D01*
X005419Y001198D01*
X005736Y001230D01*
X005736Y001470D01*
X005419Y001502D01*
X005385Y001609D01*
X005333Y001709D01*
X005535Y001956D01*
X005365Y002126D01*
X005118Y001924D01*
X005018Y001975D01*
X004912Y002009D01*
X004879Y002327D01*
X004640Y002327D01*
X004607Y002009D01*
X004501Y001975D01*
X004401Y001924D01*
X004154Y002126D01*
X003984Y001956D01*
X004186Y001709D01*
X004134Y001609D01*
X004100Y001502D01*
X003783Y001470D01*
X003820Y001474D02*
X004479Y001474D01*
X004460Y001416D02*
X003783Y001416D01*
X003783Y001359D02*
X004453Y001359D01*
X004456Y001301D02*
X003783Y001301D01*
X003783Y001244D02*
X004471Y001244D01*
X004632Y001071D02*
X004145Y001071D01*
X004174Y001013D02*
X004620Y001013D01*
X004596Y000956D02*
X004157Y000956D01*
X004110Y000898D02*
X004572Y000898D01*
X004549Y000841D02*
X004063Y000841D01*
X004016Y000783D02*
X004525Y000783D01*
X004501Y000726D02*
X004499Y000726D01*
X004339Y000726D02*
X004002Y000726D01*
X004060Y000668D02*
X004268Y000668D01*
X004198Y000610D02*
X004117Y000610D01*
X004923Y000956D02*
X005362Y000956D01*
X005345Y001013D02*
X004899Y001013D01*
X004887Y001071D02*
X005374Y001071D01*
X005397Y001128D02*
X004972Y001128D01*
X005019Y001186D02*
X005415Y001186D01*
X005736Y001244D02*
X005047Y001244D01*
X005062Y001301D02*
X005736Y001301D01*
X005736Y001359D02*
X005066Y001359D01*
X005060Y001416D02*
X005736Y001416D01*
X005699Y001474D02*
X005041Y001474D01*
X005007Y001531D02*
X005410Y001531D01*
X005391Y001589D02*
X004951Y001589D01*
X004835Y001646D02*
X005365Y001646D01*
X005336Y001704D02*
X004183Y001704D01*
X004154Y001646D02*
X004679Y001646D01*
X004566Y001589D02*
X004128Y001589D01*
X004110Y001531D02*
X004512Y001531D01*
X004421Y001934D02*
X005098Y001934D01*
X005131Y001934D02*
X005517Y001934D01*
X005499Y001992D02*
X005201Y001992D01*
X005272Y002049D02*
X005442Y002049D01*
X005384Y002107D02*
X005343Y002107D01*
X005470Y001877D02*
X004049Y001877D01*
X004002Y001934D02*
X004388Y001934D01*
X004318Y001992D02*
X004020Y001992D01*
X004077Y002049D02*
X004247Y002049D01*
X004176Y002107D02*
X004135Y002107D01*
X004096Y001819D02*
X005423Y001819D01*
X005377Y001762D02*
X004142Y001762D01*
X004552Y001992D02*
X004967Y001992D01*
X004908Y002049D02*
X004611Y002049D01*
X004617Y002107D02*
X004902Y002107D01*
X004896Y002164D02*
X004623Y002164D01*
X004629Y002222D02*
X004890Y002222D01*
X004884Y002280D02*
X004635Y002280D01*
X004947Y000898D02*
X005409Y000898D01*
X005456Y000841D02*
X004970Y000841D01*
X004994Y000783D02*
X005503Y000783D01*
X005517Y000726D02*
X005180Y000726D01*
X005251Y000668D02*
X005459Y000668D01*
X005402Y000610D02*
X005321Y000610D01*
X005020Y000726D02*
X005018Y000726D01*
D130*
X004739Y002550D03*
X004739Y007250D03*
D131*
X004739Y007263D03*
X004739Y008153D03*
X004739Y003453D03*
X004739Y002563D03*
D132*
X004739Y002575D03*
X004739Y003440D03*
X004739Y007275D03*
X004739Y008140D03*
D133*
X004739Y007288D03*
X004739Y002588D03*
D134*
X004739Y002601D03*
X004739Y007301D03*
D135*
X004739Y007314D03*
X004739Y008102D03*
X004739Y003402D03*
X004739Y002614D03*
D136*
X004739Y002626D03*
X004739Y003389D03*
X004739Y007326D03*
X004739Y008089D03*
D137*
X004739Y008064D03*
X004739Y007352D03*
X004739Y007339D03*
X004739Y003364D03*
X004739Y002652D03*
X004739Y002639D03*
D138*
X004739Y002664D03*
X004739Y007364D03*
D139*
X004739Y007377D03*
X004739Y008039D03*
X004739Y003339D03*
X004739Y002677D03*
D140*
X004739Y002690D03*
X004739Y007390D03*
D141*
X004739Y007403D03*
X004739Y007428D03*
X004739Y008000D03*
X004739Y008013D03*
X004739Y003313D03*
X004739Y003300D03*
X004739Y002728D03*
X004739Y002703D03*
D142*
X004739Y002715D03*
X004739Y007415D03*
D143*
X005292Y007441D03*
D144*
X004472Y007441D03*
D145*
X005337Y007454D03*
D146*
X005420Y007619D03*
X005025Y007784D03*
X004796Y007454D03*
X005178Y003084D03*
X005420Y002754D03*
D147*
X005178Y002919D03*
X004453Y007454D03*
X005025Y007619D03*
D148*
X004071Y007454D03*
D149*
X005356Y007466D03*
D150*
X004784Y007466D03*
X004453Y007466D03*
D151*
X004065Y007466D03*
X004065Y007530D03*
X004065Y007581D03*
X004065Y007632D03*
X004065Y007695D03*
X004065Y007746D03*
X004065Y007797D03*
X004065Y007861D03*
X004065Y007911D03*
X004065Y007962D03*
D152*
X005369Y007479D03*
D153*
X004771Y007479D03*
X004453Y007479D03*
X004453Y007492D03*
X005178Y002868D03*
D154*
X004065Y007479D03*
X004065Y007492D03*
X004065Y007504D03*
X004065Y007517D03*
X004065Y007555D03*
X004065Y007568D03*
X004065Y007593D03*
X004065Y007606D03*
X004065Y007644D03*
X004065Y007657D03*
X004065Y007670D03*
X004065Y007682D03*
X004065Y007721D03*
X004065Y007733D03*
X004065Y007759D03*
X004065Y007772D03*
X004065Y007810D03*
X004065Y007822D03*
X004065Y007835D03*
X004065Y007848D03*
X004065Y007886D03*
X004065Y007899D03*
X004065Y007924D03*
X004065Y007937D03*
X004078Y007988D03*
D155*
X005381Y007492D03*
D156*
X005025Y007568D03*
X004758Y007492D03*
X004466Y007517D03*
X004758Y007937D03*
X004911Y003237D03*
X004911Y002792D03*
D157*
X005388Y007504D03*
X005388Y007937D03*
D158*
X004752Y007504D03*
X004408Y007886D03*
X004408Y007899D03*
X004904Y003224D03*
X005184Y002855D03*
X004904Y002804D03*
D159*
X004917Y002779D03*
X004459Y007504D03*
X004421Y007924D03*
X004421Y007937D03*
D160*
X005394Y007924D03*
X005394Y007517D03*
D161*
X005025Y007555D03*
X004745Y007517D03*
X004478Y007555D03*
X004478Y007568D03*
X004745Y007924D03*
X005025Y007886D03*
X005483Y003186D03*
X005483Y002855D03*
X004898Y002817D03*
D162*
X005401Y007530D03*
X005401Y007911D03*
D163*
X005032Y007530D03*
D164*
X004739Y007530D03*
X004396Y007861D03*
X005490Y003161D03*
X005490Y002881D03*
X004892Y002830D03*
D165*
X004466Y007530D03*
X004415Y007911D03*
D166*
X005401Y007543D03*
D167*
X005032Y007543D03*
X004726Y007873D03*
X005502Y003084D03*
X005502Y003008D03*
D168*
X004739Y007543D03*
D169*
X004472Y007543D03*
D170*
X004065Y007543D03*
X004065Y007619D03*
X004065Y007708D03*
X004065Y007784D03*
X004065Y007873D03*
X004065Y007950D03*
D171*
X005407Y007886D03*
X005407Y007555D03*
D172*
X004733Y007555D03*
X004733Y007886D03*
X004389Y007835D03*
X004885Y003186D03*
X005178Y003186D03*
X005496Y003135D03*
X005496Y003122D03*
X005496Y003110D03*
X005496Y002906D03*
X005496Y002893D03*
X004885Y002855D03*
X004440Y002982D03*
X004440Y003059D03*
D173*
X005172Y003021D03*
X005413Y007568D03*
X005032Y007721D03*
X005032Y007733D03*
X004790Y007988D03*
D174*
X004726Y007848D03*
X004726Y007568D03*
X004383Y007810D03*
X004383Y007822D03*
X004879Y003148D03*
X004879Y002868D03*
X005502Y002944D03*
X005502Y002957D03*
X005502Y002970D03*
X005502Y002982D03*
X005502Y003021D03*
X005502Y003033D03*
X005502Y003059D03*
X005502Y003072D03*
D175*
X005172Y002995D03*
X005413Y007581D03*
X005413Y007861D03*
D176*
X005025Y007861D03*
X004771Y007962D03*
X005025Y007581D03*
X005178Y003161D03*
X005178Y002881D03*
D177*
X004879Y002881D03*
X004879Y003161D03*
X004434Y002995D03*
X005502Y002995D03*
X005502Y003046D03*
X005502Y003097D03*
X005502Y002932D03*
X004726Y007581D03*
X004726Y007861D03*
D178*
X004485Y007581D03*
D179*
X005025Y007644D03*
X005025Y007657D03*
X005025Y007670D03*
X005025Y007682D03*
X005025Y007759D03*
X005025Y007772D03*
X005420Y007810D03*
X005420Y007822D03*
X005420Y007835D03*
X005420Y007848D03*
X005420Y007606D03*
X005420Y007593D03*
X005178Y003072D03*
X005178Y003059D03*
X005178Y003033D03*
X005178Y002982D03*
X005178Y002970D03*
X005178Y002957D03*
X005178Y002944D03*
D180*
X005025Y007593D03*
X005025Y007848D03*
X004427Y007975D03*
D181*
X004720Y007835D03*
X004720Y007822D03*
X004720Y007810D03*
X004720Y007606D03*
X004720Y007593D03*
X005025Y007899D03*
X004402Y003275D03*
X004427Y003033D03*
X004427Y003021D03*
X004873Y003110D03*
X004873Y003122D03*
X004873Y003135D03*
X004873Y002906D03*
X004873Y002893D03*
D182*
X003982Y003059D03*
X004491Y007593D03*
X004491Y007606D03*
D183*
X005032Y007606D03*
X005032Y007835D03*
D184*
X004720Y007619D03*
X004427Y003008D03*
X004873Y002919D03*
D185*
X004497Y007619D03*
D186*
X005032Y007632D03*
X005426Y007632D03*
X005426Y007695D03*
X005426Y007746D03*
X005426Y007797D03*
X005172Y002932D03*
D187*
X004427Y003046D03*
X004720Y007632D03*
X004377Y007797D03*
D188*
X004504Y007632D03*
D189*
X004434Y007988D03*
X005426Y007772D03*
X005426Y007759D03*
X005426Y007733D03*
X005426Y007721D03*
X005426Y007682D03*
X005426Y007670D03*
X005426Y007657D03*
X005426Y007644D03*
X004930Y003275D03*
D190*
X004866Y003072D03*
X004866Y003059D03*
X004866Y003033D03*
X004866Y003021D03*
X004866Y002982D03*
X004866Y002970D03*
X004866Y002957D03*
X004866Y002944D03*
X004714Y007644D03*
X004714Y007657D03*
X004714Y007670D03*
X004714Y007682D03*
X004714Y007721D03*
X004714Y007733D03*
X004714Y007759D03*
X004714Y007772D03*
X004370Y007772D03*
D191*
X004504Y007644D03*
X003970Y003033D03*
X003970Y003021D03*
D192*
X004326Y007644D03*
D193*
X004510Y007657D03*
D194*
X004548Y007772D03*
X004332Y007670D03*
X004332Y007657D03*
D195*
X004517Y007670D03*
X004517Y007682D03*
X005178Y003199D03*
D196*
X004338Y007682D03*
X004542Y007759D03*
D197*
X005025Y007746D03*
X005025Y007695D03*
X005025Y007797D03*
X005178Y003097D03*
X005178Y003046D03*
D198*
X004866Y003046D03*
X004866Y002995D03*
X004866Y002932D03*
X004866Y003097D03*
X004714Y007695D03*
X004714Y007746D03*
X004714Y007797D03*
D199*
X004523Y007695D03*
X004358Y007746D03*
X003950Y003262D03*
D200*
X004345Y007695D03*
D201*
X005426Y007708D03*
X005426Y007784D03*
X004943Y002754D03*
D202*
X005172Y003008D03*
X005032Y007708D03*
X005413Y007873D03*
D203*
X004714Y007784D03*
X004714Y007708D03*
X004370Y007784D03*
X004866Y003084D03*
X004866Y003008D03*
D204*
X004529Y007708D03*
D205*
X004345Y007708D03*
D206*
X004351Y007721D03*
X004529Y007721D03*
D207*
X004536Y007733D03*
D208*
X004358Y007733D03*
X003963Y003275D03*
X003950Y003237D03*
X003950Y003224D03*
D209*
X004542Y007746D03*
D210*
X004364Y007759D03*
D211*
X004548Y007784D03*
D212*
X004555Y007797D03*
D213*
X005025Y007810D03*
X005025Y007822D03*
X005178Y003122D03*
X005178Y003110D03*
X005178Y002906D03*
D214*
X005490Y002868D03*
X005490Y003148D03*
X004892Y003199D03*
X004396Y007848D03*
X004739Y007899D03*
D215*
X005025Y007873D03*
X005178Y003173D03*
D216*
X005483Y003173D03*
X005483Y002843D03*
X004402Y007873D03*
D217*
X005401Y007899D03*
X004536Y003199D03*
X005388Y002741D03*
D218*
X004898Y003211D03*
X004745Y007911D03*
D219*
X005375Y007950D03*
D220*
X004765Y007950D03*
X004917Y003250D03*
D221*
X004421Y007950D03*
D222*
X005369Y007962D03*
D223*
X004427Y007962D03*
D224*
X005350Y007975D03*
D225*
X004777Y007975D03*
D226*
X004071Y007975D03*
D227*
X005331Y007988D03*
D228*
X004739Y008026D03*
X004739Y003326D03*
D229*
X004739Y003351D03*
X004739Y008051D03*
D230*
X004739Y008077D03*
X004739Y003377D03*
D231*
X004739Y003415D03*
X004739Y008115D03*
D232*
X004739Y008128D03*
X004739Y003428D03*
D233*
X004739Y003466D03*
X004739Y008166D03*
D234*
X004542Y003186D03*
X004542Y003148D03*
X004542Y003135D03*
X004542Y003122D03*
X004542Y003110D03*
X004542Y003072D03*
X004542Y002970D03*
X004542Y002957D03*
X004542Y002944D03*
X004542Y002906D03*
X004542Y002893D03*
X004542Y002868D03*
X004542Y002855D03*
X004542Y002817D03*
X004542Y002804D03*
X004542Y002792D03*
X004962Y002741D03*
X004084Y002779D03*
X004084Y002792D03*
X004084Y002804D03*
X004084Y002817D03*
X004084Y002855D03*
X004084Y002868D03*
X004084Y002893D03*
X004084Y002906D03*
X004084Y002944D03*
X004084Y002957D03*
X004084Y002970D03*
X004084Y003072D03*
X004084Y003110D03*
X004084Y003122D03*
X004084Y003135D03*
X004084Y003148D03*
X004084Y003186D03*
X004084Y003199D03*
D235*
X004542Y002741D03*
D236*
X004109Y002741D03*
D237*
X004536Y002754D03*
D238*
X004090Y002754D03*
D239*
X005439Y002766D03*
X005439Y003262D03*
D240*
X004930Y003262D03*
X004930Y002766D03*
D241*
X004536Y002766D03*
X004090Y002766D03*
D242*
X005451Y002779D03*
D243*
X004536Y002779D03*
D244*
X005458Y002792D03*
X005458Y003237D03*
D245*
X005464Y003224D03*
X005464Y002804D03*
D246*
X005470Y002817D03*
D247*
X005477Y002830D03*
D248*
X005178Y002830D03*
D249*
X004542Y002830D03*
X004542Y002881D03*
X004542Y002932D03*
X004542Y003097D03*
X004542Y003161D03*
X004084Y003161D03*
X004084Y003097D03*
X004084Y002932D03*
X004084Y002881D03*
X004084Y002830D03*
D250*
X004885Y002843D03*
X005178Y002843D03*
X005496Y002919D03*
X004885Y003173D03*
D251*
X004542Y003173D03*
X004542Y003084D03*
X004542Y002919D03*
X004542Y002843D03*
X004084Y002843D03*
X004084Y002919D03*
X004084Y003084D03*
X004084Y003173D03*
D252*
X005178Y003148D03*
X005178Y003135D03*
X005178Y002893D03*
D253*
X003989Y002982D03*
D254*
X003976Y002995D03*
X003976Y003046D03*
D255*
X003970Y003008D03*
D256*
X005477Y003199D03*
D257*
X005470Y003211D03*
D258*
X004415Y003211D03*
X004402Y003262D03*
D259*
X003957Y003211D03*
D260*
X004408Y003224D03*
X004408Y003237D03*
D261*
X005451Y003250D03*
D262*
X004402Y003250D03*
D263*
X003950Y003250D03*
D264*
X005420Y003275D03*
D265*
X005394Y003288D03*
D266*
X004523Y003288D03*
M02*
