%
M48
M72
T01C0.0138
T02C0.0354
T03C0.0400
T04C0.0717
%
T01
X15160Y3850
X16660Y3850
X17260Y3450
X17260Y2950
X18160Y3750
X18560Y3250
X19060Y3250
X20260Y2850
X22060Y2850
X22060Y3650
X22060Y4650
X22060Y5150
X23760Y5150
X23760Y4650
X23760Y2850
X20260Y4650
X20260Y5150
X19060Y4650
X18560Y4650
X18160Y4250
X15260Y5150
X15260Y6150
X15260Y7150
X15260Y8150
X16260Y8150
X17060Y7750
X17460Y8150
X17960Y8150
X17060Y7250
T02
X4110Y4381
X4110Y5366
X4110Y6350
X5409Y6350
X5409Y5366
X5409Y4381
T03
X8760Y750
X9760Y750
X10760Y750
X11760Y750
X12760Y750
X13760Y750
X14760Y750
X15760Y750
X16760Y750
X17760Y750
X18760Y750
X19760Y750
T04
X20811Y3650
X23169Y3650
X23160Y7850
X20801Y7850
X10108Y7850
X7750Y7850
X7760Y3650
X10118Y3650
M30
